<svg width="16" height="16" viewBox="0 0 16 16" fill="none" xmlns="http://www.w3.org/2000/svg">
<path d="M10.6667 1.33398H5.33333C3 1.33398 2 2.66732 2 4.66732V11.334C2 13.334 3 14.6673 5.33333 14.6673H10.6667C13 14.6673 14 13.334 14 11.334V4.66732C14 2.66732 13 1.33398 10.6667 1.33398ZM5.33333 8.16732H8C8.27333 8.16732 8.5 8.39398 8.5 8.66732C8.5 8.94065 8.27333 9.16732 8 9.16732H5.33333C5.06 9.16732 4.83333 8.94065 4.83333 8.66732C4.83333 8.39398 5.06 8.16732 5.33333 8.16732ZM10.6667 11.834H5.33333C5.06 11.834 4.83333 11.6073 4.83333 11.334C4.83333 11.0607 5.06 10.834 5.33333 10.834H10.6667C10.94 10.834 11.1667 11.0607 11.1667 11.334C11.1667 11.6073 10.94 11.834 10.6667 11.834ZM12.3333 6.16732H11C9.98667 6.16732 9.16667 5.34732 9.16667 4.33398V3.00065C9.16667 2.72732 9.39333 2.50065 9.66667 2.50065C9.94 2.50065 10.1667 2.72732 10.1667 3.00065V4.33398C10.1667 4.79398 10.54 5.16732 11 5.16732H12.3333C12.6067 5.16732 12.8333 5.39398 12.8333 5.66732C12.8333 5.94065 12.6067 6.16732 12.3333 6.16732Z" fill="#FEFEFE"/>
</svg>
