<svg width="16" height="16" viewBox="0 0 16 16" fill="none" xmlns="http://www.w3.org/2000/svg">
<path d="M14.0466 3.48659C12.9733 3.37992 11.8999 3.29992 10.8199 3.23992V3.23325L10.6733 2.36659C10.5733 1.75325 10.4266 0.833252 8.86661 0.833252H7.11994C5.56661 0.833252 5.41994 1.71325 5.31328 2.35992L5.17328 3.21325C4.55328 3.25325 3.93328 3.29325 3.31328 3.35325L1.95328 3.48659C1.67328 3.51325 1.47328 3.75992 1.49994 4.03325C1.52661 4.30659 1.76661 4.50659 2.04661 4.47992L3.40661 4.34659C6.89994 3.99992 10.4199 4.13325 13.9533 4.48659C13.9733 4.48659 13.9866 4.48659 14.0066 4.48659C14.2599 4.48659 14.4799 4.29325 14.5066 4.03325C14.5266 3.75992 14.3266 3.51325 14.0466 3.48659Z" fill="#DC3545"/>
<path d="M12.8202 5.42675C12.6602 5.26008 12.4402 5.16675 12.2135 5.16675H3.78683C3.56016 5.16675 3.33349 5.26008 3.18016 5.42675C3.02683 5.59341 2.94016 5.82008 2.95349 6.05341L3.36683 12.8934C3.44016 13.9067 3.53349 15.1734 5.86016 15.1734H10.1402C12.4668 15.1734 12.5602 13.9134 12.6335 12.8934L13.0468 6.06008C13.0602 5.82008 12.9735 5.59341 12.8202 5.42675ZM9.10682 11.8334H6.88683C6.61349 11.8334 6.38683 11.6067 6.38683 11.3334C6.38683 11.0601 6.61349 10.8334 6.88683 10.8334H9.10682C9.38016 10.8334 9.60682 11.0601 9.60682 11.3334C9.60682 11.6067 9.38016 11.8334 9.10682 11.8334ZM9.66683 9.16675H6.33349C6.06016 9.16675 5.83349 8.94008 5.83349 8.66675C5.83349 8.39341 6.06016 8.16675 6.33349 8.16675H9.66683C9.94016 8.16675 10.1668 8.39341 10.1668 8.66675C10.1668 8.94008 9.94016 9.16675 9.66683 9.16675Z" fill="#DC3545"/>
</svg>
