<svg width="16" height="16" viewBox="0 0 16 16" fill="none" xmlns="http://www.w3.org/2000/svg">
<path d="M14 14.667H2C1.72667 14.667 1.5 14.4403 1.5 14.167C1.5 13.8937 1.72667 13.667 2 13.667H14C14.2733 13.667 14.5 13.8937 14.5 14.167C14.5 14.4403 14.2733 14.667 14 14.667Z" fill="white"/>
<path d="M12.6799 2.32043C11.3866 1.0271 10.1199 0.993764 8.79322 2.32043L7.98655 3.1271C7.91989 3.19376 7.89322 3.30043 7.91989 3.39376C8.42655 5.16043 9.83989 6.57376 11.6066 7.08043C11.6332 7.0871 11.6599 7.09376 11.6866 7.09376C11.7599 7.09376 11.8266 7.0671 11.8799 7.01376L12.6799 6.2071C13.3399 5.55376 13.6599 4.92043 13.6599 4.28043C13.6666 3.62043 13.3466 2.98043 12.6799 2.32043Z" fill="white"/>
<path d="M10.4066 7.68654C10.2132 7.5932 10.0266 7.49987 9.84655 7.3932C9.69989 7.30654 9.55989 7.2132 9.41989 7.1132C9.30655 7.03987 9.17322 6.9332 9.04655 6.82654C9.03322 6.81987 8.98655 6.77987 8.93322 6.72654C8.71322 6.53987 8.46655 6.29987 8.24655 6.0332C8.22655 6.01987 8.19322 5.9732 8.14655 5.9132C8.07989 5.8332 7.96655 5.69987 7.86655 5.54654C7.78655 5.44654 7.69322 5.29987 7.60655 5.1532C7.49989 4.9732 7.40655 4.7932 7.31322 4.60654V4.60654C7.19085 4.34431 6.84668 4.26641 6.64206 4.47103L2.89322 8.21987C2.80655 8.30654 2.72655 8.4732 2.70655 8.58654L2.34655 11.1399C2.27989 11.5932 2.40655 12.0199 2.68655 12.3065C2.92655 12.5399 3.25989 12.6665 3.61989 12.6665C3.69989 12.6665 3.77989 12.6599 3.85989 12.6465L6.41989 12.2865C6.53989 12.2665 6.70655 12.1865 6.78655 12.0999L10.5416 8.34484C10.7421 8.14432 10.6668 7.79929 10.4066 7.68654V7.68654Z" fill="white"/>
</svg>
