<svg width="14" height="12" viewBox="0 0 14 12" fill="none" xmlns="http://www.w3.org/2000/svg">
<path d="M13.1666 4.10044C11.6266 1.68044 9.37325 0.287109 6.99992 0.287109C5.81325 0.287109 4.65992 0.633776 3.60659 1.28044C2.55325 1.93378 1.60659 2.88711 0.833252 4.10044C0.166585 5.14711 0.166585 6.84711 0.833252 7.89378C2.37325 10.3204 4.62659 11.7071 6.99992 11.7071C8.18659 11.7071 9.33992 11.3604 10.3933 10.7138C11.4466 10.0604 12.3933 9.10711 13.1666 7.89378C13.8333 6.85378 13.8333 5.14711 13.1666 4.10044ZM6.99992 8.69378C5.50659 8.69378 4.30659 7.48711 4.30659 6.00044C4.30659 4.51378 5.50659 3.30711 6.99992 3.30711C8.49325 3.30711 9.69325 4.51378 9.69325 6.00044C9.69325 7.48711 8.49325 8.69378 6.99992 8.69378Z" fill="#FEFEFE"/>
</svg>
