<svg width="16" height="16" viewBox="0 0 16 16" fill="none" xmlns="http://www.w3.org/2000/svg">
<path d="M14.1666 6.10044C12.6266 3.68044 10.3733 2.28711 7.99992 2.28711C6.81325 2.28711 5.65992 2.63378 4.60659 3.28044C3.55325 3.93378 2.60659 4.88711 1.83325 6.10044C1.16659 7.14711 1.16659 8.84711 1.83325 9.89378C3.37325 12.3204 5.62659 13.7071 7.99992 13.7071C9.18659 13.7071 10.3399 13.3604 11.3933 12.7138C12.4466 12.0604 13.3933 11.1071 14.1666 9.89378C14.8333 8.85378 14.8333 7.14711 14.1666 6.10044ZM7.99992 10.6938C6.50659 10.6938 5.30659 9.48711 5.30659 8.00044C5.30659 6.51378 6.50659 5.30711 7.99992 5.30711C9.49325 5.30711 10.6933 6.51378 10.6933 8.00044C10.6933 9.48711 9.49325 10.6938 7.99992 10.6938Z" fill="#ADADAD"/>
<path d="M8.0001 6.09375C6.95343 6.09375 6.1001 6.94708 6.1001 8.00042C6.1001 9.04708 6.95343 9.90042 8.0001 9.90042C9.04676 9.90042 9.90676 9.04708 9.90676 8.00042C9.90676 6.95375 9.04676 6.09375 8.0001 6.09375Z" fill="#ADADAD"/>
</svg>
