<svg width="16" height="16" viewBox="0 0 16 16" fill="none" xmlns="http://www.w3.org/2000/svg">
<path d="M13.1933 2.81289C11.2199 0.846224 8.01994 0.846224 6.05994 2.81289C4.67994 4.17956 4.2666 6.14622 4.79993 7.87956L1.6666 11.0129C1.4466 11.2396 1.29327 11.6862 1.33993 12.0062L1.53993 13.4596C1.61327 13.9396 2.05993 14.3929 2.53993 14.4596L3.99327 14.6596C4.31327 14.7062 4.75993 14.5596 4.9866 14.3262L5.53327 13.7796C5.6666 13.6529 5.6666 13.4396 5.53327 13.3062L4.23994 12.0129C4.0466 11.8196 4.0466 11.4996 4.23994 11.3062C4.43327 11.1129 4.75327 11.1129 4.9466 11.3062L6.2466 12.6062C6.37327 12.7329 6.5866 12.7329 6.71327 12.6062L8.1266 11.1996C9.85327 11.7396 11.8199 11.3196 13.1933 9.95289C15.1599 7.98622 15.1599 4.77956 13.1933 2.81289ZM9.6666 7.99956C8.7466 7.99956 7.99993 7.25289 7.99993 6.33289C7.99993 5.41289 8.7466 4.66622 9.6666 4.66622C10.5866 4.66622 11.3333 5.41289 11.3333 6.33289C11.3333 7.25289 10.5866 7.99956 9.6666 7.99956Z" fill="#FEFEFE"/>
</svg>
