<svg width="16" height="17" viewBox="0 0 16 17" fill="none" xmlns="http://www.w3.org/2000/svg">
<path d="M10.7933 1.83301H5.20659C2.77992 1.83301 1.33325 3.27967 1.33325 5.70634V11.2863C1.33325 13.7197 2.77992 15.1663 5.20659 15.1663H10.7866C13.2133 15.1663 14.6599 13.7197 14.6599 11.293V5.70634C14.6666 3.27967 13.2199 1.83301 10.7933 1.83301ZM7.99992 12.6663C6.80659 12.6663 5.87325 12.073 5.23992 11.4863V11.9597C5.23992 12.233 5.01325 12.4597 4.73992 12.4597C4.46659 12.4597 4.23992 12.233 4.23992 11.9597V10.1263C4.23992 9.85301 4.46659 9.62634 4.73992 9.62634H6.39325C6.66659 9.62634 6.89325 9.85301 6.89325 10.1263C6.89325 10.3997 6.66659 10.6263 6.39325 10.6263H5.79325C6.28659 11.1197 7.05325 11.6663 7.99992 11.6663C9.74659 11.6663 11.1666 10.2463 11.1666 8.49967C11.1666 8.22634 11.3933 7.99967 11.6666 7.99967C11.9399 7.99967 12.1666 8.22634 12.1666 8.49967C12.1666 10.7997 10.2999 12.6663 7.99992 12.6663ZM12.1666 6.85967C12.1666 6.87967 12.1666 6.89967 12.1666 6.91301C12.1599 6.98634 12.1399 7.05301 12.1066 7.11301C12.0733 7.17301 12.0266 7.22634 11.9666 7.27301C11.9199 7.30634 11.8666 7.33301 11.8066 7.35301C11.7599 7.36634 11.7133 7.37301 11.6666 7.37301H10.0466C9.77325 7.37301 9.54659 7.14634 9.54659 6.87301C9.54659 6.59967 9.77325 6.37301 10.0466 6.37301H10.5999C10.0666 5.87967 9.20659 5.33301 8.01325 5.33301C6.26659 5.33301 4.84659 6.75301 4.84659 8.49967C4.84659 8.77301 4.61992 8.99967 4.34659 8.99967C4.07325 8.99967 3.83325 8.77301 3.83325 8.49967C3.83325 6.19967 5.69992 4.33301 7.99992 4.33301C9.43325 4.33301 10.4866 4.95301 11.1666 5.54634V5.03967C11.1666 4.76634 11.3933 4.53967 11.6666 4.53967C11.9399 4.53967 12.1666 4.76634 12.1666 5.03967V6.85967Z" fill="#ADADAD"/>
</svg>
