<svg width="16" height="16" viewBox="0 0 16 16" fill="none" xmlns="http://www.w3.org/2000/svg">
<path d="M14.5 4.48712C14.5 4.35379 14.4467 4.22712 14.3533 4.13379L11.8733 1.65379C11.68 1.46046 11.36 1.46046 11.1667 1.65379C10.9733 1.84712 10.9733 2.16712 11.1667 2.36046L12.8 3.99379H2C1.72667 3.99379 1.5 4.22046 1.5 4.49379C1.5 4.76712 1.72667 4.98712 2 4.98712H12.7933L11.1667 6.61379C10.9733 6.80712 10.9733 7.12712 11.1667 7.32046C11.2667 7.42046 11.3933 7.46712 11.52 7.46712C11.6467 7.46712 11.7733 7.42046 11.8733 7.32046L14.3467 4.84712C14.3933 4.80046 14.4333 4.74046 14.46 4.67379C14.46 4.66712 14.46 4.66046 14.4667 4.65379C14.4867 4.60046 14.5 4.54712 14.5 4.48712Z" fill="#FEFEFE"/>
<path d="M14 11.0135H3.20667L4.83333 9.38682C5.02667 9.19349 5.02667 8.87349 4.83333 8.68016C4.64 8.48682 4.32 8.48682 4.12667 8.68016L1.65333 11.1535C1.60667 11.2002 1.56667 11.2602 1.54 11.3268C1.54 11.3335 1.54 11.3402 1.53333 11.3468C1.51333 11.4002 1.5 11.4602 1.5 11.5202C1.5 11.6535 1.55333 11.7802 1.64667 11.8735L4.12667 14.3535C4.22667 14.4535 4.35333 14.5002 4.48 14.5002C4.60667 14.5002 4.73333 14.4535 4.83333 14.3535C5.02667 14.1602 5.02667 13.8402 4.83333 13.6468L3.2 12.0135H14C14.2733 12.0135 14.5 11.7868 14.5 11.5135C14.5 11.2402 14.2733 11.0135 14 11.0135Z" fill="#FEFEFE"/>
</svg>
