<svg width="16" height="16" viewBox="0 0 16 16" fill="none" xmlns="http://www.w3.org/2000/svg">
<path d="M13.5733 8.48574C13.3266 8.48574 13.12 8.29907 13.0933 8.05241C12.9333 6.58574 12.1466 5.26574 10.9333 4.42574C10.7133 4.27241 10.66 3.97241 10.8133 3.75241C10.9666 3.53241 11.2666 3.47907 11.4866 3.63241C12.9333 4.63907 13.8666 6.21241 14.06 7.95241C14.0866 8.21907 13.8933 8.45907 13.6266 8.48574C13.6066 8.48574 13.5933 8.48574 13.5733 8.48574Z" fill="#ADADAD"/>
<path d="M2.49344 8.52013C2.48011 8.52013 2.46011 8.52013 2.44678 8.52013C2.18011 8.49347 1.98678 8.25347 2.01344 7.9868C2.19344 6.2468 3.11344 4.67347 4.54678 3.66013C4.76011 3.5068 5.06678 3.56013 5.22011 3.77347C5.37344 3.99347 5.32011 4.29347 5.10678 4.4468C3.90678 5.30013 3.12678 6.62013 2.98011 8.08013C2.95344 8.33347 2.74011 8.52013 2.49344 8.52013Z" fill="#ADADAD"/>
<path d="M10.6601 14.0675C9.84007 14.4609 8.96007 14.6609 8.04007 14.6609C7.08007 14.6609 6.16673 14.4475 5.3134 14.0142C5.0734 13.9009 4.98007 13.6075 5.10007 13.3675C5.2134 13.1275 5.50673 13.0342 5.74673 13.1475C6.16673 13.3609 6.6134 13.5075 7.06673 13.5942C7.68007 13.7142 8.30673 13.7209 8.92007 13.6142C9.3734 13.5342 9.82007 13.3942 10.2334 13.1942C10.4801 13.0809 10.7734 13.1742 10.8801 13.4209C11.0001 13.6609 10.9067 13.9542 10.6601 14.0675Z" fill="#ADADAD"/>
<path d="M8.03332 1.33984C6.99999 1.33984 6.15332 2.17984 6.15332 3.21984C6.15332 4.25984 6.99332 5.09984 8.03332 5.09984C9.07332 5.09984 9.91332 4.25984 9.91332 3.21984C9.91332 2.17984 9.07332 1.33984 8.03332 1.33984Z" fill="#ADADAD"/>
<path d="M3.36657 9.24609C2.33324 9.24609 1.48657 10.0861 1.48657 11.1261C1.48657 12.1661 2.32657 13.0061 3.36657 13.0061C4.40657 13.0061 5.24657 12.1661 5.24657 11.1261C5.24657 10.0861 4.39991 9.24609 3.36657 9.24609Z" fill="#ADADAD"/>
<path d="M12.6334 9.24609C11.6001 9.24609 10.7534 10.0861 10.7534 11.1261C10.7534 12.1661 11.5934 13.0061 12.6334 13.0061C13.6734 13.0061 14.5134 12.1661 14.5134 11.1261C14.5134 10.0861 13.6734 9.24609 12.6334 9.24609Z" fill="#ADADAD"/>
</svg>
