<svg width="16" height="16" viewBox="0 0 16 16" fill="none" xmlns="http://www.w3.org/2000/svg">
<path d="M11.3333 2.33398H4.66659C2.66659 2.33398 1.33325 3.33398 1.33325 5.66732V10.334C1.33325 12.6673 2.66659 13.6673 4.66659 13.6673H11.3333C13.3333 13.6673 14.6666 12.6673 14.6666 10.334V5.66732C14.6666 3.33398 13.3333 2.33398 11.3333 2.33398ZM11.6466 6.39398L9.55992 8.06065C9.11992 8.41398 8.55992 8.58732 7.99992 8.58732C7.43992 8.58732 6.87325 8.41398 6.43992 8.06065L4.35325 6.39398C4.13992 6.22065 4.10659 5.90065 4.27325 5.68732C4.44659 5.47398 4.75992 5.43398 4.97325 5.60732L7.05992 7.27398C7.56659 7.68065 8.42659 7.68065 8.93325 7.27398L11.0199 5.60732C11.2333 5.43398 11.5533 5.46732 11.7199 5.68732C11.8933 5.90065 11.8599 6.22065 11.6466 6.39398Z" fill="#ADADAD"/>
</svg>
