<svg width="28" height="28" viewBox="0 0 28 28" fill="none" xmlns="http://www.w3.org/2000/svg">
<path d="M0 8.4C0 3.76081 3.76081 0 8.4 0H19.6C24.2392 0 28 3.76081 28 8.4V19.6C28 24.2392 24.2392 28 19.6 28H8.4C3.76081 28 0 24.2392 0 19.6V8.4Z" fill="#28A745" fill-opacity="0.1"/>
<path d="M16.4441 8.1665H11.5558C9.43246 8.1665 8.16663 9.43234 8.16663 11.5557V16.4382C8.16663 18.5673 9.43246 19.8332 11.5558 19.8332H16.4383C18.5616 19.8332 19.8275 18.5673 19.8275 16.444V11.5557C19.8333 9.43234 18.5675 8.1665 16.4441 8.1665ZM11.4508 17.5873C11.4508 17.8265 11.2525 18.0248 11.0133 18.0248C10.7741 18.0248 10.5758 17.8265 10.5758 17.5873V16.3798C10.5758 16.1407 10.7741 15.9423 11.0133 15.9423C11.2525 15.9423 11.4508 16.1407 11.4508 16.3798V17.5873ZM14.4375 17.5873C14.4375 17.8265 14.2391 18.0248 14 18.0248C13.7608 18.0248 13.5625 17.8265 13.5625 17.5873V15.1665C13.5625 14.9273 13.7608 14.729 14 14.729C14.2391 14.729 14.4375 14.9273 14.4375 15.1665V17.5873ZM17.4241 17.5873C17.4241 17.8265 17.2258 18.0248 16.9866 18.0248C16.7475 18.0248 16.5491 17.8265 16.5491 17.5873V13.959C16.5491 13.7198 16.7475 13.5215 16.9866 13.5215C17.2258 13.5215 17.4241 13.7198 17.4241 13.959V17.5873ZM17.4241 12.1157C17.4241 12.3548 17.2258 12.5532 16.9866 12.5532C16.7475 12.5532 16.5491 12.3548 16.5491 12.1157V11.5498C15.0616 13.0782 13.2008 14.1573 11.1183 14.6765C11.0833 14.6882 11.0483 14.6882 11.0133 14.6882C10.815 14.6882 10.64 14.554 10.5875 14.3557C10.5291 14.1223 10.6691 13.8832 10.9083 13.8248C12.8741 13.3348 14.6241 12.3023 16.0125 10.844H15.2833C15.0441 10.844 14.8458 10.6457 14.8458 10.4065C14.8458 10.1673 15.0441 9.969 15.2833 9.969H16.9925C17.0158 9.969 17.0333 9.98067 17.0566 9.98067C17.0858 9.9865 17.115 9.9865 17.1441 9.99817C17.1733 10.0098 17.1966 10.0273 17.2258 10.0448C17.2433 10.0565 17.2608 10.0623 17.2783 10.074C17.2841 10.0798 17.2841 10.0857 17.29 10.0857C17.3133 10.109 17.3308 10.1323 17.3483 10.1557C17.3658 10.179 17.3833 10.1965 17.3891 10.2198C17.4008 10.2432 17.4008 10.2665 17.4066 10.2957C17.4125 10.3248 17.4241 10.354 17.4241 10.389C17.4241 10.3948 17.43 10.4007 17.43 10.4065V12.1157H17.4241Z" fill="#28A745"/>
</svg>
