<svg width="28" height="28" viewBox="0 0 28 28" fill="none" xmlns="http://www.w3.org/2000/svg">
<path d="M0 8.4C0 3.76081 3.76081 0 8.4 0H19.6C24.2392 0 28 3.76081 28 8.4V19.6C28 24.2392 24.2392 28 19.6 28H8.4C3.76081 28 0 24.2392 0 19.6V8.4Z" fill="#FEFEFE"/>
<path d="M0.42 8.4C0.42 3.99277 3.99277 0.42 8.4 0.42H19.6C24.0072 0.42 27.58 3.99277 27.58 8.4V19.6C27.58 24.0072 24.0072 27.58 19.6 27.58H8.4C3.99277 27.58 0.42 24.0072 0.42 19.6V8.4Z" stroke="#ADADAD" stroke-opacity="0.3" stroke-width="0.84"/>
<path d="M9.91667 12.8333C9.275 12.8333 8.75 13.3583 8.75 13.9999C8.75 14.6416 9.275 15.1666 9.91667 15.1666C10.5583 15.1666 11.0833 14.6416 11.0833 13.9999C11.0833 13.3583 10.5583 12.8333 9.91667 12.8333Z" fill="#ADADAD" stroke="#ADADAD" stroke-width="1.5"/>
<path d="M18.0832 12.8333C17.4415 12.8333 16.9165 13.3583 16.9165 13.9999C16.9165 14.6416 17.4415 15.1666 18.0832 15.1666C18.7248 15.1666 19.2498 14.6416 19.2498 13.9999C19.2498 13.3583 18.7248 12.8333 18.0832 12.8333Z" fill="#ADADAD" stroke="#ADADAD" stroke-width="1.5"/>
<path d="M14.0002 12.8333C13.3585 12.8333 12.8335 13.3583 12.8335 13.9999C12.8335 14.6416 13.3585 15.1666 14.0002 15.1666C14.6418 15.1666 15.1668 14.6416 15.1668 13.9999C15.1668 13.3583 14.6418 12.8333 14.0002 12.8333Z" fill="#ADADAD" stroke="#ADADAD"/>
</svg>
