<svg width="15" height="15" viewBox="0 0 15 15" fill="none" xmlns="http://www.w3.org/2000/svg">
<path d="M8.07373 10.3669L5.77866 12.662L5.7786 12.6621L5.77855 12.6621C4.82947 13.6113 3.2851 13.6113 2.33591 12.6621C1.87609 12.2023 1.62291 11.591 1.62291 10.9408C1.62291 10.2906 1.87609 9.67939 2.33575 9.21957L2.33591 9.2194L4.63099 6.92428C4.94783 6.60738 4.94783 6.09356 4.63093 5.77672C4.31408 5.45987 3.80027 5.45987 3.48337 5.77672L1.1883 8.07184L1.18781 8.07238C0.421849 8.83861 0 9.85732 0 10.9408C0 12.0245 0.422012 13.0434 1.18835 13.8097C1.97936 14.6007 3.0183 14.9962 4.05729 14.9962C5.09627 14.9962 6.13526 14.6007 6.92616 13.8097L6.92622 13.8096L9.22129 11.5145C9.53814 11.1976 9.53814 10.6838 9.22124 10.3669C8.90444 10.0501 8.39068 10.0501 8.07373 10.3669ZM15 4.05534C15 2.97162 14.5779 1.95275 13.8116 1.18641C12.2296 -0.395497 9.65564 -0.395443 8.07378 1.18641L8.07357 1.18668L5.77855 3.48164C5.46165 3.79849 5.46165 4.31236 5.77855 4.62921C5.85381 4.70468 5.94325 4.76454 6.04173 4.80533C6.1402 4.84612 6.24577 4.86705 6.35236 4.86691C6.55998 4.86691 6.76771 4.78766 6.92611 4.62921L9.22113 2.33424L9.2214 2.33397C10.1705 1.38489 11.7148 1.38484 12.664 2.33397C13.1238 2.7938 13.3771 3.40515 13.3771 4.05534C13.3771 4.70548 13.1239 5.31673 12.6642 5.77655L12.664 5.77672L10.369 8.07184C10.0521 8.38869 10.0521 8.9025 10.369 9.2194C10.4443 9.29487 10.5337 9.35471 10.6322 9.39551C10.7306 9.4363 10.8362 9.45723 10.9428 9.45711C11.1504 9.45711 11.3581 9.37785 11.5166 9.2194L13.8116 6.92428L13.8121 6.92374C14.5781 6.15751 15 5.1388 15 4.05534Z" fill="#1F2933"/>
<path d="M4.63111 10.3661C4.70637 10.4415 4.7958 10.5014 4.89427 10.5422C4.99273 10.583 5.09828 10.6039 5.20486 10.6038C5.41254 10.6038 5.62022 10.5245 5.77867 10.3661L10.3689 5.77582C10.6858 5.45898 10.6858 4.94516 10.3689 4.62826C10.0521 4.31141 9.53826 4.31141 9.22136 4.62826L4.63111 9.21846C4.31421 9.53541 4.31421 10.0492 4.63111 10.3661Z" fill="#1F2933"/>
</svg>
