<svg width="16" height="17" viewBox="0 0 16 17" fill="none" xmlns="http://www.w3.org/2000/svg">
<path d="M10.7933 1.83301H5.20659C2.77992 1.83301 1.33325 3.27967 1.33325 5.70634V11.2863C1.33325 13.7197 2.77992 15.1663 5.20659 15.1663H10.7866C13.2133 15.1663 14.6599 13.7197 14.6599 11.293V5.70634C14.6666 3.27967 13.2199 1.83301 10.7933 1.83301ZM11.9999 8.99967H8.49992V12.4997C8.49992 12.773 8.27325 12.9997 7.99992 12.9997C7.72659 12.9997 7.49992 12.773 7.49992 12.4997V8.99967H3.99992C3.72659 8.99967 3.49992 8.77301 3.49992 8.49967C3.49992 8.22634 3.72659 7.99967 3.99992 7.99967H7.49992V4.49967C7.49992 4.22634 7.72659 3.99967 7.99992 3.99967C8.27325 3.99967 8.49992 4.22634 8.49992 4.49967V7.99967H11.9999C12.2733 7.99967 12.4999 8.22634 12.4999 8.49967C12.4999 8.77301 12.2733 8.99967 11.9999 8.99967Z" fill="#ADADAD"/>
</svg>
