<svg width="18" height="19" viewBox="0 0 18 19" fill="none" xmlns="http://www.w3.org/2000/svg">
<path d="M12.1425 2H5.8575C3.1275 2 1.5 3.6275 1.5 6.3575V12.635C1.5 15.3725 3.1275 17 5.8575 17H12.135C14.865 17 16.4925 15.3725 16.4925 12.6425V6.3575C16.5 3.6275 14.8725 2 12.1425 2ZM13.5 10.0625H9.5625V14C9.5625 14.3075 9.3075 14.5625 9 14.5625C8.6925 14.5625 8.4375 14.3075 8.4375 14V10.0625H4.5C4.1925 10.0625 3.9375 9.8075 3.9375 9.5C3.9375 9.1925 4.1925 8.9375 4.5 8.9375H8.4375V5C8.4375 4.6925 8.6925 4.4375 9 4.4375C9.3075 4.4375 9.5625 4.6925 9.5625 5V8.9375H13.5C13.8075 8.9375 14.0625 9.1925 14.0625 9.5C14.0625 9.8075 13.8075 10.0625 13.5 10.0625Z" fill="white"/>
</svg>
