<svg width="24" height="24" viewBox="0 0 24 24" fill="none" xmlns="http://www.w3.org/2000/svg">
<path d="M15.0899 3.33047C15.2799 3.33047 15.4699 3.40047 15.6199 3.55047C15.9099 3.84047 15.9099 4.32047 15.6199 4.61047L9.0999 11.1305C8.6199 11.6105 8.6199 12.3905 9.0999 12.8705L15.6199 19.3905C15.9099 19.6805 15.9099 20.1605 15.6199 20.4505C15.3299 20.7405 14.8499 20.7405 14.5599 20.4505L8.0399 13.9305C7.5299 13.4205 7.2399 12.7305 7.2399 12.0005C7.2399 11.2705 7.5199 10.5805 8.0399 10.0705L14.5599 3.55047C14.7099 3.41047 14.8999 3.33047 15.0899 3.33047Z" fill="#0396FF"/>
</svg>
