<svg width="16" height="17" viewBox="0 0 16 17" fill="none" xmlns="http://www.w3.org/2000/svg">
<path d="M14.5 4.98615C14.5 4.85281 14.4467 4.72615 14.3533 4.63281L11.8733 2.15281C11.68 1.95948 11.36 1.95948 11.1667 2.15281C10.9733 2.34615 10.9733 2.66615 11.1667 2.85948L12.8 4.49281H2C1.72667 4.49281 1.5 4.71948 1.5 4.99281C1.5 5.26615 1.72667 5.48615 2 5.48615H12.7933L11.1667 7.11281C10.9733 7.30615 10.9733 7.62615 11.1667 7.81948C11.2667 7.91948 11.3933 7.96615 11.52 7.96615C11.6467 7.96615 11.7733 7.91948 11.8733 7.81948L14.3467 5.34615C14.3933 5.29948 14.4333 5.23948 14.46 5.17281C14.46 5.16615 14.46 5.15948 14.4667 5.15281C14.4867 5.09948 14.5 5.04615 14.5 4.98615Z" fill="#0396FF"/>
<path d="M14 11.5135H3.20667L4.83333 9.88682C5.02667 9.69349 5.02667 9.37349 4.83333 9.18016C4.64 8.98682 4.32 8.98682 4.12667 9.18016L1.65333 11.6535C1.60667 11.7002 1.56667 11.7602 1.54 11.8268C1.54 11.8335 1.54 11.8402 1.53333 11.8468C1.51333 11.9002 1.5 11.9602 1.5 12.0202C1.5 12.1535 1.55333 12.2802 1.64667 12.3735L4.12667 14.8535C4.22667 14.9535 4.35333 15.0002 4.48 15.0002C4.60667 15.0002 4.73333 14.9535 4.83333 14.8535C5.02667 14.6602 5.02667 14.3402 4.83333 14.1468L3.2 12.5135H14C14.2733 12.5135 14.5 12.2868 14.5 12.0135C14.5 11.7402 14.2733 11.5135 14 11.5135Z" fill="#0396FF"/>
</svg>
