<svg width="14" height="14" viewBox="0 0 14 14" fill="none" xmlns="http://www.w3.org/2000/svg">
<path d="M5.19727 12.0575C5.08644 12.0575 4.97561 12.0167 4.88811 11.9292C4.71894 11.76 4.71894 11.48 4.88811 11.3108L8.69144 7.50751C8.97144 7.22751 8.97144 6.77251 8.69144 6.49251L4.88811 2.68918C4.71894 2.52001 4.71894 2.24001 4.88811 2.07084C5.05727 1.90168 5.33727 1.90168 5.50644 2.07084L9.30977 5.87418C9.60727 6.17168 9.77644 6.57418 9.77644 7.00001C9.77644 7.42584 9.61311 7.82834 9.30977 8.12584L5.50644 11.9292C5.41894 12.0108 5.30811 12.0575 5.19727 12.0575Z" fill="#1F2933"/>
</svg>
