<svg width="16" height="16" viewBox="0 0 16 16" fill="none" xmlns="http://www.w3.org/2000/svg">
<path d="M10.793 1.3335H5.20634C2.77967 1.3335 1.33301 2.78016 1.33301 5.20683V10.7868C1.33301 13.2202 2.77967 14.6668 5.20634 14.6668H10.7863C13.213 14.6668 14.6597 13.2202 14.6597 10.7935V5.20683C14.6663 2.78016 13.2197 1.3335 10.793 1.3335ZM11.213 9.4935L8.35301 12.3535C8.25967 12.4468 8.13301 12.5002 7.99967 12.5002C7.86634 12.5002 7.73968 12.4468 7.64634 12.3535L4.78634 9.4935C4.59301 9.30016 4.59301 8.98016 4.78634 8.78683C4.97967 8.5935 5.29967 8.5935 5.49301 8.78683L7.49967 10.7935V4.00016C7.49967 3.72683 7.72634 3.50016 7.99967 3.50016C8.27301 3.50016 8.49967 3.72683 8.49967 4.00016V10.7935L10.5063 8.78683C10.6997 8.5935 11.0197 8.5935 11.213 8.78683C11.313 8.88683 11.3597 9.0135 11.3597 9.14016C11.3597 9.26683 11.3063 9.40016 11.213 9.4935Z" fill="#6FC3FF"/>
</svg>
