<svg width="31" height="31" viewBox="0 0 31 31" fill="none" xmlns="http://www.w3.org/2000/svg">
<path d="M0 8.4C0 3.76081 3.76081 0 8.4 0H22.6C27.2392 0 31 3.76081 31 8.4V22.6C31 27.2392 27.2392 31 22.6 31H8.4C3.76081 31 0 27.2392 0 22.6V8.4Z" fill="#FEFEFE"/>
<path d="M8.40039 0.419922H22.5996C27.0068 0.419922 30.5801 3.99316 30.5801 8.40039V22.5996C30.5801 27.0068 27.0068 30.5801 22.5996 30.5801H8.40039C3.99316 30.5801 0.419922 27.0068 0.419922 22.5996V8.40039C0.419922 3.99316 3.99316 0.419922 8.40039 0.419922Z" stroke="#ADADAD" stroke-opacity="0.3" stroke-width="0.84"/>
<path d="M13.7788 11.2012L9.47925 15.5008L13.7788 19.8003" stroke="#ADADAD" stroke-width="1.5" stroke-miterlimit="10" stroke-linecap="round" stroke-linejoin="round"/>
<path d="M21.5209 15.5H9.59961" stroke="#ADADAD" stroke-width="1.5" stroke-miterlimit="10" stroke-linecap="round" stroke-linejoin="round"/>
</svg>
