<svg width="24" height="24" viewBox="0 0 24 24" fill="none" xmlns="http://www.w3.org/2000/svg">
<path d="M8.9101 3.33047C8.7201 3.33047 8.5301 3.40047 8.3801 3.55047C8.0901 3.84047 8.0901 4.32047 8.3801 4.61047L14.9001 11.1305C15.3801 11.6105 15.3801 12.3905 14.9001 12.8705L8.3801 19.3905C8.0901 19.6805 8.0901 20.1605 8.3801 20.4505C8.6701 20.7405 9.1501 20.7405 9.4401 20.4505L15.9601 13.9305C16.4701 13.4205 16.7601 12.7305 16.7601 12.0005C16.7601 11.2705 16.4801 10.5805 15.9601 10.0705L9.4401 3.55047C9.2901 3.41047 9.1001 3.33047 8.9101 3.33047Z" fill="#0396FF"/>
</svg>
