<svg width="16" height="16" viewBox="0 0 16 16" fill="none" xmlns="http://www.w3.org/2000/svg">
<path d="M14.5 4.48663C14.5 4.3533 14.4467 4.22663 14.3533 4.1333L11.8733 1.6533C11.68 1.45997 11.36 1.45997 11.1667 1.6533C10.9733 1.84663 10.9733 2.16663 11.1667 2.35997L12.8 3.9933H2C1.72667 3.9933 1.5 4.21997 1.5 4.4933C1.5 4.76663 1.72667 4.98663 2 4.98663H12.7933L11.1667 6.6133C10.9733 6.80663 10.9733 7.12663 11.1667 7.31997C11.2667 7.41997 11.3933 7.46663 11.52 7.46663C11.6467 7.46663 11.7733 7.41997 11.8733 7.31997L14.3467 4.84663C14.3933 4.79997 14.4333 4.73997 14.46 4.6733C14.46 4.66663 14.46 4.65997 14.4667 4.6533C14.4867 4.59997 14.5 4.54663 14.5 4.48663Z" fill="#ADADAD"/>
<path d="M14 11.0132H3.20667L4.83333 9.38658C5.02667 9.19325 5.02667 8.87325 4.83333 8.67991C4.64 8.48658 4.32 8.48658 4.12667 8.67991L1.65333 11.1532C1.60667 11.1999 1.56667 11.2599 1.54 11.3266C1.54 11.3332 1.54 11.3399 1.53333 11.3466C1.51333 11.3999 1.5 11.4599 1.5 11.5199C1.5 11.6532 1.55333 11.7799 1.64667 11.8732L4.12667 14.3532C4.22667 14.4532 4.35333 14.4999 4.48 14.4999C4.60667 14.4999 4.73333 14.4532 4.83333 14.3532C5.02667 14.1599 5.02667 13.8399 4.83333 13.6466L3.2 12.0132H14C14.2733 12.0132 14.5 11.7866 14.5 11.5132C14.5 11.2399 14.2733 11.0132 14 11.0132Z" fill="#ADADAD"/>
</svg>
