<svg width="80" height="80" viewBox="0 0 80 80" fill="none" xmlns="http://www.w3.org/2000/svg">
<rect width="80" height="80" rx="14" fill="#FF4D4D" fill-opacity="0.05"/>
<rect x="0.5" y="0.5" width="79" height="79" rx="13.5" stroke="#FF4C4C" stroke-opacity="0.1"/>
<path fill-rule="evenodd" clip-rule="evenodd" d="M35.1714 36.7258C35.5423 36.6886 35.9129 36.8002 36.2015 37.0362C36.4902 37.2721 36.6734 37.613 36.7108 37.9839L37.6483 47.3589C37.6717 47.5451 37.6577 47.7341 37.607 47.9148C37.5563 48.0954 37.47 48.2642 37.3531 48.411C37.2362 48.5577 37.091 48.6797 36.9263 48.7695C36.7615 48.8593 36.5805 48.9153 36.3937 48.9341C36.207 48.9528 36.0184 48.934 35.8391 48.8788C35.6597 48.8236 35.4933 48.733 35.3495 48.6124C35.2057 48.4918 35.0875 48.3437 35.0018 48.1767C34.9162 48.0097 34.8648 47.8273 34.8508 47.6401L33.9133 38.2651C33.8761 37.8942 33.9877 37.5237 34.2237 37.235C34.4596 36.9463 34.8005 36.7632 35.1714 36.7258ZM44.8276 36.7258C45.1982 36.7632 45.5388 36.9461 45.7747 37.2343C46.0105 37.5226 46.1224 37.8926 46.0858 38.2633L45.1483 47.6383C45.1348 47.8257 45.0839 48.0086 44.9985 48.1761C44.9131 48.3435 44.7951 48.4922 44.6513 48.6132C44.5075 48.7343 44.3409 48.8253 44.1614 48.8808C43.9818 48.9364 43.7929 48.9554 43.6059 48.9367C43.4189 48.918 43.2375 48.8621 43.0725 48.7721C42.9074 48.6821 42.7621 48.56 42.6451 48.4129C42.5281 48.2658 42.4418 48.0967 42.3912 47.9157C42.3407 47.7347 42.3269 47.5453 42.3508 47.3589L43.2883 37.9839C43.3257 37.6133 43.5086 37.2727 43.7968 37.0369C44.0851 36.801 44.457 36.6891 44.8276 36.7258Z" fill="#FF4D4D"/>
<path fill-rule="evenodd" clip-rule="evenodd" d="M36.4797 19.8438H42.8191C43.2259 19.8438 43.5784 19.8437 43.9122 19.8963C44.5626 20.0001 45.1797 20.2548 45.714 20.64C46.2483 21.0252 46.685 21.5301 46.9891 22.1144C47.1447 22.4144 47.2572 22.75 47.3847 23.1344L47.5947 23.7625L47.6491 23.9219C47.8187 24.3928 48.1347 24.797 48.5507 25.0754C48.9667 25.3537 49.4609 25.4916 49.9609 25.4688H55.5859C55.9589 25.4688 56.3166 25.6169 56.5803 25.8806C56.844 26.1444 56.9922 26.502 56.9922 26.875C56.9922 27.248 56.844 27.6056 56.5803 27.8694C56.3166 28.1331 55.9589 28.2813 55.5859 28.2813H23.7109C23.338 28.2813 22.9803 28.1331 22.7166 27.8694C22.4528 27.6056 22.3047 27.248 22.3047 26.875C22.3047 26.502 22.4528 26.1444 22.7166 25.8806C22.9803 25.6169 23.338 25.4688 23.7109 25.4688H29.5047C30.0055 25.4567 30.4893 25.2846 30.8851 24.9775C31.2809 24.6704 31.5679 24.2446 31.7041 23.7625L31.9141 23.1344C32.0416 22.75 32.1541 22.4144 32.3097 22.1144C32.6136 21.5304 33.05 21.0256 33.584 20.6404C34.1179 20.2552 34.7346 20.0004 35.3847 19.8963C35.7203 19.8437 36.0728 19.8438 36.4797 19.8438ZM34.0403 25.4688C34.172 25.2109 34.2817 24.9425 34.3684 24.6663L34.5559 24.1038C34.7247 23.5919 34.7659 23.4888 34.8034 23.4138C34.9047 23.2188 35.0502 23.0502 35.2283 22.9216C35.4064 22.793 35.6121 22.7079 35.8291 22.6731C35.9134 22.66 36.0241 22.6563 36.5659 22.6563H42.7347C43.2747 22.6563 43.3853 22.66 43.4697 22.675C43.6864 22.7096 43.8921 22.7944 44.0702 22.9226C44.2483 23.0509 44.3939 23.2191 44.4953 23.4138C44.5328 23.4888 44.5722 23.5919 44.7447 24.1056L44.9322 24.6681L45.0034 24.88C45.0784 25.0825 45.1628 25.2794 45.2603 25.4688H34.0403ZM27.0916 32.035C27.4635 32.0103 27.83 32.1343 28.1106 32.3797C28.3911 32.6251 28.5628 32.9718 28.5878 33.3438L29.4503 46.2813C29.6191 48.8069 29.7391 50.5656 30.0016 51.8875C30.2584 53.1719 30.6147 53.8506 31.1266 54.3306C31.6403 54.8106 32.3416 55.1219 33.6391 55.2906C34.9759 55.465 36.7403 55.4688 39.2716 55.4688H40.7228C43.2541 55.4688 45.0166 55.465 46.3553 55.2906C47.6528 55.1219 48.3541 54.8106 48.8678 54.3306C49.3797 53.8506 49.7359 53.1719 49.9928 51.8875C50.2553 50.5656 50.3753 48.8069 50.5441 46.2813L51.4066 33.3438C51.4189 33.1594 51.4674 32.9794 51.5493 32.8138C51.6312 32.6483 51.7449 32.5004 51.8839 32.3788C52.0229 32.2572 52.1846 32.1642 52.3595 32.105C52.5345 32.0459 52.7195 32.0218 52.9038 32.0341C53.0881 32.0464 53.2681 32.0949 53.4337 32.1768C53.5993 32.2587 53.7471 32.3724 53.8687 32.5114C53.9903 32.6504 54.0833 32.8121 54.1425 32.987C54.2016 33.162 54.2258 33.3469 54.2134 33.5313L53.3434 46.5663C53.1841 48.97 53.0547 50.9125 52.7509 52.4388C52.4341 54.0231 51.8978 55.3469 50.7878 56.3838C49.6797 57.4225 48.3222 57.8706 46.7191 58.0788C45.1778 58.2813 43.2316 58.2813 40.8203 58.2813H39.1741C36.7628 58.2813 34.8166 58.2813 33.2753 58.0806C31.6722 57.8706 30.3147 57.4225 29.2066 56.3838C28.0966 55.3469 27.5603 54.0213 27.2434 52.4388C26.9397 50.9125 26.8122 48.97 26.6509 46.5663L25.7809 33.5313C25.7687 33.3469 25.7929 33.162 25.8522 32.9871C25.9114 32.8121 26.0046 32.6506 26.1263 32.5116C26.248 32.3727 26.3959 32.2591 26.5615 32.1773C26.7271 32.0955 26.9072 32.0472 27.0916 32.035Z" fill="#FF4D4D"/>
</svg>
