<svg width="29" height="28" viewBox="0 0 29 28" fill="none" xmlns="http://www.w3.org/2000/svg">
<path d="M0.5 8.4C0.5 3.76081 4.26081 0 8.9 0H20.1C24.7392 0 28.5 3.76081 28.5 8.4V19.6C28.5 24.2392 24.7392 28 20.1 28H8.9C4.26081 28 0.5 24.2392 0.5 19.6V8.4Z" fill="#0396FF" fill-opacity="0.1"/>
<path d="M12.9367 14.7475H14.7392V18.9475C14.7392 19.5658 15.5092 19.8575 15.9175 19.3908L20.3334 14.3742C20.7184 13.9367 20.4092 13.2542 19.8259 13.2542H18.0234V9.05417C18.0234 8.43584 17.2534 8.14417 16.845 8.61084L12.4292 13.6275C12.05 14.065 12.3592 14.7475 12.9367 14.7475Z" fill="#0396FF"/>
<path d="M12.4583 9.77148H8.375C8.13583 9.77148 7.9375 9.57315 7.9375 9.33398C7.9375 9.09482 8.13583 8.89648 8.375 8.89648H12.4583C12.6975 8.89648 12.8958 9.09482 12.8958 9.33398C12.8958 9.57315 12.6975 9.77148 12.4583 9.77148Z" fill="#0396FF"/>
<path d="M11.875 19.1035H8.375C8.13583 19.1035 7.9375 18.9052 7.9375 18.666C7.9375 18.4268 8.13583 18.2285 8.375 18.2285H11.875C12.1142 18.2285 12.3125 18.4268 12.3125 18.666C12.3125 18.9052 12.1142 19.1035 11.875 19.1035Z" fill="#0396FF"/>
<path d="M10.125 14.4375H8.375C8.13583 14.4375 7.9375 14.2392 7.9375 14C7.9375 13.7608 8.13583 13.5625 8.375 13.5625H10.125C10.3642 13.5625 10.5625 13.7608 10.5625 14C10.5625 14.2392 10.3642 14.4375 10.125 14.4375Z" fill="#0396FF"/>
</svg>
