<svg width="20" height="20" viewBox="0 0 20 20" fill="none" xmlns="http://www.w3.org/2000/svg">
<path d="M13.841 0.833984H6.15933C2.82266 0.833984 0.833496 2.82315 0.833496 6.15982V13.8323C0.833496 17.1782 2.82266 19.1673 6.15933 19.1673H13.8318C17.1685 19.1673 19.1577 17.1782 19.1577 13.8415V6.15982C19.1668 2.82315 17.1777 0.833984 13.841 0.833984ZM13.0802 12.109C13.346 12.3748 13.346 12.8148 13.0802 13.0807C12.9427 13.2182 12.7685 13.2823 12.5943 13.2823C12.4202 13.2823 12.246 13.2182 12.1085 13.0807L10.0002 10.9723L7.89183 13.0807C7.75433 13.2182 7.58016 13.2823 7.406 13.2823C7.23183 13.2823 7.05766 13.2182 6.92016 13.0807C6.65433 12.8148 6.65433 12.3748 6.92016 12.109L9.0285 10.0007L6.92016 7.89232C6.65433 7.62648 6.65433 7.18648 6.92016 6.92065C7.186 6.65482 7.626 6.65482 7.89183 6.92065L10.0002 9.02898L12.1085 6.92065C12.3743 6.65482 12.8143 6.65482 13.0802 6.92065C13.346 7.18648 13.346 7.62648 13.0802 7.89232L10.9718 10.0007L13.0802 12.109Z" fill="#DC3545"/>
</svg>
