<svg width="18" height="18" viewBox="0 0 18 18" fill="none" xmlns="http://www.w3.org/2000/svg">
<path d="M12.1425 1.5H5.8575C3.1275 1.5 1.5 3.1275 1.5 5.8575V12.135C1.5 14.8725 3.1275 16.5 5.8575 16.5H12.135C14.865 16.5 16.4925 14.8725 16.4925 12.1425V5.8575C16.5 3.1275 14.8725 1.5 12.1425 1.5ZM11.52 10.725C11.7375 10.9425 11.7375 11.3025 11.52 11.52C11.4075 11.6325 11.265 11.685 11.1225 11.685C10.98 11.685 10.8375 11.6325 10.725 11.52L9 9.795L7.275 11.52C7.1625 11.6325 7.02 11.685 6.8775 11.685C6.735 11.685 6.5925 11.6325 6.48 11.52C6.2625 11.3025 6.2625 10.9425 6.48 10.725L8.205 9L6.48 7.275C6.2625 7.0575 6.2625 6.6975 6.48 6.48C6.6975 6.2625 7.0575 6.2625 7.275 6.48L9 8.205L10.725 6.48C10.9425 6.2625 11.3025 6.2625 11.52 6.48C11.7375 6.6975 11.7375 7.0575 11.52 7.275L9.795 9L11.52 10.725Z" fill="#ADADAD"/>
</svg>
