<svg width="26" height="27" viewBox="0 0 26 27" fill="none" xmlns="http://www.w3.org/2000/svg">
<g clip-path="url(#clip0_4819_66947)">
<path d="M13 0.5C20.1685 0.5 26 6.33151 26 13.5C26 20.6685 20.1685 26.5 13 26.5C5.83151 26.5 0 20.6685 0 13.5C0 6.33151 5.83151 0.5 13 0.5ZM7.3125 12.418C6.71452 12.418 6.22963 12.903 6.22949 13.501C6.22949 14.099 6.71443 14.585 7.3125 14.585H18.6875C19.2855 14.5848 19.7705 14.099 19.7705 13.501C19.7704 12.9031 19.2854 12.4181 18.6875 12.418H7.3125Z" fill="#0396FF" fill-opacity="0.4"/>
</g>
<defs>
<clipPath id="clip0_4819_66947">
<rect width="26" height="26" fill="white" transform="translate(0 0.5)"/>
</clipPath>
</defs>
</svg>
