<svg width="47" height="47" viewBox="0 0 47 47" fill="none" xmlns="http://www.w3.org/2000/svg">
<rect width="47" height="47" rx="10" fill="#DC3545"/>
<path d="M16.9353 14.416C17.0521 14.416 17.1541 14.518 17.1541 14.6348V15.959H27.6687C29.0275 15.959 29.6785 16.3635 29.8611 16.8086L29.8621 16.8115C30.0528 17.2688 29.8811 18.0111 28.9158 18.9766L27.7654 20.127C27.3571 20.5352 27.1277 21.0967 27.1501 21.6709L27.1492 21.6719C27.1617 22.1833 27.3718 22.6622 27.7458 22.999V23L28.9158 24.1689C29.8586 25.1217 30.0249 25.8552 29.8328 26.3154C29.6386 26.7803 28.9945 27.1875 27.6687 27.1875H17.1541V32.3643C17.1539 32.4809 17.052 32.583 16.9353 32.583C16.8186 32.583 16.7167 32.4809 16.7166 32.3643V14.6348C16.7166 14.518 16.8185 14.416 16.9353 14.416Z" fill="#FEFEFE" stroke="#FEFEFE"/>
</svg>
