<svg width="28" height="28" viewBox="0 0 28 28" fill="none" xmlns="http://www.w3.org/2000/svg">
<path d="M0 8.4C0 3.76081 3.76081 0 8.4 0H19.6C24.2392 0 28 3.76081 28 8.4V19.6C28 24.2392 24.2392 28 19.6 28H8.4C3.76081 28 0 24.2392 0 19.6V8.4Z" fill="#28A745" fill-opacity="0.1"/>
<path d="M18.8767 14.4248C18.6608 14.4248 18.48 14.2614 18.4567 14.0456C18.3167 12.7623 17.6283 11.6073 16.5667 10.8723C16.3742 10.7381 16.3275 10.4756 16.4617 10.2831C16.5958 10.0906 16.8583 10.0439 17.0508 10.1781C18.3167 11.0589 19.1333 12.4356 19.3025 13.9581C19.3258 14.1914 19.1567 14.4014 18.9233 14.4248C18.9058 14.4248 18.8942 14.4248 18.8767 14.4248Z" fill="#28A745"/>
<path d="M9.18167 14.4544C9.17001 14.4544 9.15251 14.4544 9.14084 14.4544C8.90751 14.4311 8.73834 14.2211 8.76167 13.9877C8.91917 12.4652 9.72417 11.0886 10.9783 10.2019C11.165 10.0677 11.4333 10.1144 11.5675 10.3011C11.7017 10.4936 11.655 10.7561 11.4683 10.8902C10.4183 11.6369 9.73584 12.7919 9.60751 14.0694C9.58417 14.2911 9.39751 14.4544 9.18167 14.4544Z" fill="#28A745"/>
<path d="M16.3276 19.3079C15.6101 19.652 14.8401 19.827 14.0351 19.827C13.1951 19.827 12.3959 19.6404 11.6492 19.2612C11.4392 19.162 11.3576 18.9054 11.4626 18.6954C11.5617 18.4854 11.8184 18.4037 12.0284 18.5029C12.3959 18.6895 12.7867 18.8179 13.1834 18.8937C13.7201 18.9987 14.2684 19.0045 14.8051 18.9112C15.2017 18.8412 15.5926 18.7187 15.9542 18.5437C16.1701 18.4445 16.4267 18.5262 16.5201 18.742C16.6251 18.952 16.5434 19.2087 16.3276 19.3079Z" fill="#28A745"/>
<path d="M14.0292 8.17188C13.125 8.17188 12.3842 8.90687 12.3842 9.81687C12.3842 10.7269 13.1192 11.4619 14.0292 11.4619C14.9392 11.4619 15.6742 10.7269 15.6742 9.81687C15.6742 8.90687 14.9392 8.17188 14.0292 8.17188Z" fill="#28A745"/>
<path d="M9.94578 15.0898C9.04161 15.0898 8.30078 15.8248 8.30078 16.7348C8.30078 17.6448 9.03578 18.3798 9.94578 18.3798C10.8558 18.3798 11.5908 17.6448 11.5908 16.7348C11.5908 15.8248 10.8499 15.0898 9.94578 15.0898Z" fill="#28A745"/>
<path d="M18.0542 15.0898C17.15 15.0898 16.4092 15.8248 16.4092 16.7348C16.4092 17.6448 17.1442 18.3798 18.0542 18.3798C18.9642 18.3798 19.6992 17.6448 19.6992 16.7348C19.6992 15.8248 18.9642 15.0898 18.0542 15.0898Z" fill="#28A745"/>
</svg>
