<svg width="20" height="20" viewBox="0 0 20 20" fill="none" xmlns="http://www.w3.org/2000/svg">
<path d="M5.75 7.16602H9.25C10.659 7.16602 11.5156 7.45117 12.0322 7.96777C12.5487 8.48435 12.8339 9.34035 12.834 10.749V14.249C12.834 15.658 12.5488 16.5146 12.0322 17.0312C11.5156 17.5479 10.659 17.833 9.25 17.833H5.75C4.34132 17.833 3.48533 17.5477 2.96875 17.0312C2.45215 16.5146 2.16699 15.658 2.16699 14.249V10.749C2.16704 9.3402 2.45219 8.48434 2.96875 7.96777C3.48531 7.45121 4.34118 7.16606 5.75 7.16602Z" fill="#ADADAD" stroke="#ADADAD"/>
<path d="M14.2498 1.66602H10.7498C8.24635 1.66602 7.03822 2.53167 6.74575 4.61509C6.66834 5.1666 7.1298 5.62435 7.68671 5.62435H9.2498C12.7498 5.62435 14.3748 7.24935 14.3748 10.7493V12.3124C14.3748 12.8694 14.8326 13.3308 15.3841 13.2534C17.4675 12.9609 18.3331 11.7528 18.3331 9.24935V5.74935C18.3331 2.83268 17.1665 1.66602 14.2498 1.66602Z" fill="#ADADAD"/>
</svg>
