<svg width="17" height="16" viewBox="0 0 17 16" fill="none" xmlns="http://www.w3.org/2000/svg">
<path d="M11.1663 8.5987V11.3987C11.1663 13.732 10.233 14.6654 7.89967 14.6654H5.09967C2.76634 14.6654 1.83301 13.732 1.83301 11.3987V8.5987C1.83301 6.26536 2.76634 5.33203 5.09967 5.33203H7.89967C10.233 5.33203 11.1663 6.26536 11.1663 8.5987Z" fill="#FEFEFE"/>
<path d="M11.8998 1.33203H9.09984C7.17914 1.33203 6.21152 1.96896 5.92907 3.4913C5.82748 4.03887 6.29484 4.4987 6.85175 4.4987H7.89984C10.6998 4.4987 11.9998 5.7987 11.9998 8.5987V9.64679C11.9998 10.2037 12.4597 10.6711 13.0072 10.5695C14.5296 10.287 15.1665 9.3194 15.1665 7.3987V4.5987C15.1665 2.26536 14.2332 1.33203 11.8998 1.33203Z" fill="#FEFEFE"/>
</svg>
