<svg width="16" height="17" viewBox="0 0 16 17" fill="none" xmlns="http://www.w3.org/2000/svg">
<path d="M4.59961 10.666H7.39941C8.51677 10.666 9.16933 10.4391 9.55469 10.0537C9.93984 9.66832 10.166 9.01641 10.166 7.89941V5.09961C10.166 3.98226 9.94004 3.32969 9.55469 2.94434C9.16933 2.55898 8.51677 2.33301 7.39941 2.33301H4.59961C3.48261 2.33302 2.8307 2.55919 2.44531 2.94434C2.05996 3.32969 1.83301 3.98226 1.83301 5.09961V7.89941C1.83302 9.01673 2.05997 9.66836 2.44531 10.0537C2.83066 10.4391 3.4823 10.666 4.59961 10.666Z" fill="#0396FF" stroke="#0396FF"/>
<path d="M8.59961 14.666H11.3994C12.5168 14.666 13.1693 14.4391 13.5547 14.0537C13.9399 13.6683 14.167 13.0165 14.167 11.8994V9.09961C14.167 8.18268 14.012 7.5775 13.7432 7.17969C13.5196 6.84881 13.1821 6.61001 12.6543 6.47266L12.416 6.41992C12.3144 6.40109 12.2203 6.43126 12.1416 6.50586C12.0587 6.58456 12 6.70958 12 6.85156V7.89941C12 9.36698 11.6597 10.5462 10.8535 11.3525C10.0471 12.1589 8.86715 12.499 7.39941 12.499H6.35156C6.20965 12.4991 6.0855 12.5587 6.00684 12.6416C5.93223 12.7204 5.90204 12.8144 5.9209 12.916C6.04468 13.5827 6.30167 13.9877 6.67969 14.2432C7.07746 14.5119 7.68281 14.666 8.59961 14.666Z" fill="#0396FF" stroke="#0396FF"/>
</svg>
