<svg width="29" height="28" viewBox="0 0 29 28" fill="none" xmlns="http://www.w3.org/2000/svg">
<path d="M0.5 8.4C0.5 3.76081 4.26081 0 8.9 0H20.1C24.7392 0 28.5 3.76081 28.5 8.4V19.6C28.5 24.2392 24.7392 28 20.1 28H8.9C4.26081 28 0.5 24.2392 0.5 19.6V8.4Z" fill="#28A745" fill-opacity="0.1"/>
<path d="M16.8334 14.5263V16.9763C16.8334 19.018 16.0167 19.8346 13.9751 19.8346H11.5251C9.48341 19.8346 8.66675 19.018 8.66675 16.9763V14.5263C8.66675 12.4846 9.48341 11.668 11.5251 11.668H13.9751C16.0167 11.668 16.8334 12.4846 16.8334 14.5263Z" fill="#28A745"/>
<path d="M17.4751 8.16797H15.0251C13.3975 8.16797 12.552 8.6907 12.2759 9.93365C12.1551 10.4773 12.6276 10.9388 13.1845 10.9388H13.9751C16.4251 10.9388 17.5626 12.0763 17.5626 14.5263V15.3169C17.5626 15.8738 18.0241 16.3464 18.5678 16.2256C19.8107 15.9494 20.3334 15.1039 20.3334 13.4763V11.0263C20.3334 8.98464 19.5168 8.16797 17.4751 8.16797Z" fill="#28A745"/>
</svg>
