<svg width="36" height="36" viewBox="0 0 36 36" fill="none" xmlns="http://www.w3.org/2000/svg">
<rect width="36" height="36" rx="10" fill="#FF4D4D" fill-opacity="0.15"/>
<path d="M21.1244 15.7875L18.8806 18L21.1244 20.2125C21.1868 20.271 21.2366 20.3416 21.2706 20.4201C21.3047 20.4986 21.3222 20.5832 21.3222 20.6688C21.3222 20.7543 21.3047 20.8389 21.2706 20.9174C21.2366 20.9959 21.1868 21.0665 21.1244 21.125C21.066 21.1829 20.9967 21.2288 20.9206 21.2599C20.8444 21.291 20.7629 21.3067 20.6806 21.3063C20.5167 21.3056 20.3595 21.2405 20.2431 21.125L17.9994 18.8813L15.7869 21.125C15.6705 21.2405 15.5133 21.3056 15.3494 21.3063C15.2671 21.3067 15.1856 21.291 15.1094 21.2599C15.0333 21.2288 14.964 21.1829 14.9056 21.125C14.7892 21.0079 14.7239 20.8495 14.7239 20.6844C14.7239 20.5193 14.7892 20.3609 14.9056 20.2438L17.1181 18L14.9056 15.7875C14.8032 15.6679 14.7497 15.5141 14.7558 15.3568C14.7619 15.1995 14.8271 15.0503 14.9384 14.939C15.0497 14.8277 15.1989 14.7625 15.3562 14.7564C15.5135 14.7504 15.6673 14.8039 15.7869 14.9063L17.9994 17.1188L20.2119 14.9063C20.2697 14.8463 20.3388 14.7984 20.4152 14.7652C20.4916 14.732 20.5738 14.7141 20.6571 14.7127C20.7404 14.7112 20.8231 14.7262 20.9006 14.7567C20.9781 14.7873 21.0488 14.8328 21.1087 14.8906C21.1687 14.9485 21.2166 15.0176 21.2498 15.094C21.283 15.1704 21.3009 15.2525 21.3023 15.3358C21.3038 15.4191 21.2888 15.5019 21.2583 15.5794C21.2277 15.6569 21.1822 15.7276 21.1244 15.7875ZM24.1869 24.1875C22.9631 25.4111 21.404 26.2444 19.7067 26.5819C18.0094 26.9195 16.2501 26.7462 14.6513 26.0839C13.0525 25.4216 11.686 24.3001 10.7246 22.8612C9.76316 21.4222 9.25 19.7306 9.25 18C9.25 16.2695 9.76316 14.5778 10.7246 13.1389C11.686 11.6999 13.0525 10.5784 14.6513 9.91614C16.2501 9.25385 18.0094 9.08052 19.7067 9.41807C21.404 9.75562 22.9631 10.5889 24.1869 11.8125C24.9995 12.625 25.6441 13.5897 26.0839 14.6513C26.5236 15.713 26.75 16.8509 26.75 18C26.75 19.1491 26.5236 20.287 26.0839 21.3487C25.6441 22.4103 24.9995 23.375 24.1869 24.1875ZM23.3056 12.6938C22.2557 11.6475 20.9193 10.9357 19.4651 10.6485C18.011 10.3612 16.5043 10.5112 15.1354 11.0797C13.7665 11.6481 12.5967 12.6094 11.7737 13.8422C10.9507 15.075 10.5115 16.524 10.5115 18.0063C10.5115 19.4885 10.9507 20.9375 11.7737 22.1703C12.5967 23.4031 13.7665 24.3644 15.1354 24.9329C16.5043 25.5013 18.011 25.6513 19.4651 25.364C20.9193 25.0768 22.2557 24.365 23.3056 23.3188C24.0048 22.622 24.5596 21.794 24.9381 20.8824C25.3167 19.9708 25.5115 18.9934 25.5115 18.0063C25.5115 17.0191 25.3167 16.0418 24.9381 15.1301C24.5596 14.2185 24.0048 13.3905 23.3056 12.6938Z" fill="#FF4D4D"/>
</svg>
