<svg width="22" height="22" viewBox="0 0 22 22" fill="none" xmlns="http://www.w3.org/2000/svg">
<path d="M18.7915 15.3542H16.729V13.2917C16.729 12.9159 16.4173 12.6042 16.0415 12.6042C15.6657 12.6042 15.354 12.9159 15.354 13.2917V15.3542H13.2915C12.9157 15.3542 12.604 15.6659 12.604 16.0417C12.604 16.4176 12.9157 16.7292 13.2915 16.7292H15.354V18.7917C15.354 19.1676 15.6657 19.4792 16.0415 19.4792C16.4173 19.4792 16.729 19.1676 16.729 18.7917V16.7292H18.7915C19.1673 16.7292 19.479 16.4176 19.479 16.0417C19.479 15.6659 19.1673 15.3542 18.7915 15.3542Z" fill="#ADADAD"/>
<path d="M20.1667 7.80992V3.64825C20.1667 2.35575 19.58 1.83325 18.1225 1.83325H14.4192C12.9617 1.83325 12.375 2.35575 12.375 3.64825V7.80075C12.375 9.10242 12.9617 9.61575 14.4192 9.61575H18.1225C19.58 9.62492 20.1667 9.10242 20.1667 7.80992Z" fill="#ADADAD"/>
<path d="M9.62516 7.80992V3.64825C9.62516 2.35575 9.0385 1.83325 7.581 1.83325H3.87766C2.42016 1.83325 1.8335 2.35575 1.8335 3.64825V7.80075C1.8335 9.10242 2.42016 9.61575 3.87766 9.61575H7.581C9.0385 9.62492 9.62516 9.10242 9.62516 7.80992Z" fill="#ADADAD"/>
<path d="M9.62516 18.1225V14.4192C9.62516 12.9617 9.0385 12.375 7.581 12.375H3.87766C2.42016 12.375 1.8335 12.9617 1.8335 14.4192V18.1225C1.8335 19.58 2.42016 20.1667 3.87766 20.1667H7.581C9.0385 20.1667 9.62516 19.58 9.62516 18.1225Z" fill="#ADADAD"/>
</svg>
