<svg width="29" height="28" viewBox="0 0 29 28" fill="none" xmlns="http://www.w3.org/2000/svg">
<path d="M0.5 8.4C0.5 3.76081 4.26081 0 8.9 0H20.1C24.7392 0 28.5 3.76081 28.5 8.4V19.6C28.5 24.2392 24.7392 28 20.1 28H8.9C4.26081 28 0.5 24.2392 0.5 19.6V8.4Z" fill="#DC3545" fill-opacity="0.1"/>
<path d="M19.7907 10.0521C18.8516 9.9588 17.9124 9.8888 16.9674 9.8363V9.83047L16.8391 9.07214C16.7516 8.53547 16.6232 7.73047 15.2582 7.73047H13.7299C12.3707 7.73047 12.2424 8.50047 12.1491 9.0663L12.0266 9.81297C11.4841 9.84797 10.9416 9.88297 10.3991 9.93547L9.20906 10.0521C8.96406 10.0755 8.78906 10.2913 8.81239 10.5305C8.83572 10.7696 9.04572 10.9446 9.29072 10.9213L10.4807 10.8046C13.5374 10.5013 16.6174 10.618 19.7091 10.9271C19.7266 10.9271 19.7382 10.9271 19.7557 10.9271C19.9774 10.9271 20.1699 10.758 20.1932 10.5305C20.2107 10.2913 20.0357 10.0755 19.7907 10.0521Z" fill="#DC3545"/>
<path d="M18.7175 11.747C18.5775 11.6012 18.385 11.5195 18.1867 11.5195H10.8133C10.615 11.5195 10.4167 11.6012 10.2825 11.747C10.1484 11.8929 10.0725 12.0912 10.0842 12.2954L10.4459 18.2804C10.51 19.167 10.5917 20.2754 12.6275 20.2754H16.3725C18.4083 20.2754 18.49 19.1729 18.5542 18.2804L18.9158 12.3012C18.9275 12.0912 18.8517 11.8929 18.7175 11.747ZM15.4683 17.3529H13.5258C13.2867 17.3529 13.0883 17.1545 13.0883 16.9154C13.0883 16.6762 13.2867 16.4779 13.5258 16.4779H15.4683C15.7075 16.4779 15.9058 16.6762 15.9058 16.9154C15.9058 17.1545 15.7075 17.3529 15.4683 17.3529ZM15.9583 15.0195H13.0417C12.8025 15.0195 12.6042 14.8212 12.6042 14.582C12.6042 14.3429 12.8025 14.1445 13.0417 14.1445H15.9583C16.1975 14.1445 16.3958 14.3429 16.3958 14.582C16.3958 14.8212 16.1975 15.0195 15.9583 15.0195Z" fill="#DC3545"/>
</svg>
