<svg width="28" height="28" viewBox="0 0 28 28" fill="none" xmlns="http://www.w3.org/2000/svg">
<path d="M0 8.4C0 3.76081 3.76081 0 8.4 0H19.6C24.2392 0 28 3.76081 28 8.4V19.6C28 24.2392 24.2392 28 19.6 28H8.4C3.76081 28 0 24.2392 0 19.6V8.4Z" fill="#DC3545" fill-opacity="0.1"/>
<g clip-path="url(#clip0_5987_84131)">
<path d="M17.9836 15.9334C17.8207 15.9334 17.6578 15.871 17.5337 15.7469C17.2848 15.4982 17.2848 15.0959 17.5337 14.8471L18.8191 13.5617C19.4052 12.9813 19.7271 12.2062 19.7271 11.3771C19.7271 9.6723 18.3399 8.28443 16.6345 8.28443C15.8059 8.28443 15.0308 8.6064 14.4519 9.19063L13.1644 10.4779C12.9157 10.7268 12.5135 10.7268 12.2647 10.4779C12.0159 10.2291 12.0159 9.82694 12.2647 9.57816L13.5501 8.29215C14.3684 7.46741 15.4643 7.01172 16.6345 7.01172C19.0418 7.01172 20.9999 8.9698 20.9999 11.3771C20.9999 12.5486 20.5442 13.6438 19.7163 14.464L18.4328 15.7469C18.3739 15.8061 18.3039 15.853 18.2268 15.885C18.1497 15.917 18.067 15.9334 17.9835 15.9334H17.9836ZM11.3655 21.0115C8.95821 21.0115 7.00012 19.0534 7.00012 16.6461C7.00012 15.4746 7.45582 14.3794 8.28369 13.5592L9.56716 12.2763C9.81603 12.0275 10.2182 12.0275 10.467 12.2763C10.7158 12.525 10.7158 12.9273 10.467 13.176L9.1816 14.4615C8.5948 15.0419 8.27286 15.8169 8.27286 16.6461C8.27286 18.3509 9.66014 19.7387 11.3655 19.7387C12.1941 19.7387 12.9691 19.4168 13.5481 18.8325L14.8355 17.5453C15.0843 17.2964 15.4866 17.2964 15.7353 17.5453C15.9841 17.794 15.9841 18.1963 15.7353 18.445L14.4499 19.7312C13.6316 20.5558 12.5358 21.0115 11.3655 21.0115Z" fill="#DC3545"/>
<path d="M15.349 13.299C15.1862 13.299 15.0233 13.2366 14.8992 13.1126C14.6504 12.8638 14.6504 12.4615 14.8992 12.2128L16.0955 11.0165C16.3444 10.7676 16.7465 10.7676 16.9954 11.0165C17.2441 11.2653 17.2441 11.6675 16.9954 11.9162L15.7989 13.1125C15.7399 13.1717 15.6698 13.2186 15.5926 13.2506C15.5154 13.2826 15.4326 13.2991 15.349 13.299ZM11.4546 17.1935C11.2917 17.1935 11.1287 17.1312 11.0048 17.0071C10.7559 16.7582 10.7559 16.3561 11.0048 16.1072L12.2011 14.9109C12.4498 14.6621 12.8521 14.6621 13.1008 14.9109C13.3497 15.1597 13.3497 15.5619 13.1008 15.8106L11.9045 17.0071C11.8455 17.0662 11.7754 17.1132 11.6982 17.1452C11.621 17.1772 11.5382 17.1936 11.4546 17.1935ZM20.3635 21.0116C20.2006 21.0116 20.0377 20.9493 19.9136 20.8252L7.18667 8.09815C6.93778 7.84937 6.93778 7.44716 7.18667 7.19839C7.43544 6.9495 7.83754 6.9495 8.08643 7.19839L20.8135 19.9253C21.0622 20.1742 21.0622 20.5763 20.8135 20.8252C20.7544 20.8843 20.6843 20.9313 20.607 20.9633C20.5298 20.9953 20.447 21.0117 20.3635 21.0116Z" fill="#DC3545"/>
</g>
<defs>
<clipPath id="clip0_5987_84131">
<rect width="14" height="14" fill="white" transform="translate(7 7)"/>
</clipPath>
</defs>
</svg>
