<svg width="15" height="14" viewBox="0 0 15 14" fill="none" xmlns="http://www.w3.org/2000/svg">
<path d="M12.4583 5.94547H10.7724C9.38992 5.94547 8.26409 4.81964 8.26409 3.43714V1.7513C8.26409 1.43047 8.00159 1.16797 7.68075 1.16797H5.20742C3.41075 1.16797 1.95825 2.33464 1.95825 4.41714V9.58547C1.95825 11.668 3.41075 12.8346 5.20742 12.8346H9.79242C11.5891 12.8346 13.0416 11.668 13.0416 9.58547V6.5288C13.0416 6.20797 12.7791 5.94547 12.4583 5.94547ZM7.66325 9.2063L6.49659 10.373C6.45575 10.4138 6.40325 10.4488 6.35075 10.4663C6.29825 10.4896 6.24575 10.5013 6.18742 10.5013C6.12909 10.5013 6.07659 10.4896 6.02409 10.4663C5.97742 10.4488 5.93075 10.4138 5.89575 10.3788C5.88992 10.373 5.88409 10.373 5.88409 10.3671L4.71742 9.20047C4.54825 9.0313 4.54825 8.7513 4.71742 8.58214C4.88659 8.41297 5.16659 8.41297 5.33575 8.58214L5.74992 9.00797V6.5638C5.74992 6.32464 5.94825 6.1263 6.18742 6.1263C6.42659 6.1263 6.62492 6.32464 6.62492 6.5638V9.00797L7.04492 8.58797C7.21409 8.4188 7.49409 8.4188 7.66325 8.58797C7.83242 8.75714 7.83242 9.03714 7.66325 9.2063Z" fill="#FEFEFE"/>
<path d="M10.6674 5.1414C11.2216 5.14723 11.9916 5.14723 12.6507 5.14723C12.9832 5.14723 13.1582 4.7564 12.9249 4.52307C12.0849 3.67723 10.5799 2.15473 9.71657 1.2914C9.4774 1.05223 9.06323 1.21557 9.06323 1.54807V3.5839C9.06323 4.43557 9.78657 5.1414 10.6674 5.1414Z" fill="#FEFEFE"/>
</svg>
