<svg width="28" height="28" viewBox="0 0 28 28" fill="none" xmlns="http://www.w3.org/2000/svg">
<path d="M0 8.4C0 3.76081 3.76081 0 8.4 0H19.6C24.2392 0 28 3.76081 28 8.4V19.6C28 24.2392 24.2392 28 19.6 28H8.4C3.76081 28 0 24.2392 0 19.6V8.4Z" fill="#FFC107" fill-opacity="0.1"/>
<path d="M16.3333 8.16797H11.6667C9.625 8.16797 8.75 9.33464 8.75 11.0846V16.918C8.75 18.668 9.625 19.8346 11.6667 19.8346H16.3333C18.375 19.8346 19.25 18.668 19.25 16.918V11.0846C19.25 9.33464 18.375 8.16797 16.3333 8.16797ZM11.6667 14.1471H14C14.2392 14.1471 14.4375 14.3455 14.4375 14.5846C14.4375 14.8238 14.2392 15.0221 14 15.0221H11.6667C11.4275 15.0221 11.2292 14.8238 11.2292 14.5846C11.2292 14.3455 11.4275 14.1471 11.6667 14.1471ZM16.3333 17.3555H11.6667C11.4275 17.3555 11.2292 17.1571 11.2292 16.918C11.2292 16.6788 11.4275 16.4805 11.6667 16.4805H16.3333C16.5725 16.4805 16.7708 16.6788 16.7708 16.918C16.7708 17.1571 16.5725 17.3555 16.3333 17.3555ZM17.7917 12.3971H16.625C15.7383 12.3971 15.0208 11.6796 15.0208 10.793V9.6263C15.0208 9.38714 15.2192 9.1888 15.4583 9.1888C15.6975 9.1888 15.8958 9.38714 15.8958 9.6263V10.793C15.8958 11.1955 16.2225 11.5221 16.625 11.5221H17.7917C18.0308 11.5221 18.2292 11.7205 18.2292 11.9596C18.2292 12.1988 18.0308 12.3971 17.7917 12.3971Z" fill="#FFC107"/>
</svg>
