<svg width="24" height="24" viewBox="0 0 24 24" fill="none" xmlns="http://www.w3.org/2000/svg">
<path d="M22.2751 20.0717L20.1564 17.953L20.7751 17.3342C20.8654 17.2418 20.9309 17.1282 20.9658 17.0038C21.0006 16.8794 21.0036 16.7482 20.9745 16.6224C20.9454 16.4965 20.885 16.38 20.7991 16.2835C20.7131 16.1871 20.6043 16.1138 20.4826 16.0705L15.7464 14.4205C15.6104 14.3764 15.465 14.3709 15.3261 14.4046C15.1872 14.4382 15.0604 14.5098 14.9598 14.6112C14.8591 14.7126 14.7886 14.84 14.756 14.9791C14.7234 15.1182 14.73 15.2636 14.7751 15.3992L16.4176 20.128C16.4605 20.2505 16.5337 20.3601 16.6302 20.4468C16.7268 20.5336 16.8437 20.5945 16.97 20.624C17.0964 20.6536 17.2282 20.6508 17.3532 20.6158C17.4782 20.5809 17.5924 20.515 17.6851 20.4242L18.3001 19.8092L20.4226 21.928C20.4937 21.9993 20.5781 22.0559 20.6711 22.0945C20.7641 22.1331 20.8638 22.153 20.9645 22.153C21.0652 22.153 21.1649 22.1331 21.2579 22.0945C21.3508 22.0559 21.4353 21.9993 21.5064 21.928L22.2751 21.1592C22.4185 21.0146 22.4989 20.8191 22.4989 20.6155C22.4989 20.4118 22.4185 20.2164 22.2751 20.0717Z" fill="#FEFEFE"/>
<path d="M14.5164 13.9933C14.7163 13.8221 14.9574 13.7062 15.2159 13.6568C15.4743 13.6075 15.7412 13.6265 15.9901 13.712L16.9239 14.0383C17.3432 13.144 17.5608 12.1685 17.5614 11.1808C17.1916 2.25952 4.48098 2.25539 4.11011 11.1808C4.11219 12.9637 4.82113 14.6731 6.08152 15.9342C7.34191 17.1953 9.0509 17.9052 10.8339 17.9083C12.1275 17.9107 13.394 17.5367 14.4789 16.832L14.0664 15.647C13.9639 15.3584 13.952 15.0453 14.0325 14.7497C14.1129 14.4541 14.2817 14.1902 14.5164 13.9933ZM13.1326 13.1008C13.1327 13.6451 12.9392 14.1718 12.5868 14.5867C12.2344 15.0016 11.746 15.2777 11.2089 15.3658V16.742C11.2089 16.8415 11.1693 16.9369 11.099 17.0072C11.0287 17.0775 10.9333 17.117 10.8339 17.117C10.7344 17.117 10.639 17.0775 10.5687 17.0072C10.4984 16.9369 10.4589 16.8415 10.4589 16.742V15.3658C9.92236 15.2769 9.43484 15.0004 9.08321 14.5856C8.73157 14.1708 8.53866 13.6446 8.53886 13.1008C8.53886 13.0013 8.57837 12.9059 8.64869 12.8356C8.71902 12.7653 8.8144 12.7258 8.91386 12.7258C9.01331 12.7258 9.1087 12.7653 9.17902 12.8356C9.24935 12.9059 9.28886 13.0013 9.28886 13.1008C9.28866 13.4455 9.4037 13.7803 9.6157 14.0521C9.8277 14.3239 10.1245 14.517 10.4589 14.6008V11.522C9.92266 11.4333 9.43538 11.1571 9.08383 10.7427C8.73228 10.3282 8.53932 9.80237 8.53932 9.25889C8.53932 8.71541 8.73228 8.18959 9.08383 7.77512C9.43538 7.36064 9.92266 7.08446 10.4589 6.99577V5.61952C10.4589 5.52006 10.4984 5.42468 10.5687 5.35435C10.639 5.28402 10.7344 5.24452 10.8339 5.24452C10.9333 5.24452 11.0287 5.28402 11.099 5.35435C11.1693 5.42468 11.2089 5.52006 11.2089 5.61952V6.99577C11.746 7.08382 12.2344 7.35996 12.5868 7.77486C12.9392 8.18976 13.1327 8.71641 13.1326 9.26077C13.1326 9.36022 13.0931 9.4556 13.0228 9.52593C12.9524 9.59626 12.8571 9.63577 12.7576 9.63577C12.6582 9.63577 12.5628 9.59626 12.4924 9.52593C12.4221 9.4556 12.3826 9.36022 12.3826 9.26077C12.3827 8.91555 12.2671 8.58026 12.0544 8.30838C11.8416 8.03651 11.544 7.84372 11.2089 7.76077V10.8395C11.7455 10.9273 12.2335 11.2029 12.5858 11.617C12.9381 12.0312 13.1319 12.557 13.1326 13.1008Z" fill="#FEFEFE"/>
<path d="M11.2088 14.6017C11.5412 14.5162 11.8357 14.3227 12.046 14.0514C12.2563 13.7802 12.3704 13.4468 12.3704 13.1036C12.3704 12.7604 12.2563 12.427 12.046 12.1557C11.8357 11.8845 11.5412 11.6909 11.2088 11.6055V14.6017ZM9.28882 9.26172C9.28926 9.60582 9.40461 9.93992 9.61658 10.211C9.82854 10.4821 10.125 10.6746 10.4588 10.758V7.76172C10.1244 7.84545 9.82766 8.03856 9.61566 8.31036C9.40366 8.58215 9.28862 8.91702 9.28882 9.26172Z" fill="#FEFEFE"/>
<path d="M14.73 17.5611C9.87905 20.6305 3.28318 16.9318 3.36005 11.1823C3.7688 1.26095 17.9022 1.26658 18.3113 11.1823C18.3115 12.2537 18.0812 13.3127 17.6363 14.2873C18.0507 14.4321 18.9889 14.755 19.3988 14.8986C22.1213 8.89033 17.4368 1.74283 10.8338 1.84483C8.35878 1.8484 5.98622 2.83344 4.23646 4.58389C2.48671 6.33435 1.50263 8.70731 1.50005 11.1823C1.40893 18.1836 9.2888 22.8246 15.3525 19.3498C15.1465 18.7531 14.939 18.1568 14.73 17.5611Z" fill="#FEFEFE"/>
</svg>
