<svg width="28" height="28" viewBox="0 0 28 28" fill="none" xmlns="http://www.w3.org/2000/svg">
<path d="M0 8.4C0 3.76081 3.76081 0 8.4 0H19.6C24.2392 0 28 3.76081 28 8.4V19.6C28 24.2392 24.2392 28 19.6 28H8.4C3.76081 28 0 24.2392 0 19.6V8.4Z" fill="#6FC3FF" fill-opacity="0.1"/>
<path d="M16.4442 8.16602H11.5559C9.43258 8.16602 8.16675 9.43185 8.16675 11.5552V16.4377C8.16675 18.5668 9.43258 19.8327 11.5559 19.8327H16.4384C18.5617 19.8327 19.8276 18.5668 19.8276 16.4435V11.5552C19.8334 9.43185 18.5676 8.16602 16.4442 8.16602ZM16.8117 15.306L14.3092 17.8085C14.2276 17.8902 14.1167 17.9368 14.0001 17.9368C13.8834 17.9368 13.7726 17.8902 13.6909 17.8085L11.1884 15.306C11.0192 15.1368 11.0192 14.8568 11.1884 14.6877C11.3576 14.5185 11.6376 14.5185 11.8067 14.6877L13.5626 16.4435V10.4993C13.5626 10.2602 13.7609 10.0618 14.0001 10.0618C14.2392 10.0618 14.4376 10.2602 14.4376 10.4993V16.4435L16.1934 14.6877C16.3626 14.5185 16.6426 14.5185 16.8117 14.6877C16.8992 14.7752 16.9401 14.886 16.9401 14.9968C16.9401 15.1077 16.8934 15.2243 16.8117 15.306Z" fill="#6FC3FF"/>
</svg>
