<svg width="17" height="16" viewBox="0 0 17 16" fill="none" xmlns="http://www.w3.org/2000/svg">
<path d="M14.1665 6.79203H12.2398C10.6598 6.79203 9.37317 5.50536 9.37317 3.92536V1.9987C9.37317 1.63203 9.07317 1.33203 8.7065 1.33203H5.87984C3.8265 1.33203 2.1665 2.66536 2.1665 5.04536V10.952C2.1665 13.332 3.8265 14.6654 5.87984 14.6654H11.1198C13.1732 14.6654 14.8332 13.332 14.8332 10.952V7.4587C14.8332 7.09203 14.5332 6.79203 14.1665 6.79203ZM8.6865 10.5187L7.35317 11.852C7.3065 11.8987 7.2465 11.9387 7.1865 11.9587C7.1265 11.9854 7.0665 11.9987 6.99984 11.9987C6.93317 11.9987 6.87317 11.9854 6.81317 11.9587C6.75984 11.9387 6.7065 11.8987 6.6665 11.8587C6.65984 11.852 6.65317 11.852 6.65317 11.8454L5.31984 10.512C5.1265 10.3187 5.1265 9.9987 5.31984 9.80536C5.51317 9.61203 5.83317 9.61203 6.0265 9.80536L6.49984 10.292V7.4987C6.49984 7.22536 6.7265 6.9987 6.99984 6.9987C7.27317 6.9987 7.49984 7.22536 7.49984 7.4987V10.292L7.97984 9.81203C8.17317 9.6187 8.49317 9.6187 8.6865 9.81203C8.87984 10.0054 8.87984 10.3254 8.6865 10.5187Z" fill="#0396FF"/>
<path d="M12.12 5.87365C12.7533 5.88032 13.6333 5.88032 14.3866 5.88032C14.7666 5.88032 14.9666 5.43365 14.7 5.16699C13.74 4.20032 12.02 2.46032 11.0333 1.47365C10.76 1.20032 10.2866 1.38699 10.2866 1.76699V4.09365C10.2866 5.06699 11.1133 5.87365 12.12 5.87365Z" fill="#0396FF"/>
</svg>
