<svg width="28" height="28" viewBox="0 0 28 28" fill="none" xmlns="http://www.w3.org/2000/svg">
<path d="M0 8.4C0 3.76081 3.76081 0 8.4 0H19.6C24.2392 0 28 3.76081 28 8.4V19.6C28 24.2392 24.2392 28 19.6 28H8.4C3.76081 28 0 24.2392 0 19.6V8.4Z" fill="#6FC3FF" fill-opacity="0.1"/>
<path d="M16.4149 8.72742L11.1474 10.4774C7.60661 11.6616 7.60661 13.5924 11.1474 14.7708L12.7108 15.2899L13.2299 16.8533C14.4083 20.3941 16.3449 20.3941 17.5233 16.8533L19.2791 11.5916C20.0608 9.22909 18.7774 7.93992 16.4149 8.72742ZM16.6016 11.8658L14.3849 14.0941C14.2974 14.1816 14.1866 14.2224 14.0758 14.2224C13.9649 14.2224 13.8541 14.1816 13.7666 14.0941C13.5974 13.9249 13.5974 13.6449 13.7666 13.4758L15.9833 11.2474C16.1524 11.0783 16.4324 11.0783 16.6016 11.2474C16.7708 11.4166 16.7708 11.6966 16.6016 11.8658Z" fill="#6FC3FF"/>
</svg>
