<svg width="90" height="89" viewBox="0 0 90 89" fill="none" xmlns="http://www.w3.org/2000/svg">
<g filter="url(#filter0_d_4568_229095)">
<rect x="24.5" y="16" width="41" height="41" rx="9" fill="#DB417C"/>
<path fill-rule="evenodd" clip-rule="evenodd" d="M45.0002 48.6793C38.2842 48.6793 32.8203 43.2156 32.8203 36.4998C32.8203 29.784 38.2842 24.3203 45.0002 24.3203C51.7162 24.3203 57.1793 29.784 57.1793 36.4998C57.1793 43.2156 51.7162 48.6793 45.0002 48.6793ZM55.272 38.1668C54.9158 38.0549 52.0522 37.2001 48.792 37.7222C50.1522 41.4611 50.7064 44.5066 50.813 45.1391C53.1468 43.5612 54.8085 41.0615 55.272 38.1668ZM49.0641 46.0927C48.9096 45.1793 48.306 41.9991 46.8453 38.2031C46.8224 38.2115 46.7996 38.2183 46.7768 38.2267C40.9087 40.2712 38.8025 44.3404 38.6152 44.7233C40.3789 46.0987 42.5963 46.9193 45.0009 46.9193C46.4418 46.9193 47.8158 46.624 49.0641 46.0927ZM37.2708 43.471C37.5067 43.0676 40.362 38.3407 45.7269 36.606C45.8631 36.5626 45.9994 36.5208 46.1371 36.4827C45.8761 35.8913 45.5914 35.2999 45.2937 34.7168C40.0986 36.2719 35.0572 36.2064 34.602 36.1973C34.599 36.3031 34.5967 36.4089 34.5967 36.5154C34.5967 39.1872 35.6098 41.6267 37.2708 43.471ZM34.8164 34.386C35.2815 34.3921 39.5678 34.4103 44.4333 33.1179C42.71 30.0541 40.8512 27.4776 40.5771 27.1016C37.6663 28.4747 35.4908 31.1578 34.8164 34.386ZM42.5623 26.4026C42.8501 26.7878 44.7394 29.3605 46.4444 32.4928C50.1438 31.1059 51.7096 29.0013 51.8969 28.7349C50.0594 27.1044 47.6441 26.1134 45.0005 26.1134C44.1609 26.1134 43.3449 26.2139 42.5623 26.4026ZM53.0526 29.9375C52.8334 30.2344 51.0902 32.4692 47.2432 34.0394C47.486 34.535 47.7174 35.0389 47.9336 35.5458C48.0104 35.7262 48.085 35.9051 48.1581 36.0832C51.6193 35.6478 55.0591 36.345 55.4016 36.4181C55.3788 33.9626 54.5012 31.708 53.0526 29.9375Z" fill="white"/>
</g>
<defs>
<filter id="filter0_d_4568_229095" x="0.5" y="0" width="89" height="89" filterUnits="userSpaceOnUse" color-interpolation-filters="sRGB">
<feFlood flood-opacity="0" result="BackgroundImageFix"/>
<feColorMatrix in="SourceAlpha" type="matrix" values="0 0 0 0 0 0 0 0 0 0 0 0 0 0 0 0 0 0 127 0" result="hardAlpha"/>
<feOffset dy="8"/>
<feGaussianBlur stdDeviation="12"/>
<feColorMatrix type="matrix" values="0 0 0 0 0 0 0 0 0 0 0 0 0 0 0 0 0 0 0.08 0"/>
<feBlend mode="normal" in2="BackgroundImageFix" result="effect1_dropShadow_4568_229095"/>
<feBlend mode="normal" in="SourceGraphic" in2="effect1_dropShadow_4568_229095" result="shape"/>
</filter>
</defs>
</svg>
