<svg width="13" height="12" viewBox="0 0 13 12" fill="none" xmlns="http://www.w3.org/2000/svg">
<path d="M11 11H2C1.795 11 1.625 10.83 1.625 10.625C1.625 10.42 1.795 10.25 2 10.25H11C11.205 10.25 11.375 10.42 11.375 10.625C11.375 10.83 11.205 11 11 11Z" fill="#0396FF"/>
<path d="M10.0103 1.74081C9.04028 0.770811 8.09028 0.745811 7.09528 1.74081L6.49028 2.34581C6.44028 2.39581 6.42028 2.47581 6.44028 2.54581C6.82028 3.87081 7.88028 4.93081 9.20528 5.31081C9.22528 5.31581 9.24528 5.32081 9.26528 5.32081C9.32028 5.32081 9.37028 5.30081 9.41028 5.26081L10.0103 4.65581C10.5053 4.16581 10.7453 3.69081 10.7453 3.21081C10.7503 2.71581 10.5103 2.23581 10.0103 1.74081Z" fill="#0396FF"/>
<path d="M8.30516 5.76344C8.16016 5.69344 8.02016 5.62344 7.88516 5.54344C7.77516 5.47844 7.67016 5.40844 7.56516 5.33344C7.48016 5.27844 7.38016 5.19844 7.28516 5.11844C7.27516 5.11344 7.24016 5.08344 7.20016 5.04344C7.03516 4.90344 6.85016 4.72344 6.68516 4.52344C6.67016 4.51344 6.64516 4.47844 6.61016 4.43344C6.56016 4.37344 6.47516 4.27344 6.40016 4.15844C6.34016 4.08344 6.27016 3.97344 6.20516 3.86344C6.12516 3.72844 6.05516 3.59344 5.98516 3.45344V3.45344C5.89338 3.25677 5.63525 3.19834 5.48179 3.35181L2.67016 6.16344C2.60516 6.22844 2.54516 6.35344 2.53016 6.43844L2.26016 8.35344C2.21016 8.69344 2.30516 9.01344 2.51516 9.22844C2.69516 9.40344 2.94516 9.49844 3.21516 9.49844C3.27516 9.49844 3.33516 9.49344 3.39516 9.48344L5.31516 9.21344C5.40516 9.19844 5.53016 9.13844 5.59016 9.07344L8.40643 6.25717C8.55682 6.10677 8.50032 5.84801 8.30516 5.76344V5.76344Z" fill="#0396FF"/>
</svg>
