<svg width="29" height="28" viewBox="0 0 29 28" fill="none" xmlns="http://www.w3.org/2000/svg">
<path d="M0.5 8.4C0.5 3.76081 4.26081 0 8.9 0H20.1C24.7392 0 28.5 3.76081 28.5 8.4V19.6C28.5 24.2392 24.7392 28 20.1 28H8.9C4.26081 28 0.5 24.2392 0.5 19.6V8.4Z" fill="#0396FF" fill-opacity="0.1"/>
<path d="M19.75 19.832H9.25C9.01083 19.832 8.8125 19.6337 8.8125 19.3945C8.8125 19.1554 9.01083 18.957 9.25 18.957H19.75C19.9892 18.957 20.1875 19.1554 20.1875 19.3945C20.1875 19.6337 19.9892 19.832 19.75 19.832Z" fill="#0396FF"/>
<path d="M18.5951 9.0316C17.4634 7.89993 16.3551 7.87076 15.1943 9.0316L14.4884 9.73743C14.4301 9.79576 14.4068 9.8891 14.4301 9.97076C14.8734 11.5166 16.1101 12.7533 17.6559 13.1966C17.6793 13.2024 17.7026 13.2083 17.7259 13.2083C17.7901 13.2083 17.8484 13.1849 17.8951 13.1383L18.5951 12.4324C19.1726 11.8608 19.4526 11.3066 19.4526 10.7466C19.4584 10.1691 19.1784 9.6091 18.5951 9.0316Z" fill="#0396FF"/>
<path d="M16.6059 13.724C16.4367 13.6423 16.2734 13.5607 16.1159 13.4673C15.9875 13.3915 15.865 13.3098 15.7425 13.2223C15.6434 13.1582 15.5267 13.0648 15.4159 12.9715C15.4042 12.9657 15.3634 12.9307 15.3167 12.884C15.1242 12.7207 14.9084 12.5107 14.7159 12.2773C14.6984 12.2657 14.6692 12.2248 14.6284 12.1723C14.57 12.1023 14.4709 11.9857 14.3834 11.8515C14.3134 11.764 14.2317 11.6357 14.1559 11.5073C14.0625 11.3498 13.9809 11.1923 13.8992 11.029C13.7921 10.7996 13.491 10.7314 13.3119 10.9104L10.0317 14.1907C9.95586 14.2665 9.88586 14.4123 9.86836 14.5115L9.55336 16.7457C9.49502 17.1423 9.60586 17.5157 9.85086 17.7665C10.0609 17.9707 10.3525 18.0815 10.6675 18.0815C10.7375 18.0815 10.8075 18.0757 10.8775 18.064L13.1175 17.749C13.2225 17.7315 13.3684 17.6615 13.4384 17.5857L16.724 14.3C16.8995 14.1246 16.8335 13.8227 16.6059 13.724Z" fill="#0396FF"/>
</svg>
