<svg width="26" height="27" viewBox="0 0 26 27" fill="none" xmlns="http://www.w3.org/2000/svg">
<path d="M13 0.5C5.83151 0.5 0 6.33151 0 13.5C0 20.6685 5.83151 26.5 13 26.5C20.1685 26.5 26 20.6685 26 13.5C26 6.33151 20.1685 0.5 13 0.5ZM18.6875 14.5833H14.0833V19.1875C14.0833 19.7856 13.5981 20.2708 13 20.2708C12.4019 20.2708 11.9167 19.7856 11.9167 19.1875V14.5833H7.3125C6.71443 14.5833 6.22923 14.0981 6.22923 13.5C6.22923 12.9019 6.71443 12.4167 7.3125 12.4167H11.9167V7.8125C11.9167 7.21443 12.4019 6.72923 13 6.72923C13.5981 6.72923 14.0833 7.21443 14.0833 7.8125V12.4167H18.6875C19.2856 12.4167 19.7708 12.9019 19.7708 13.5C19.7708 14.0981 19.2856 14.5833 18.6875 14.5833Z" fill="#0396FF"/>
</svg>
