<svg width="16" height="16" viewBox="0 0 16 16" fill="none" xmlns="http://www.w3.org/2000/svg">
<path d="M10.793 1.3335H5.20634C2.77967 1.3335 1.33301 2.78016 1.33301 5.20683V10.7868C1.33301 13.2202 2.77967 14.6668 5.20634 14.6668H10.7863C13.213 14.6668 14.6597 13.2202 14.6597 10.7935V5.20683C14.6663 2.78016 13.2197 1.3335 10.793 1.3335ZM11.4997 8.22016C11.4997 8.4935 11.273 8.72016 10.9997 8.72016C10.7263 8.72016 10.4997 8.4935 10.4997 8.22016V6.20683L5.35301 11.3535C5.25301 11.4535 5.12634 11.5002 4.99967 11.5002C4.87301 11.5002 4.74634 11.4535 4.64634 11.3535C4.45301 11.1602 4.45301 10.8402 4.64634 10.6468L9.79301 5.50016H7.77967C7.50634 5.50016 7.27967 5.2735 7.27967 5.00016C7.27967 4.72683 7.50634 4.50016 7.77967 4.50016H10.9997C11.273 4.50016 11.4997 4.72683 11.4997 5.00016V8.22016Z" fill="#ADADAD"/>
</svg>
