<svg width="16" height="17" viewBox="0 0 16 17" fill="none" xmlns="http://www.w3.org/2000/svg">
<path d="M11.1999 6.5H8.49992V10.6667C8.49992 10.94 8.27325 11.1667 7.99992 11.1667C7.72659 11.1667 7.49992 10.94 7.49992 10.6667V6.5H4.79992C2.66659 6.5 1.33325 7.83333 1.33325 9.96667V11.6933C1.33325 13.8333 2.66659 15.1667 4.79992 15.1667H11.1933C13.3266 15.1667 14.6599 13.8333 14.6599 11.7V9.96667C14.6666 7.83333 13.3333 6.5 11.1999 6.5Z" fill="#0396FF"/>
<path d="M8.49998 3.54094L9.87998 4.92094C9.97998 5.02094 10.1066 5.0676 10.2333 5.0676C10.36 5.0676 10.4866 5.02094 10.5866 4.92094C10.78 4.7276 10.78 4.4076 10.5866 4.21427L8.35331 1.98094C8.15998 1.7876 7.83998 1.7876 7.64664 1.98094L5.41331 4.21427C5.21998 4.4076 5.21998 4.7276 5.41331 4.92094C5.60664 5.11427 5.92664 5.11427 6.11998 4.92094L7.49998 3.54094V6.50094H8.49998V3.54094Z" fill="#0396FF"/>
</svg>
