<svg width="12" height="13" viewBox="0 0 12 13" fill="none" xmlns="http://www.w3.org/2000/svg">
<path d="M10.625 5.07484C9.47 3.25984 7.78 2.21484 6 2.21484C5.11 2.21484 4.245 2.47484 3.455 2.95984C2.665 3.44984 1.955 4.16484 1.375 5.07484C0.875 5.85984 0.875 7.13484 1.375 7.91984C2.53 9.73984 4.22 10.7798 6 10.7798C6.89 10.7798 7.755 10.5198 8.545 10.0348C9.335 9.54484 10.045 8.82984 10.625 7.91984C11.125 7.13984 11.125 5.85984 10.625 5.07484ZM6 8.51984C4.88 8.51984 3.98 7.61484 3.98 6.49984C3.98 5.38484 4.88 4.47984 6 4.47984C7.12 4.47984 8.02 5.38484 8.02 6.49984C8.02 7.61484 7.12 8.51984 6 8.51984Z" fill="#0396FF"/>
<path d="M5.99995 5.07031C5.21495 5.07031 4.57495 5.71031 4.57495 6.50031C4.57495 7.28531 5.21495 7.92531 5.99995 7.92531C6.78495 7.92531 7.42995 7.28531 7.42995 6.50031C7.42995 5.71531 6.78495 5.07031 5.99995 5.07031Z" fill="#0396FF"/>
</svg>
