<svg width="28" height="28" viewBox="0 0 28 28" fill="none" xmlns="http://www.w3.org/2000/svg">
<path d="M0 8.4C0 3.76081 3.76081 0 8.4 0H19.6C24.2392 0 28 3.76081 28 8.4V19.6C28 24.2392 24.2392 28 19.6 28H8.4C3.76081 28 0 24.2392 0 19.6V8.4Z" fill="#FFC107" fill-opacity="0.1"/>
<path d="M19.3958 12.3376C18.0483 10.2201 16.0766 9.00098 14 9.00098C12.9616 9.00098 11.9525 9.30431 11.0308 9.87014C10.1091 10.4418 9.28079 11.276 8.60413 12.3376C8.02079 13.2535 8.02079 14.741 8.60413 15.6568C9.95163 17.7801 11.9233 18.9935 14 18.9935C15.0383 18.9935 16.0475 18.6901 16.9691 18.1243C17.8908 17.5526 18.7191 16.7185 19.3958 15.6568C19.9791 14.7468 19.9791 13.2535 19.3958 12.3376ZM14 16.3568C12.6933 16.3568 11.6433 15.301 11.6433 14.0001C11.6433 12.6993 12.6933 11.6435 14 11.6435C15.3066 11.6435 16.3566 12.6993 16.3566 14.0001C16.3566 15.301 15.3066 16.3568 14 16.3568Z" fill="#FFC107"/>
<path d="M14 12.3315C13.0842 12.3315 12.3375 13.0782 12.3375 13.9999C12.3375 14.9157 13.0842 15.6624 14 15.6624C14.9159 15.6624 15.6684 14.9157 15.6684 13.9999C15.6684 13.084 14.9159 12.3315 14 12.3315Z" fill="#FFC107"/>
</svg>
