<svg width="16" height="17" viewBox="0 0 16 17" fill="none" xmlns="http://www.w3.org/2000/svg">
<path d="M6.21346 9.35331H8.27346V14.1533C8.27346 14.86 9.15346 15.1933 9.62012 14.66L14.6668 8.92665C15.1068 8.42665 14.7535 7.64665 14.0868 7.64665H12.0268V2.84665C12.0268 2.13998 11.1468 1.80665 10.6801 2.33998L5.63346 8.07331C5.20012 8.57331 5.55346 9.35331 6.21346 9.35331Z" fill="#FEFEFE"/>
<path d="M5.66667 3.66699H1C0.726667 3.66699 0.5 3.44033 0.5 3.16699C0.5 2.89366 0.726667 2.66699 1 2.66699H5.66667C5.94 2.66699 6.16667 2.89366 6.16667 3.16699C6.16667 3.44033 5.94 3.66699 5.66667 3.66699Z" fill="#FEFEFE"/>
<path d="M5 14.333H1C0.726667 14.333 0.5 14.1063 0.5 13.833C0.5 13.5597 0.726667 13.333 1 13.333H5C5.27333 13.333 5.5 13.5597 5.5 13.833C5.5 14.1063 5.27333 14.333 5 14.333Z" fill="#FEFEFE"/>
<path d="M3 9H1C0.726667 9 0.5 8.77333 0.5 8.5C0.5 8.22667 0.726667 8 1 8H3C3.27333 8 3.5 8.22667 3.5 8.5C3.5 8.77333 3.27333 9 3 9Z" fill="#FEFEFE"/>
</svg>
