<svg width="20" height="21" viewBox="0 0 20 21" fill="none" xmlns="http://www.w3.org/2000/svg">
<path d="M7.7667 11.5679H10.3417V17.5679C10.3417 18.4512 11.4417 18.8679 12.025 18.2012L18.3334 11.0345C18.8834 10.4095 18.4417 9.43453 17.6084 9.43453H15.0334V3.43453C15.0334 2.5512 13.9334 2.13453 13.35 2.8012L7.0417 9.96786C6.50003 10.5929 6.9417 11.5679 7.7667 11.5679Z" fill="#1F2933"/>
<path d="M7.08333 4.45703H1.25C0.908333 4.45703 0.625 4.1737 0.625 3.83203C0.625 3.49036 0.908333 3.20703 1.25 3.20703H7.08333C7.425 3.20703 7.70833 3.49036 7.70833 3.83203C7.70833 4.1737 7.425 4.45703 7.08333 4.45703Z" fill="#1F2933"/>
<path d="M6.25 17.793H1.25C0.908333 17.793 0.625 17.5096 0.625 17.168C0.625 16.8263 0.908333 16.543 1.25 16.543H6.25C6.59167 16.543 6.875 16.8263 6.875 17.168C6.875 17.5096 6.59167 17.793 6.25 17.793Z" fill="#1F2933"/>
<path d="M3.75 11.125H1.25C0.908333 11.125 0.625 10.8417 0.625 10.5C0.625 10.1583 0.908333 9.875 1.25 9.875H3.75C4.09167 9.875 4.375 10.1583 4.375 10.5C4.375 10.8417 4.09167 11.125 3.75 11.125Z" fill="#1F2933"/>
</svg>
