<svg width="20" height="21" viewBox="0 0 20 21" fill="none" xmlns="http://www.w3.org/2000/svg">
<path fill-rule="evenodd" clip-rule="evenodd" d="M19.9434 9.53758H13.6605C13.1854 7.69777 11.4163 6.4982 9.53125 6.73763C7.64617 6.97705 6.2332 8.58078 6.2332 10.4809C6.2332 12.3811 7.64617 13.9848 9.53125 14.2242C11.4163 14.4636 13.1854 13.2641 13.6605 11.4243H18.0189C17.6114 14.9437 14.9574 17.7865 11.4741 18.4345C7.99078 19.0825 4.49189 17.3843 2.84596 14.2469C1.20003 11.1095 1.79152 7.26566 4.30457 4.76818C6.81761 2.2707 10.6652 1.70295 13.7925 3.36812C13.2868 4.77775 13.8771 6.34615 15.1866 7.07272C16.4962 7.7993 18.1394 7.47003 19.0679 6.29497C19.9964 5.11992 19.9366 3.44522 18.9268 2.33927C17.917 1.23332 16.2546 1.02191 15.0001 1.8399C11.0804 -0.42299 6.12952 0.228772 2.92915 3.42898C-0.271216 6.62918 -0.923039 11.5799 1.33993 15.4993C3.60291 19.4188 8.2164 21.3297 12.5882 20.1584C16.96 18.9871 19.9999 15.0256 20 10.4998C20 10.1225 19.9811 9.80171 19.9434 9.53758ZM10.0002 12.3676C8.95817 12.3676 8.11343 11.5229 8.11343 10.4809C8.11343 9.43894 8.95817 8.59424 10.0002 8.59424C11.0422 8.59424 11.887 9.43894 11.887 10.4809C11.887 11.5229 11.0422 12.3676 10.0002 12.3676ZM17.7063 3.97257C17.5311 3.54957 17.1183 3.27376 16.6604 3.27376C16.0352 3.27376 15.5283 3.78058 15.5283 4.40577C15.5283 4.86363 15.8041 5.2764 16.2272 5.45161C16.6502 5.62683 17.1371 5.52998 17.4609 5.20623C17.7846 4.88247 17.8815 4.39557 17.7063 3.97257Z" fill="#28A745"/>
</svg>
