<svg width="42" height="41" viewBox="0 0 42 41" fill="none" xmlns="http://www.w3.org/2000/svg">
<g clip-path="url(#clip0_4568_230771)">
<path d="M9.58646 24.7768L8.15931 30.1046L2.9431 30.2149C1.38422 27.3236 0.5 24.0155 0.5 20.5C0.5 17.1006 1.32673 13.8949 2.79216 11.0723H2.79328L7.43717 11.9237L9.47147 16.5397C9.0457 17.781 8.81363 19.1135 8.81363 20.5C8.81379 22.0049 9.08638 23.4467 9.58646 24.7768Z" fill="#FBBB00"/>
<path d="M41.1418 16.6699C41.3772 17.91 41.5 19.1907 41.5 20.4996C41.5 21.9673 41.3457 23.3989 41.0517 24.7798C40.0538 29.4791 37.4462 33.5824 33.834 36.4862L33.8328 36.4851L27.9836 36.1866L27.1558 31.0188C29.5527 29.6131 31.4259 27.4133 32.4126 24.7798H21.4507V16.6699H41.1418Z" fill="#518EF8"/>
<path d="M33.8328 36.486L33.8339 36.4871C30.3208 39.3109 25.858 41.0005 21 41.0005C13.1931 41.0005 6.40561 36.6369 2.94312 30.2154L9.58648 24.7773C11.3177 29.3977 15.7748 32.6867 21 32.6867C23.246 32.6867 25.3501 32.0796 27.1556 31.0197L33.8328 36.486Z" fill="#28B446"/>
<path d="M34.085 4.71948L27.4439 10.1565C25.5753 8.98845 23.3664 8.31371 21 8.31371C15.6564 8.31371 11.116 11.7536 9.47151 16.5397L2.79324 11.0722H2.79211C6.20392 4.49423 13.077 0 21 0C25.974 0 30.5347 1.77181 34.085 4.71948Z" fill="#F14336"/>
</g>
<defs>
<clipPath id="clip0_4568_230771">
<rect width="41" height="41" fill="white" transform="translate(0.5)"/>
</clipPath>
</defs>
</svg>
