<svg width="33" height="33" viewBox="0 0 33 33" fill="none" xmlns="http://www.w3.org/2000/svg">
<path d="M8.40039 0.419922H24.5996C29.0068 0.419922 32.5801 3.99316 32.5801 8.40039V24.5996C32.5801 29.0068 29.0068 32.5801 24.5996 32.5801H8.40039C3.99316 32.5801 0.419922 29.0068 0.419922 24.5996V8.40039C0.419922 3.99316 3.99316 0.419922 8.40039 0.419922Z" fill="#F6F8FB"/>
<path d="M8.40039 0.419922H24.5996C29.0068 0.419922 32.5801 3.99316 32.5801 8.40039V24.5996C32.5801 29.0068 29.0068 32.5801 24.5996 32.5801H8.40039C3.99316 32.5801 0.419922 29.0068 0.419922 24.5996V8.40039C0.419922 3.99316 3.99316 0.419922 8.40039 0.419922Z" stroke="#0396FF" stroke-width="0.84"/>
<g clip-path="url(#clip0_1105_39859)">
<path d="M26.5 16.7268C26.5 15.8878 26.4319 15.2755 26.2846 14.6406H16.7041V18.4274H22.3276C22.2143 19.3685 21.6021 20.7857 20.2415 21.7381L20.2224 21.8648L23.2516 24.2115L23.4615 24.2325C25.3889 22.4524 26.5 19.8333 26.5 16.7268Z" fill="#0396FF"/>
<path d="M16.7041 26.7016C19.4591 26.7016 21.772 25.7945 23.4614 24.2299L20.2414 21.7355C19.3798 22.3364 18.2233 22.7559 16.7041 22.7559C14.0057 22.7559 11.7154 20.9759 10.899 18.5156L10.7794 18.5258L7.62957 20.9634L7.58838 21.0779C9.26637 24.4112 12.7131 26.7016 16.7041 26.7016Z" fill="#28A745"/>
<path d="M10.899 18.5155C10.6836 17.8806 10.559 17.2003 10.559 16.4974C10.559 15.7944 10.6836 15.1141 10.8877 14.4792L10.882 14.344L7.69276 11.8672L7.58841 11.9168C6.89683 13.3001 6.5 14.8534 6.5 16.4974C6.5 18.1414 6.89683 19.6946 7.58841 21.0778L10.899 18.5155Z" fill="#FFC107"/>
<path d="M16.7041 10.2385C18.6201 10.2385 19.9126 11.0662 20.6496 11.7578L23.5294 8.94603C21.7608 7.30204 19.4591 6.29297 16.7041 6.29297C12.7131 6.29297 9.26637 8.5832 7.58838 11.9165L10.8877 14.4789C11.7154 12.0186 14.0057 10.2385 16.7041 10.2385Z" fill="#DC3545"/>
</g>
<defs>
<clipPath id="clip0_1105_39859">
<rect width="20" height="20.4666" fill="white" transform="translate(6.5 6.26562)"/>
</clipPath>
</defs>
</svg>
