<svg width="34" height="34" viewBox="0 0 34 34" fill="none" xmlns="http://www.w3.org/2000/svg">
<rect y="0.00195312" width="34" height="34" rx="8.4" fill="#0396FF"/>
<path d="M22.8333 14.9713V12.323C22.8333 11.5005 22.46 11.168 21.5325 11.168H19.1758C18.2483 11.168 17.875 11.5005 17.875 12.323V14.9655C17.875 15.7938 18.2483 16.1205 19.1758 16.1205H21.5325C22.46 16.1263 22.8333 15.7938 22.8333 14.9713Z" fill="#FEFEFE"/>
<path d="M22.8333 21.5345V19.1778C22.8333 18.2503 22.46 17.877 21.5325 17.877H19.1758C18.2483 17.877 17.875 18.2503 17.875 19.1778V21.5345C17.875 22.462 18.2483 22.8353 19.1758 22.8353H21.5325C22.46 22.8353 22.8333 22.462 22.8333 21.5345Z" fill="#FEFEFE"/>
<path d="M16.1248 14.9713V12.323C16.1248 11.5005 15.7515 11.168 14.824 11.168H12.4673C11.5398 11.168 11.1665 11.5005 11.1665 12.323V14.9655C11.1665 15.7938 11.5398 16.1205 12.4673 16.1205H14.824C15.7515 16.1263 16.1248 15.7938 16.1248 14.9713Z" fill="#FEFEFE"/>
<path d="M16.1248 21.5345V19.1778C16.1248 18.2503 15.7515 17.877 14.824 17.877H12.4673C11.5398 17.877 11.1665 18.2503 11.1665 19.1778V21.5345C11.1665 22.462 11.5398 22.8353 12.4673 22.8353H14.824C15.7515 22.8353 16.1248 22.462 16.1248 21.5345Z" fill="#FEFEFE"/>
</svg>
