<svg width="34" height="34" viewBox="0 0 34 34" fill="none" xmlns="http://www.w3.org/2000/svg">
<path d="M0 8.4C0 3.76081 3.76081 0 8.4 0H25.6C30.2392 0 34 3.76081 34 8.4V25.6C34 30.2392 30.2392 34 25.6 34H8.4C3.76081 34 0 30.2392 0 25.6V8.4Z" fill="#FEFEFE"/>
<path d="M8.40039 0.419922H25.5996C30.0068 0.419922 33.5801 3.99316 33.5801 8.40039V25.5996C33.5801 30.0068 30.0068 33.5801 25.5996 33.5801H8.40039C3.99316 33.5801 0.419922 30.0068 0.419922 25.5996V8.40039C0.419922 3.99316 3.99316 0.419922 8.40039 0.419922Z" stroke="#ADADAD" stroke-opacity="0.3" stroke-width="0.84"/>
<path d="M22.8333 14.9693V12.321C22.8333 11.4985 22.46 11.166 21.5325 11.166H19.1758C18.2483 11.166 17.875 11.4985 17.875 12.321V14.9635C17.875 15.7918 18.2483 16.1185 19.1758 16.1185H21.5325C22.46 16.1243 22.8333 15.7918 22.8333 14.9693Z" fill="#ADADAD"/>
<path d="M22.8333 21.5325V19.1758C22.8333 18.2483 22.46 17.875 21.5325 17.875H19.1758C18.2483 17.875 17.875 18.2483 17.875 19.1758V21.5325C17.875 22.46 18.2483 22.8333 19.1758 22.8333H21.5325C22.46 22.8333 22.8333 22.46 22.8333 21.5325Z" fill="#ADADAD"/>
<path d="M16.1251 14.9693V12.321C16.1251 11.4985 15.7517 11.166 14.8242 11.166H12.4676C11.5401 11.166 11.1667 11.4985 11.1667 12.321V14.9635C11.1667 15.7918 11.5401 16.1185 12.4676 16.1185H14.8242C15.7517 16.1243 16.1251 15.7918 16.1251 14.9693Z" fill="#ADADAD"/>
<path d="M16.1251 21.5325V19.1758C16.1251 18.2483 15.7517 17.875 14.8242 17.875H12.4676C11.5401 17.875 11.1667 18.2483 11.1667 19.1758V21.5325C11.1667 22.46 11.5401 22.8333 12.4676 22.8333H14.8242C15.7517 22.8333 16.1251 22.46 16.1251 21.5325Z" fill="#ADADAD"/>
</svg>
