<svg width="14" height="14" viewBox="0 0 14 14" fill="none" xmlns="http://www.w3.org/2000/svg">
<path d="M12.8333 4.9713V2.32297C12.8333 1.50047 12.46 1.16797 11.5325 1.16797H9.17583C8.24833 1.16797 7.875 1.50047 7.875 2.32297V4.96547C7.875 5.7938 8.24833 6.12047 9.17583 6.12047H11.5325C12.46 6.1263 12.8333 5.7938 12.8333 4.9713Z" fill="#FEFEFE"/>
<path d="M12.8333 11.5345V9.17779C12.8333 8.25029 12.46 7.87695 11.5325 7.87695H9.17583C8.24833 7.87695 7.875 8.25029 7.875 9.17779V11.5345C7.875 12.462 8.24833 12.8353 9.17583 12.8353H11.5325C12.46 12.8353 12.8333 12.462 12.8333 11.5345Z" fill="#FEFEFE"/>
<path d="M6.12484 4.9713V2.32297C6.12484 1.50047 5.7515 1.16797 4.824 1.16797H2.46734C1.53984 1.16797 1.1665 1.50047 1.1665 2.32297V4.96547C1.1665 5.7938 1.53984 6.12047 2.46734 6.12047H4.824C5.7515 6.1263 6.12484 5.7938 6.12484 4.9713Z" fill="#FEFEFE"/>
<path d="M6.12484 11.5345V9.17779C6.12484 8.25029 5.7515 7.87695 4.824 7.87695H2.46734C1.53984 7.87695 1.1665 8.25029 1.1665 9.17779V11.5345C1.1665 12.462 1.53984 12.8353 2.46734 12.8353H4.824C5.7515 12.8353 6.12484 12.462 6.12484 11.5345Z" fill="#FEFEFE"/>
</svg>
