<svg width="22" height="16" viewBox="0 0 22 16" fill="none" xmlns="http://www.w3.org/2000/svg">
<path d="M11 11.3891C12.8705 11.3891 14.3869 9.87273 14.3869 8.00218C14.3869 6.13162 12.8705 4.61523 11 4.61523C9.12942 4.61523 7.61304 6.13162 7.61304 8.00218C7.61304 9.87273 9.12942 11.3891 11 11.3891Z" fill="#0396FF"/>
<path d="M21.6626 7.06306C19.0591 3.91702 15.1182 0.888672 11 0.888672C6.8811 0.888672 2.93925 3.91914 0.33753 7.06306C-0.11251 7.60667 -0.11251 8.39583 0.33753 8.93943C0.991633 9.72986 2.36292 11.2557 4.19441 12.5889C8.80696 15.9467 13.183 15.9541 17.8057 12.5889C19.6372 11.2557 21.0085 9.72986 21.6626 8.93943C22.1113 8.39688 22.1136 7.60845 21.6626 7.06306ZM11 3.25953C13.6148 3.25953 15.7418 5.38653 15.7418 8.00125C15.7418 10.616 13.6148 12.743 11 12.743C8.38532 12.743 6.25833 10.616 6.25833 8.00125C6.25833 5.38653 8.38532 3.25953 11 3.25953Z" fill="#0396FF"/>
</svg>
