<svg width="42" height="41" viewBox="0 0 42 41" fill="none" xmlns="http://www.w3.org/2000/svg">
<rect x="0.5" width="41" height="41" rx="9" fill="#007AB7"/>
<path d="M25.5112 17.1953C29.2752 17.1953 29.9741 19.6761 29.9741 22.9053V29.4756H26.2583V23.6475C26.2583 22.2545 26.2374 20.4658 24.3276 20.4658C22.3907 20.466 22.1001 21.9839 22.1001 23.543V29.4756H18.3843V17.4863H21.9409V19.1289H21.9897C22.488 18.1865 23.6984 17.1953 25.5112 17.1953ZM16.0386 29.4736H12.3159V17.4844H16.0386V29.4736ZM14.1851 11.5254C15.375 11.5256 16.3432 12.4957 16.3433 13.6875C16.3433 14.8793 15.375 15.8494 14.1851 15.8496C12.988 15.8496 12.0259 14.8795 12.0259 13.6875C12.0259 12.4956 12.988 11.5254 14.1851 11.5254Z" fill="white"/>
</svg>
