<svg width="17" height="16" viewBox="0 0 17 16" fill="none" xmlns="http://www.w3.org/2000/svg">
<path d="M8.50004 1.33301C4.82671 1.33301 1.83337 4.32634 1.83337 7.99967C1.83337 11.673 4.82671 14.6663 8.50004 14.6663C12.1734 14.6663 15.1667 11.673 15.1667 7.99967C15.1667 4.32634 12.1734 1.33301 8.50004 1.33301ZM8.00004 5.33301C8.00004 5.05967 8.22671 4.83301 8.50004 4.83301C8.77337 4.83301 9.00004 5.05967 9.00004 5.33301V8.66634C9.00004 8.93967 8.77337 9.16634 8.50004 9.16634C8.22671 9.16634 8.00004 8.93967 8.00004 8.66634V5.33301ZM9.11337 10.9197C9.08004 11.0063 9.03337 11.073 8.97337 11.1397C8.90671 11.1997 8.83337 11.2463 8.75337 11.2797C8.67337 11.313 8.58671 11.333 8.50004 11.333C8.41337 11.333 8.32671 11.313 8.24671 11.2797C8.16671 11.2463 8.09337 11.1997 8.02671 11.1397C7.96671 11.073 7.92004 11.0063 7.88671 10.9197C7.85337 10.8397 7.83337 10.753 7.83337 10.6663C7.83337 10.5797 7.85337 10.493 7.88671 10.413C7.92004 10.333 7.96671 10.2597 8.02671 10.193C8.09337 10.133 8.16671 10.0863 8.24671 10.053C8.40671 9.98634 8.59337 9.98634 8.75337 10.053C8.83337 10.0863 8.90671 10.133 8.97337 10.193C9.03337 10.2597 9.08004 10.333 9.11337 10.413C9.14671 10.493 9.16671 10.5797 9.16671 10.6663C9.16671 10.753 9.14671 10.8397 9.11337 10.9197Z" fill="#ADADAD"/>
</svg>
