<svg width="12" height="13" viewBox="0 0 12 13" fill="none" xmlns="http://www.w3.org/2000/svg">
<path d="M5.99609 1.49609C3.24109 1.49609 0.996094 3.74109 0.996094 6.49609C0.996094 9.25109 3.24109 11.4961 5.99609 11.4961C8.75109 11.4961 10.9961 9.25109 10.9961 6.49609C10.9961 3.74109 8.75109 1.49609 5.99609 1.49609ZM5.62109 4.49609C5.62109 4.29109 5.79109 4.12109 5.99609 4.12109C6.20109 4.12109 6.37109 4.29109 6.37109 4.49609V6.99609C6.37109 7.20109 6.20109 7.37109 5.99609 7.37109C5.79109 7.37109 5.62109 7.20109 5.62109 6.99609V4.49609ZM6.45609 8.68609C6.43109 8.75109 6.39609 8.80109 6.35109 8.85109C6.30109 8.89609 6.24609 8.93109 6.18609 8.95609C6.12609 8.98109 6.06109 8.99609 5.99609 8.99609C5.93109 8.99609 5.86609 8.98109 5.80609 8.95609C5.74609 8.93109 5.69109 8.89609 5.64109 8.85109C5.59609 8.80109 5.56109 8.75109 5.53609 8.68609C5.51109 8.62609 5.49609 8.56109 5.49609 8.49609C5.49609 8.43109 5.51109 8.36609 5.53609 8.30609C5.56109 8.24609 5.59609 8.19109 5.64109 8.14109C5.69109 8.09609 5.74609 8.06109 5.80609 8.03609C5.92609 7.98609 6.06609 7.98609 6.18609 8.03609C6.24609 8.06109 6.30109 8.09609 6.35109 8.14109C6.39609 8.19109 6.43109 8.24609 6.45609 8.30609C6.48109 8.36609 6.49609 8.43109 6.49609 8.49609C6.49609 8.56109 6.48109 8.62609 6.45609 8.68609Z" fill="#2B5F92"/>
</svg>
