<svg width="34" height="34" viewBox="0 0 34 34" fill="none" xmlns="http://www.w3.org/2000/svg">
<path d="M0 8.40195C0 3.76276 3.76081 0.00195312 8.4 0.00195312H25.6C30.2392 0.00195312 34 3.76276 34 8.40195V25.602C34 30.2411 30.2392 34.002 25.6 34.002H8.4C3.76081 34.002 0 30.2411 0 25.602V8.40195Z" fill="#FEFEFE"/>
<path d="M8.40039 0.421875H25.5996C30.0068 0.421875 33.5801 3.99511 33.5801 8.40234V25.6016C33.5801 30.0088 30.0068 33.582 25.5996 33.582H8.40039C3.99316 33.582 0.419922 30.0088 0.419922 25.6016V8.40234C0.419922 3.99511 3.99316 0.421875 8.40039 0.421875Z" stroke="#ADADAD" stroke-opacity="0.3" stroke-width="0.84"/>
<path d="M14.5207 11.168V14.5513H11.1665C11.1665 12.4455 12.4207 11.1796 14.5207 11.168Z" fill="#ADADAD"/>
<path d="M22.8332 14.5513H19.479V11.168C21.579 11.1796 22.8332 12.4455 22.8332 14.5513Z" fill="#ADADAD"/>
<path d="M22.8332 19.5098C22.8098 21.5806 21.5615 22.8231 19.479 22.8348V19.5098H22.8332Z" fill="#ADADAD"/>
<path d="M14.5207 19.5098V22.8348C12.4382 22.8231 11.1898 21.5806 11.1665 19.5098H14.5207Z" fill="#ADADAD"/>
<path d="M14.5207 15.4277H11.1665V18.6361H14.5207V15.4277Z" fill="#ADADAD"/>
<path d="M22.8332 15.4277H19.479V18.6361H22.8332V15.4277Z" fill="#ADADAD"/>
<path d="M18.6043 15.4277H15.396V18.6361H18.6043V15.4277Z" fill="#ADADAD"/>
<path d="M18.6043 11.168H15.396V14.5513H18.6043V11.168Z" fill="#ADADAD"/>
<path d="M18.6043 19.5098H15.396V22.8348H18.6043V19.5098Z" fill="#ADADAD"/>
</svg>
