<svg width="14" height="14" viewBox="0 0 14 14" fill="none" xmlns="http://www.w3.org/2000/svg">
<path d="M4.52091 1.16602V4.54935H1.16675C1.16675 2.44352 2.42091 1.17768 4.52091 1.16602Z" fill="#FEFEFE"/>
<path d="M12.8334 4.54935H9.47925V1.16602C11.5792 1.17768 12.8334 2.44352 12.8334 4.54935Z" fill="#FEFEFE"/>
<path d="M12.8334 9.50781C12.8101 11.5786 11.5617 12.8211 9.47925 12.8328V9.50781H12.8334Z" fill="#FEFEFE"/>
<path d="M4.52091 9.50781V12.8328C2.43841 12.8211 1.19008 11.5786 1.16675 9.50781H4.52091Z" fill="#FEFEFE"/>
<path d="M4.52092 5.42578H1.16675V8.63411H4.52092V5.42578Z" fill="#FEFEFE"/>
<path d="M12.8334 5.42578H9.47925V8.63411H12.8334V5.42578Z" fill="#FEFEFE"/>
<path d="M8.60409 5.42578H5.39575V8.63411H8.60409V5.42578Z" fill="#FEFEFE"/>
<path d="M8.60409 1.16602H5.39575V4.54935H8.60409V1.16602Z" fill="#FEFEFE"/>
<path d="M8.60409 9.50781H5.39575V12.8328H8.60409V9.50781Z" fill="#FEFEFE"/>
</svg>
