<svg width="14" height="14" viewBox="0 0 14 14" fill="none" xmlns="http://www.w3.org/2000/svg">
<path d="M4.52067 1.16797V4.5513H1.1665C1.1665 2.44547 2.42067 1.17964 4.52067 1.16797Z" fill="#ADADAD"/>
<path d="M12.8332 4.5513H9.479V1.16797C11.579 1.17964 12.8332 2.44547 12.8332 4.5513Z" fill="#ADADAD"/>
<path d="M12.8332 9.50977C12.8098 11.5806 11.5615 12.8231 9.479 12.8348V9.50977H12.8332Z" fill="#ADADAD"/>
<path d="M4.52067 9.50977V12.8348C2.43817 12.8231 1.18984 11.5806 1.1665 9.50977H4.52067Z" fill="#ADADAD"/>
<path d="M4.52067 5.42773H1.1665V8.63607H4.52067V5.42773Z" fill="#ADADAD"/>
<path d="M12.8332 5.42773H9.479V8.63607H12.8332V5.42773Z" fill="#ADADAD"/>
<path d="M8.60433 5.42773H5.396V8.63607H8.60433V5.42773Z" fill="#ADADAD"/>
<path d="M8.60433 1.16797H5.396V4.5513H8.60433V1.16797Z" fill="#ADADAD"/>
<path d="M8.60433 9.50977H5.396V12.8348H8.60433V9.50977Z" fill="#ADADAD"/>
</svg>
