<svg width="34" height="34" viewBox="0 0 34 34" fill="none" xmlns="http://www.w3.org/2000/svg">
<path d="M0 8.4C0 3.76081 3.76081 0 8.4 0H25.6C30.2392 0 34 3.76081 34 8.4V25.6C34 30.2392 30.2392 34 25.6 34H8.4C3.76081 34 0 30.2392 0 25.6V8.4Z" fill="#0396FF"/>
<path d="M14.5209 11.166V14.5493H11.1667C11.1667 12.4435 12.4209 11.1777 14.5209 11.166Z" fill="#FEFEFE"/>
<path d="M22.8334 14.5493H19.4792V11.166C21.5792 11.1777 22.8334 12.4435 22.8334 14.5493Z" fill="#FEFEFE"/>
<path d="M22.8334 19.5078C22.8101 21.5786 21.5617 22.8211 19.4792 22.8328V19.5078H22.8334Z" fill="#FEFEFE"/>
<path d="M14.5209 19.5078V22.8328C12.4384 22.8211 11.1901 21.5786 11.1667 19.5078H14.5209Z" fill="#FEFEFE"/>
<path d="M14.5209 15.4258H11.1667V18.6341H14.5209V15.4258Z" fill="#FEFEFE"/>
<path d="M22.8334 15.4258H19.4792V18.6341H22.8334V15.4258Z" fill="#FEFEFE"/>
<path d="M18.6041 15.4258H15.3958V18.6341H18.6041V15.4258Z" fill="#FEFEFE"/>
<path d="M18.6041 11.166H15.3958V14.5493H18.6041V11.166Z" fill="#FEFEFE"/>
<path d="M18.6041 19.5078H15.3958V22.8328H18.6041V19.5078Z" fill="#FEFEFE"/>
</svg>
