<svg width="16" height="17" viewBox="0 0 16 17" fill="none" xmlns="http://www.w3.org/2000/svg">
<path d="M13.7467 6.13464C13.0467 3.05464 10.3601 1.66797 8.00006 1.66797C8.00006 1.66797 8.00006 1.66797 7.9934 1.66797C5.64006 1.66797 2.94673 3.04797 2.24673 6.12797C1.46673 9.56797 3.5734 12.4813 5.48006 14.3146C6.18673 14.9946 7.0934 15.3346 8.00006 15.3346C8.90673 15.3346 9.8134 14.9946 10.5134 14.3146C12.4201 12.4813 14.5267 9.57463 13.7467 6.13464ZM8.00006 9.47463C6.84006 9.47463 5.90006 8.53464 5.90006 7.37464C5.90006 6.21464 6.84006 5.27464 8.00006 5.27464C9.16006 5.27464 10.1001 6.21464 10.1001 7.37464C10.1001 8.53464 9.16006 9.47463 8.00006 9.47463Z" fill="#ADADAD"/>
</svg>
