<svg width="48" height="48" viewBox="0 0 48 48" fill="none" xmlns="http://www.w3.org/2000/svg">
<rect width="48" height="48" rx="10" fill="#0396FF"/>
<g clip-path="url(#clip0_2013_389)">
<path d="M31.9015 20.7458C30.939 16.5108 27.2448 14.6041 23.9998 14.6041C23.9998 14.6041 23.9998 14.6041 23.9907 14.6041C20.7548 14.6041 17.0515 16.5016 16.089 20.7366C15.0165 25.4666 17.9132 29.4725 20.5348 31.9933C21.5065 32.9283 22.7532 33.3958 23.9998 33.3958C25.2465 33.3958 26.4932 32.9283 27.4557 31.9933C30.0773 29.4725 32.974 25.4758 31.9015 20.7458ZM23.9998 25.3383C22.4048 25.3383 21.1123 24.0458 21.1123 22.4508C21.1123 20.8558 22.4048 19.5633 23.9998 19.5633C25.5948 19.5633 26.8873 20.8558 26.8873 22.4508C26.8873 24.0458 25.5948 25.3383 23.9998 25.3383Z" fill="white"/>
</g>
<defs>
<clipPath id="clip0_2013_389">
<rect width="22" height="22" fill="white" transform="translate(13 13)"/>
</clipPath>
</defs>
</svg>
