<svg width="32" height="33" viewBox="0 0 32 33" fill="none" xmlns="http://www.w3.org/2000/svg">
<g clip-path="url(#clip0_1983_119432)">
<path fill-rule="evenodd" clip-rule="evenodd" d="M20.4446 9.84824C19.129 8.9692 17.5822 8.5 16 8.5V0.5C19.1645 0.5 22.2579 1.43838 24.8891 3.19649C27.5203 4.95458 29.571 7.45345 30.7821 10.377C31.993 13.3006 32.3099 16.5178 31.6926 19.6214C31.0752 22.7251 29.5514 25.5761 27.3137 27.8137C25.0761 30.0514 22.2251 31.5752 19.1214 32.1926C16.0178 32.8099 12.8006 32.493 9.87704 31.2821C6.95345 30.071 4.45458 28.0203 2.69649 25.3891C0.938384 22.7579 0 19.6645 0 16.5H8C8 18.0822 8.4692 19.629 9.34824 20.9446C10.2273 22.2602 11.4767 23.2855 12.9386 23.891C14.4003 24.4966 16.0089 24.655 17.5607 24.3462C19.1126 24.0376 20.538 23.2757 21.6569 22.1569C22.7757 21.038 23.5376 19.6126 23.8462 18.0607C24.155 16.5089 23.9966 14.9003 23.391 13.4386C22.7855 11.9767 21.7602 10.7273 20.4446 9.84824Z" fill="#0396FF"/>
<path fill-rule="evenodd" clip-rule="evenodd" d="M8 0.500003C8 1.55058 7.79308 2.59087 7.39104 3.56147C6.989 4.53207 6.39972 5.41399 5.65685 6.15686C4.91399 6.89973 4.03208 7.489 3.06147 7.89104C2.09086 8.29308 1.05057 8.5 3.49688e-07 8.5L0 16.5C2.10115 16.5 4.18172 16.0862 6.12294 15.2821C8.06416 14.478 9.828 13.2994 11.3137 11.8137C12.7994 10.328 13.978 8.56416 14.7821 6.62294C15.5862 4.68172 16 2.60115 16 0.5L8 0.500003Z" fill="#0396FF"/>
</g>
<defs>
<clipPath id="clip0_1983_119432">
<rect width="32" height="32" fill="white" transform="translate(0 0.5)"/>
</clipPath>
</defs>
</svg>
