<svg width="30" height="30" viewBox="0 0 30 30" fill="none" xmlns="http://www.w3.org/2000/svg">
<path d="M21.3093 0H8.68706C7.47905 0 6.50391 0.97952 6.50391 2.18534V27.8168C6.50391 29.0216 7.47905 30 8.68706 30H21.3093C22.5151 30 23.4925 29.0216 23.4925 27.8168V2.18534C23.4925 0.97952 22.5151 0 21.3093 0ZM11.8836 1.32716H18.1149C18.2724 1.32716 18.4003 1.5622 18.4003 1.853C18.4003 2.14379 18.2724 2.37993 18.1149 2.37993H11.8836C11.7251 2.37993 11.5994 2.14379 11.5994 1.853C11.5994 1.5622 11.7251 1.32716 11.8836 1.32716ZM14.9993 27.8431C14.2307 27.8431 13.6054 27.2178 13.6054 26.4481C13.6054 25.6785 14.2307 25.0554 14.9993 25.0554C15.7656 25.0554 16.3909 25.6785 16.3909 26.4481C16.3909 27.2178 15.7656 27.8431 14.9993 27.8431ZM21.857 23.0668H8.14045V3.68741H21.857V23.0668Z" fill="#0396FF"/>
</svg>
