<svg width="17" height="16" viewBox="0 0 17 16" fill="none" xmlns="http://www.w3.org/2000/svg">
<path d="M13.2796 4.42668C12.993 2.98001 11.9196 2.34668 10.4263 2.34668H4.57298C2.81298 2.34668 1.63965 3.22668 1.63965 5.28001V8.71335C1.63965 10.1933 2.24631 11.06 3.24631 11.4333C3.39298 11.4867 3.55298 11.5333 3.71965 11.56C3.98631 11.62 4.27298 11.6467 4.57298 11.6467H10.433C12.193 11.6467 13.3663 10.7667 13.3663 8.71335V5.28001C13.3663 4.96668 13.3396 4.68668 13.2796 4.42668ZM4.18632 8.00001C4.18632 8.27335 3.95965 8.50001 3.68632 8.50001C3.41298 8.50001 3.18632 8.27335 3.18632 8.00001V6.00001C3.18632 5.72668 3.41298 5.50001 3.68632 5.50001C3.95965 5.50001 4.18632 5.72668 4.18632 6.00001V8.00001ZM7.49965 8.76001C6.52631 8.76001 5.73965 7.97335 5.73965 7.00001C5.73965 6.02668 6.52631 5.24001 7.49965 5.24001C8.47298 5.24001 9.25965 6.02668 9.25965 7.00001C9.25965 7.97335 8.47298 8.76001 7.49965 8.76001ZM11.8063 8.00001C11.8063 8.27335 11.5796 8.50001 11.3063 8.50001C11.033 8.50001 10.8063 8.27335 10.8063 8.00001V6.00001C10.8063 5.72668 11.033 5.50001 11.3063 5.50001C11.5796 5.50001 11.8063 5.72668 11.8063 6.00001V8.00001Z" fill="#28A745"/>
<path d="M15.3665 7.27986V10.7132C15.3665 12.7665 14.1932 13.6532 12.4265 13.6532H6.57318C6.07318 13.6532 5.62651 13.5799 5.23985 13.4332C4.92651 13.3199 4.65318 13.1532 4.43318 12.9399C4.31318 12.8265 4.40651 12.6465 4.57318 12.6465H10.4265C12.8932 12.6465 14.3598 11.1799 14.3598 8.71986V5.27986C14.3598 5.11986 14.5398 5.01986 14.6532 5.13986C15.1065 5.61986 15.3665 6.31986 15.3665 7.27986Z" fill="#28A745"/>
</svg>
