<svg width="42" height="41" viewBox="0 0 42 41" fill="none" xmlns="http://www.w3.org/2000/svg">
<rect x="0.5" width="41" height="41" rx="8.4" fill="#FEFEFE"/>
<rect x="0.92" y="0.42" width="40.16" height="40.16" rx="7.98" stroke="#ADADAD" stroke-opacity="0.3" stroke-width="0.84"/>
<path d="M15.75 19C14.925 19 14.25 19.675 14.25 20.5C14.25 21.325 14.925 22 15.75 22C16.575 22 17.25 21.325 17.25 20.5C17.25 19.675 16.575 19 15.75 19Z" fill="#ADADAD" stroke="#ADADAD" stroke-width="1.5"/>
<path d="M26.25 19C25.425 19 24.75 19.675 24.75 20.5C24.75 21.325 25.425 22 26.25 22C27.075 22 27.75 21.325 27.75 20.5C27.75 19.675 27.075 19 26.25 19Z" fill="#ADADAD" stroke="#ADADAD" stroke-width="1.5"/>
<path d="M21 19C20.175 19 19.5 19.675 19.5 20.5C19.5 21.325 20.175 22 21 22C21.825 22 22.5 21.325 22.5 20.5C22.5 19.675 21.825 19 21 19Z" fill="#ADADAD" stroke="#ADADAD" stroke-width="1.5"/>
</svg>
