<svg width="36" height="37" viewBox="0 0 36 37" fill="none" xmlns="http://www.w3.org/2000/svg">
<rect y="0.75" width="36" height="36" rx="8.4" fill="#FEFEFE"/>
<rect x="0.42" y="1.17" width="35.16" height="35.16" rx="7.98" stroke="#ADADAD" stroke-opacity="0.3" stroke-width="0.84"/>
<path d="M18.0149 11.9325C15.5324 11.9325 13.5149 13.95 13.5149 16.4325V18.6C13.5149 19.0575 13.3199 19.755 13.0874 20.145L12.2249 21.5775C11.6924 22.4625 12.0599 23.445 13.0349 23.775C16.2674 24.855 19.7549 24.855 22.9874 23.775C23.8949 23.475 24.2924 22.4025 23.7974 21.5775L22.9349 20.145C22.7099 19.755 22.5149 19.0575 22.5149 18.6V16.4325C22.5149 13.9575 20.4899 11.9325 18.0149 11.9325Z" fill="#ADADAD" stroke="#ADADAD" stroke-width="1.5" stroke-miterlimit="10" stroke-linecap="round"/>
<path d="M19.4024 12.15C19.1699 12.0825 18.9299 12.03 18.6824 12C17.9624 11.91 17.2724 11.9625 16.6274 12.15C16.8449 11.595 17.3849 11.205 18.0149 11.205C18.6449 11.205 19.1849 11.595 19.4024 12.15Z" fill="#ADADAD" stroke="#ADADAD" stroke-width="1.5" stroke-miterlimit="10" stroke-linecap="round" stroke-linejoin="round"/>
<path d="M20.2651 24.045C20.2651 25.2825 19.2526 26.295 18.0151 26.295C17.4001 26.295 16.8301 26.04 16.4251 25.635C16.0201 25.23 15.7651 24.66 15.7651 24.045" fill="#ADADAD"/>
<path d="M20.2651 24.045C20.2651 25.2825 19.2526 26.295 18.0151 26.295C17.4001 26.295 16.8301 26.04 16.4251 25.635C16.0201 25.23 15.7651 24.66 15.7651 24.045" stroke="#ADADAD" stroke-width="1.5" stroke-miterlimit="10"/>
</svg>
