<svg width="29" height="28" viewBox="0 0 29 28" fill="none" xmlns="http://www.w3.org/2000/svg">
<path d="M0.5 8.4C0.5 3.76081 4.26081 0 8.9 0H20.1C24.7392 0 28.5 3.76081 28.5 8.4V19.6C28.5 24.2392 24.7392 28 20.1 28H8.9C4.26081 28 0.5 24.2392 0.5 19.6V8.4Z" fill="#FFC107" fill-opacity="0.1"/>
<path d="M19.8959 12.3367C18.5484 10.2192 16.5767 9 14.5001 9C13.4617 9 12.4526 9.30333 11.5309 9.86917C10.6092 10.4408 9.78091 11.275 9.10425 12.3367C8.52091 13.2525 8.52091 14.74 9.10425 15.6558C10.4517 17.7792 12.4234 18.9925 14.5001 18.9925C15.5384 18.9925 16.5476 18.6892 17.4692 18.1233C18.3909 17.5517 19.2192 16.7175 19.8959 15.6558C20.4792 14.7458 20.4792 13.2525 19.8959 12.3367ZM14.5001 16.3558C13.1934 16.3558 12.1434 15.3 12.1434 13.9992C12.1434 12.6983 13.1934 11.6425 14.5001 11.6425C15.8067 11.6425 16.8567 12.6983 16.8567 13.9992C16.8567 15.3 15.8067 16.3558 14.5001 16.3558Z" fill="#FFC107"/>
<path d="M14.4999 12.332C13.5841 12.332 12.8374 13.0787 12.8374 14.0004C12.8374 14.9162 13.5841 15.6629 14.4999 15.6629C15.4157 15.6629 16.1682 14.9162 16.1682 14.0004C16.1682 13.0845 15.4157 12.332 14.4999 12.332Z" fill="#FFC107"/>
</svg>
