<svg width="28" height="28" viewBox="0 0 28 28" fill="none" xmlns="http://www.w3.org/2000/svg">
<path d="M0 8.4C0 3.76081 3.76081 0 8.4 0H19.6C24.2392 0 28 3.76081 28 8.4V19.6C28 24.2392 24.2392 28 19.6 28H8.4C3.76081 28 0 24.2392 0 19.6V8.4Z" fill="#DC3545" fill-opacity="0.1"/>
<path d="M13.2125 18.1475V9.8525C13.2125 9.065 12.88 8.75 12.04 8.75H9.9225C9.0825 8.75 8.75 9.065 8.75 9.8525V18.1475C8.75 18.935 9.0825 19.25 9.9225 19.25H12.04C12.88 19.25 13.2125 18.935 13.2125 18.1475Z" fill="#DC3545"/>
<path d="M19.25 18.1475V9.8525C19.25 9.065 18.9175 8.75 18.0775 8.75H15.96C15.1258 8.75 14.7875 9.065 14.7875 9.8525V18.1475C14.7875 18.935 15.12 19.25 15.96 19.25H18.0775C18.9175 19.25 19.25 18.935 19.25 18.1475Z" fill="#DC3545"/>
</svg>
