<svg width="28" height="28" viewBox="0 0 28 28" fill="none" xmlns="http://www.w3.org/2000/svg">
<path d="M0 8.4C0 3.76081 3.76081 0 8.4 0H19.6C24.2392 0 28 3.76081 28 8.4V19.6C28 24.2392 24.2392 28 19.6 28H8.4C3.76081 28 0 24.2392 0 19.6V8.4Z" fill="#28A745" fill-opacity="0.1"/>
<path d="M17.5 12.25H19.1042C19.5067 12.25 19.8333 12.5767 19.8333 12.9792V18.1562C19.8333 18.7606 19.3433 19.25 18.7396 19.25H18.5938C18.3037 19.25 18.0255 19.1348 17.8204 18.9296C17.6152 18.7245 17.5 18.4463 17.5 18.1562V12.25Z" fill="#28A745"/>
<path fill-rule="evenodd" clip-rule="evenodd" d="M10.2083 8.16797C9.82156 8.16797 9.45063 8.32161 9.17714 8.5951C8.90365 8.8686 8.75 9.23953 8.75 9.6263V18.3763C8.75 18.7631 8.90365 19.134 9.17714 19.4075C9.45063 19.681 9.82156 19.8346 10.2083 19.8346H17.9241C17.9299 19.8346 17.9363 19.8341 17.9416 19.8323C17.664 19.8148 17.4035 19.6922 17.2131 19.4894C17.0227 19.2867 16.9167 19.019 16.9167 18.7409V9.6263C16.9167 9.23953 16.763 8.8686 16.4895 8.5951C16.216 8.32161 15.8451 8.16797 15.4583 8.16797H10.2083ZM10.0625 11.0846C10.0625 10.9686 10.1086 10.8573 10.1906 10.7753C10.2727 10.6932 10.384 10.6471 10.5 10.6471H15.1667C15.2827 10.6471 15.394 10.6932 15.476 10.7753C15.5581 10.8573 15.6042 10.9686 15.6042 11.0846C15.6042 11.2007 15.5581 11.3119 15.476 11.394C15.394 11.476 15.2827 11.5221 15.1667 11.5221H10.5C10.384 11.5221 10.2727 11.476 10.1906 11.394C10.1086 11.3119 10.0625 11.2007 10.0625 11.0846ZM10.5 12.3971C10.384 12.3971 10.2727 12.4432 10.1906 12.5253C10.1086 12.6073 10.0625 12.7186 10.0625 12.8346C10.0625 12.9507 10.1086 13.0619 10.1906 13.144C10.2727 13.226 10.384 13.2721 10.5 13.2721H15.1667C15.2827 13.2721 15.394 13.226 15.476 13.144C15.5581 13.0619 15.6042 12.9507 15.6042 12.8346C15.6042 12.7186 15.5581 12.6073 15.476 12.5253C15.394 12.4432 15.2827 12.3971 15.1667 12.3971H10.5ZM13.2708 15.9321L13.6908 16.3521C13.7309 16.3951 13.7792 16.4296 13.8329 16.4535C13.8865 16.4774 13.9445 16.4903 14.0032 16.4913C14.0619 16.4924 14.1203 16.4815 14.1748 16.4595C14.2292 16.4375 14.2787 16.4048 14.3203 16.3632C14.3618 16.3217 14.3946 16.2722 14.4166 16.2177C14.4386 16.1633 14.4494 16.1049 14.4483 16.0462C14.4473 15.9874 14.4345 15.9295 14.4105 15.8758C14.3866 15.8222 14.3522 15.7739 14.3092 15.7338L13.1944 14.6185C13.147 14.571 13.0907 14.5334 13.0288 14.5077C12.9668 14.482 12.9004 14.4688 12.8333 14.4688C12.7663 14.4688 12.6999 14.482 12.6379 14.5077C12.5759 14.5334 12.5197 14.571 12.4722 14.6185L11.3575 15.7338C11.3145 15.7739 11.28 15.8222 11.2561 15.8758C11.2322 15.9295 11.2194 15.9874 11.2183 16.0462C11.2173 16.1049 11.2281 16.1633 11.2501 16.2177C11.2721 16.2722 11.3049 16.3217 11.3464 16.3632C11.3879 16.4048 11.4374 16.4375 11.4919 16.4595C11.5464 16.4815 11.6047 16.4924 11.6635 16.4913C11.7222 16.4903 11.7801 16.4774 11.8338 16.4535C11.8875 16.4296 11.9358 16.3951 11.9758 16.3521L12.3958 15.9321V17.5013C12.3958 17.6173 12.4419 17.7286 12.524 17.8107C12.606 17.8927 12.7173 17.9388 12.8333 17.9388C12.9494 17.9388 13.0606 17.8927 13.1427 17.8107C13.2247 17.7286 13.2708 17.6173 13.2708 17.5013V15.9321Z" fill="#28A745"/>
</svg>
