<svg width="29" height="28" viewBox="0 0 29 28" fill="none" xmlns="http://www.w3.org/2000/svg">
<path d="M0.5 8.4C0.5 3.76081 4.26081 0 8.9 0H20.1C24.7392 0 28.5 3.76081 28.5 8.4V19.6C28.5 24.2392 24.7392 28 20.1 28H8.9C4.26081 28 0.5 24.2392 0.5 19.6V8.4Z" fill="#0396FF" fill-opacity="0.1"/>
<path d="M16.9442 8.16797H12.0559C9.93258 8.16797 8.66675 9.4338 8.66675 11.5571V16.4396C8.66675 18.5688 9.93258 19.8346 12.0559 19.8346H16.9384C19.0617 19.8346 20.3276 18.5688 20.3276 16.4455V11.5571C20.3334 9.4338 19.0676 8.16797 16.9442 8.16797ZM14.5001 17.6471C13.4559 17.6471 12.6392 17.128 12.0851 16.6146V17.0288C12.0851 17.268 11.8867 17.4663 11.6476 17.4663C11.4084 17.4663 11.2101 17.268 11.2101 17.0288V15.4246C11.2101 15.1855 11.4084 14.9871 11.6476 14.9871H13.0942C13.3334 14.9871 13.5317 15.1855 13.5317 15.4246C13.5317 15.6638 13.3334 15.8621 13.0942 15.8621H12.5692C13.0009 16.2938 13.6717 16.7721 14.5001 16.7721C16.0284 16.7721 17.2709 15.5296 17.2709 14.0013C17.2709 13.7621 17.4692 13.5638 17.7084 13.5638C17.9476 13.5638 18.1459 13.7621 18.1459 14.0013C18.1459 16.0138 16.5126 17.6471 14.5001 17.6471ZM18.1459 12.5663C18.1459 12.5838 18.1459 12.6013 18.1459 12.613C18.1401 12.6771 18.1226 12.7355 18.0934 12.788C18.0642 12.8405 18.0234 12.8871 17.9709 12.928C17.9301 12.9571 17.8834 12.9805 17.8309 12.998C17.7901 13.0096 17.7492 13.0155 17.7084 13.0155H16.2909C16.0517 13.0155 15.8534 12.8171 15.8534 12.578C15.8534 12.3388 16.0517 12.1405 16.2909 12.1405H16.7751C16.3084 11.7088 15.5559 11.2305 14.5117 11.2305C12.9834 11.2305 11.7409 12.473 11.7409 14.0013C11.7409 14.2405 11.5426 14.4388 11.3034 14.4388C11.0642 14.4388 10.8542 14.2405 10.8542 14.0013C10.8542 11.9888 12.4876 10.3555 14.5001 10.3555C15.7542 10.3555 16.6759 10.898 17.2709 11.4171V10.9738C17.2709 10.7346 17.4692 10.5363 17.7084 10.5363C17.9476 10.5363 18.1459 10.7346 18.1459 10.9738V12.5663Z" fill="#0396FF"/>
</svg>
