<svg width="16" height="16" viewBox="0 0 16 16" fill="none" xmlns="http://www.w3.org/2000/svg">
<path d="M10.7935 1.33203H5.20683C2.78016 1.33203 1.3335 2.7787 1.3335 5.20536V10.7854C1.3335 13.2187 2.78016 14.6654 5.20683 14.6654H10.7868C13.2135 14.6654 14.6602 13.2187 14.6602 10.792V5.20536C14.6668 2.7787 13.2202 1.33203 10.7935 1.33203ZM8.00016 12.0054C5.88683 12.0054 4.16683 10.2854 4.16683 8.17203C4.16683 6.0587 5.88683 4.3387 8.00016 4.3387C8.0935 4.3387 8.1935 4.35203 8.28683 4.3587L8.10016 4.14536C7.92016 3.9387 7.94016 3.6187 8.14683 3.4387C8.3535 3.2587 8.6735 3.2787 8.8535 3.48536L9.96683 4.7587C9.9735 4.76536 9.9735 4.77203 9.98016 4.7787C9.98683 4.78536 9.9935 4.78536 9.9935 4.79203C10.0068 4.81203 10.0135 4.8387 10.0268 4.86536C10.0402 4.8987 10.0602 4.92536 10.0668 4.9587C10.0735 4.99203 10.0735 5.0187 10.0802 5.05203C10.0802 5.08536 10.0868 5.11203 10.0868 5.14536C10.0868 5.1787 10.0735 5.20536 10.0602 5.2387C10.0468 5.27203 10.0402 5.30536 10.0268 5.33203C10.0135 5.3587 9.98683 5.38536 9.96683 5.41203C9.94683 5.43203 9.94016 5.4587 9.92016 5.47203C9.9135 5.4787 9.90683 5.4787 9.90016 5.48536C9.8935 5.49203 9.8935 5.4987 9.88683 5.4987L8.5935 6.44536C8.50683 6.51203 8.40016 6.5387 8.30016 6.5387C8.14683 6.5387 7.9935 6.46536 7.8935 6.33203C7.7335 6.11203 7.78016 5.7987 8.00016 5.63203L8.3735 5.3587C8.24683 5.35203 8.12683 5.3387 8.00016 5.3387C6.44016 5.3387 5.16683 6.61203 5.16683 8.17203C5.16683 9.73203 6.44016 11.0054 8.00016 11.0054C9.56016 11.0054 10.8335 9.73203 10.8335 8.17203C10.8335 7.60536 10.6668 7.06536 10.3602 6.5987C10.2068 6.37203 10.2668 6.0587 10.5002 5.90536C10.7268 5.75203 11.0402 5.81203 11.1935 6.04536C11.6135 6.6787 11.8402 7.41203 11.8402 8.17203C11.8335 10.292 10.1135 12.0054 8.00016 12.0054Z" fill="#DC3545"/>
</svg>
