<svg width="20" height="20" viewBox="0 0 20 20" fill="none" xmlns="http://www.w3.org/2000/svg">
<g clip-path="url(#clip0_1717_124951)">
<path d="M13.6515 6.44331C13.5928 6.44326 13.5352 6.42738 13.4848 6.39733C13.4344 6.36728 13.393 6.32418 13.3651 6.27258C13.3371 6.22098 13.3236 6.16279 13.3259 6.10415C13.3283 6.04551 13.3464 5.98859 13.3785 5.9394L16.7885 0.695225C16.8119 0.659311 16.8421 0.628349 16.8774 0.604107C16.9127 0.579866 16.9524 0.562821 16.9943 0.553947C17.0362 0.545074 17.0794 0.544545 17.1215 0.552392C17.1636 0.560239 17.2038 0.576307 17.2397 0.599678C17.2756 0.623018 17.3065 0.653202 17.3308 0.688507C17.355 0.723811 17.3721 0.763545 17.3809 0.805437C17.3898 0.84733 17.3903 0.890562 17.3825 0.932663C17.3747 0.974765 17.3586 1.01491 17.3353 1.05081L13.9252 6.29499C13.8956 6.34058 13.855 6.37803 13.8072 6.40393C13.7594 6.42984 13.7058 6.44337 13.6515 6.44331Z" fill="#D6CCC5"/>
<path d="M13.5652 6.57269C13.5136 6.57266 13.4627 6.56032 13.4167 6.53667L10.1545 4.86409C10.1159 4.84486 10.0815 4.81816 10.0532 4.78553C10.025 4.75291 10.0035 4.715 9.99006 4.67402C9.97659 4.63303 9.97138 4.58978 9.97475 4.54677C9.97811 4.50376 9.98997 4.46184 10.0097 4.42345C10.0293 4.38505 10.0564 4.35095 10.0894 4.3231C10.1223 4.29526 10.1605 4.27423 10.2016 4.26124C10.2428 4.24824 10.2861 4.24354 10.329 4.2474C10.372 4.25127 10.4138 4.26362 10.452 4.28374L13.7143 5.95632C13.7524 5.97585 13.7863 6.0027 13.814 6.03533C13.8417 6.06797 13.8628 6.10574 13.8759 6.1465C13.889 6.18726 13.894 6.23021 13.8905 6.2729C13.8871 6.31558 13.8752 6.35716 13.8557 6.39527C13.8283 6.44872 13.7867 6.49358 13.7354 6.52489C13.6842 6.5562 13.6253 6.57274 13.5652 6.57269Z" fill="#D6CCC5"/>
<path d="M6.49091 8.9766C6.4291 8.97654 6.36858 8.95893 6.3164 8.9258C6.26422 8.89268 6.22253 8.84541 6.19617 8.7895C6.16982 8.7336 6.15989 8.67135 6.16755 8.61002C6.17521 8.54869 6.20013 8.4908 6.23942 8.44309L9.7322 4.20465C9.78721 4.13791 9.86648 4.09575 9.95258 4.08745C10.0387 4.07914 10.1245 4.10536 10.1913 4.16035C10.258 4.21538 10.3001 4.29464 10.3084 4.38072C10.3167 4.4668 10.2905 4.55266 10.2356 4.61941L6.74278 8.85785C6.7122 8.89504 6.67374 8.92498 6.63018 8.94552C6.58663 8.96605 6.53906 8.97667 6.49091 8.9766Z" fill="#D6CCC5"/>
<path d="M6.40873 9.07756C6.35513 9.07756 6.30237 9.06426 6.25518 9.03885L2.92155 7.25432C2.84531 7.21349 2.78841 7.14405 2.76337 7.06127C2.73832 6.97849 2.74718 6.88916 2.78799 6.81291C2.87299 6.6542 3.07061 6.5942 3.2294 6.67936L6.56295 8.46389C6.6007 8.4841 6.63411 8.51155 6.66125 8.54468C6.68839 8.5778 6.70875 8.61594 6.72115 8.65693C6.73355 8.69792 6.73776 8.74095 6.73353 8.78356C6.7293 8.82618 6.71672 8.86754 6.69651 8.90529C6.66865 8.95739 6.62716 9.00093 6.57647 9.03127C6.52579 9.06161 6.46781 9.07761 6.40873 9.07756Z" fill="#D6CCC5"/>
<path d="M17.1387 1.46984C17.5349 1.46984 17.8561 1.14868 17.8561 0.7525C17.8561 0.356322 17.5349 0.0351562 17.1387 0.0351562C16.7426 0.0351562 16.4214 0.356322 16.4214 0.7525C16.4214 1.14868 16.7426 1.46984 17.1387 1.46984Z" fill="#F44321"/>
<path d="M9.98395 5.13C10.3801 5.13 10.7013 4.80883 10.7013 4.41266C10.7013 4.01648 10.3801 3.69531 9.98395 3.69531C9.58777 3.69531 9.2666 4.01648 9.2666 4.41266C9.2666 4.80883 9.58777 5.13 9.98395 5.13Z" fill="#04C051"/>
<path d="M6.40912 9.46594C6.80529 9.46594 7.12646 9.14477 7.12646 8.74859C7.12646 8.35242 6.80529 8.03125 6.40912 8.03125C6.01294 8.03125 5.69177 8.35242 5.69177 8.74859C5.69177 9.14477 6.01294 9.46594 6.40912 9.46594Z" fill="#4D90F4"/>
<path d="M2.82733 7.55187C3.22351 7.55187 3.54467 7.23071 3.54467 6.83453C3.54467 6.43835 3.22351 6.11719 2.82733 6.11719C2.43115 6.11719 2.10999 6.43835 2.10999 6.83453C2.10999 7.23071 2.43115 7.55187 2.82733 7.55187Z" fill="#485360"/>
<path d="M18.9378 9.3941L18.9368 8.24875L18.934 5.76531C18.9335 5.33785 18.5866 4.99172 18.1593 4.99219L16.1277 4.99434C15.7003 4.9948 15.3541 5.34168 15.3546 5.76918L15.3686 18.9224L18.948 18.9186L18.9378 9.3941Z" fill="#F44321"/>
<path d="M15.3686 18.9229L15.3605 11.2614C15.36 10.834 15.0131 10.4878 14.5857 10.4883L12.5541 10.4905C12.1267 10.4909 11.7805 10.8378 11.781 11.2653L11.7891 18.9268L15.3686 18.9229Z" fill="#FE9900"/>
<path d="M11.7891 18.9268L11.7791 9.42547C11.7786 8.99801 11.4317 8.65188 11.0043 8.65234L8.97279 8.65449C8.54533 8.65496 8.19924 9.00184 8.19971 9.42934L8.20979 18.9307L11.7891 18.9268Z" fill="#04C051"/>
<path d="M8.20968 18.9287L8.20417 13.7614C8.2037 13.334 7.85683 12.9878 7.4294 12.9883L5.39792 12.9905C4.97046 12.9909 4.62425 13.3378 4.62476 13.7652L4.63023 18.9325L8.20968 18.9287Z" fill="#1CC0F9"/>
<path d="M4.63029 18.9318L4.62271 11.8434C4.62228 11.416 4.27541 11.0698 3.84798 11.0703L1.8165 11.0725C1.38896 11.0729 1.04283 11.4198 1.04334 11.8473L1.05091 18.9356L4.63029 18.9318Z" fill="#485360"/>
<path d="M13.5652 6.96594C13.9614 6.96594 14.2826 6.64477 14.2826 6.24859C14.2826 5.85242 13.9614 5.53125 13.5652 5.53125C13.1691 5.53125 12.8479 5.85242 12.8479 6.24859C12.8479 6.64477 13.1691 6.96594 13.5652 6.96594Z" fill="#FE9900"/>
<path d="M16.056 5.76918C16.0555 5.34172 16.4016 4.9948 16.8291 4.99434L18.1738 4.99293C18.1689 4.99285 18.1641 4.99219 18.1593 4.99219L16.1277 4.99434C15.7003 4.9948 15.3541 5.34168 15.3546 5.76918L15.3686 18.9224L16.0698 18.9216L16.056 5.76918Z" fill="#C6281C"/>
<path d="M12.4824 11.2653C12.4819 10.8378 12.828 10.4909 13.2555 10.4905L14.6005 10.489C14.5955 10.4889 14.5907 10.4883 14.5857 10.4883L12.5541 10.4905C12.1267 10.4909 11.7805 10.8378 11.781 11.2653L11.7891 18.9268L12.4904 18.926L12.4824 11.2653Z" fill="#EF7A06"/>
<path d="M8.90095 9.42934C8.90044 9.00188 9.24658 8.65496 9.67404 8.65449L11.0187 8.65309C11.0138 8.65301 11.0091 8.65234 11.0042 8.65234L8.97267 8.65449C8.54521 8.65496 8.19912 9.00184 8.19959 9.42934L8.20966 18.9307L8.91103 18.9299L8.90095 9.42934Z" fill="#02A544"/>
<path d="M5.32608 13.7652C5.32565 13.3378 5.67179 12.9909 6.09925 12.9905L7.44425 12.989C7.43929 12.9889 7.43441 12.9883 7.4294 12.9883L5.39792 12.9905C4.97046 12.9909 4.62425 13.3378 4.62476 13.7652L4.63023 18.9325L5.33159 18.9318L5.32608 13.7652Z" fill="#00A8E2"/>
<path d="M1.74458 11.8473C1.74407 11.4198 2.09021 11.0729 2.51774 11.0725L3.86271 11.0711C3.85771 11.071 3.85286 11.0703 3.84786 11.0703L1.81638 11.0725C1.38884 11.0729 1.04271 11.4198 1.04321 11.8473L1.05079 18.9357L1.75216 18.9349L1.74458 11.8473Z" fill="#364351"/>
<path d="M19.4416 18.8281L15.3636 18.8325L10.7653 18.8374L9.23348 18.839L6.68742 18.8417L0.557266 18.8482C0.24918 18.8485 -0.000351191 19.0986 3.71029e-07 19.4067C0.000312871 19.7148 0.250313 19.9643 0.558477 19.964L6.68863 19.9575L9.23473 19.9548L10.7666 19.9532L14.2545 19.9494L15.4084 19.9482L19.4428 19.9439C19.7509 19.9436 20.0004 19.6936 20 19.3854C19.9997 19.0773 19.7497 18.8278 19.4416 18.8281Z" fill="#D6CCC5"/>
<path opacity="0.1" d="M1.25859 18.8485L1.3175 18.8484V18.8477L0.557266 18.8484C0.24918 18.8487 -0.000351191 19.0988 3.71029e-07 19.407C0.000312871 19.715 0.250313 19.9646 0.558477 19.9643L1.245 19.9635C0.94375 19.9559 0.701641 19.71 0.701289 19.4069C0.700977 19.0988 0.95043 18.8487 1.25859 18.8485Z" fill="#231F20"/>
</g>
<defs>
<clipPath id="clip0_1717_124951">
<rect width="20" height="20" fill="white"/>
</clipPath>
</defs>
</svg>
