<svg width="20" height="20" viewBox="0 0 20 20" fill="none" xmlns="http://www.w3.org/2000/svg">
<g clip-path="url(#clip0_1717_124979)">
<path d="M6.04383 13.185C5.91563 13.185 5.78625 13.1432 5.67805 13.0569C5.42582 12.8542 5.38465 12.4857 5.58652 12.2329L8.81035 8.20335C9.01348 7.9528 9.38199 7.91038 9.63438 8.11179C9.88672 8.31444 9.92793 8.68292 9.7259 8.93577L6.50207 12.9653C6.44704 13.0339 6.37728 13.0893 6.29796 13.1273C6.21865 13.1654 6.13179 13.1851 6.04383 13.185Z" fill="#61729B"/>
<path d="M13.898 12.1029C13.748 12.1029 13.5981 12.0456 13.4837 11.9312L10.4142 8.90075C10.1853 8.67189 10.1853 8.3011 10.4142 8.07224C10.6431 7.84337 11.0139 7.84333 11.2428 8.07224L14.3123 11.1026C14.5411 11.3315 14.5411 11.7023 14.3123 11.9311C14.2579 11.9857 14.1933 12.0289 14.1222 12.0583C14.0511 12.0878 13.9749 12.1029 13.898 12.1028L13.898 12.1029ZM15.1882 11.854C15.111 11.854 15.0326 11.839 14.9577 11.8063C14.6601 11.6788 14.5222 11.3344 14.6498 11.0373L17.2419 4.98919C17.3695 4.6904 17.7151 4.552 18.011 4.68126C18.3085 4.80899 18.4464 5.15337 18.3189 5.45028L15.7267 11.4986C15.6318 11.7212 15.4155 11.854 15.1882 11.854Z" fill="#47568C"/>
<path d="M20 18.2422V19.4141C20 19.7421 19.7423 20 19.4141 20C19.0859 20 18.8281 19.7421 18.8281 19.4141V18.8281H16.4844V19.4141C16.4844 19.7421 16.2266 20 15.8984 20C15.5702 20 15.3125 19.7421 15.3125 19.4141V18.8281H12.9297V19.4141C12.9297 19.7421 12.672 20 12.3438 20C12.0155 20 11.7578 19.7421 11.7578 19.4141V18.8281H9.41406V19.4141C9.41406 19.7421 9.15633 20 8.82812 20C8.49992 20 8.24219 19.7421 8.24219 19.4141V18.8281H5.89844V19.4141C5.89844 19.7421 5.6407 20 5.3125 20C4.9843 20 4.72656 19.7421 4.72656 19.4141V18.8281H2.34375V19.4141C2.34375 19.7421 2.08602 20 1.75781 20C1.42961 20 1.17188 19.7421 1.17188 19.4141V18.8281H0.585938C0.257734 18.8281 0 18.5702 0 18.2422C0 17.914 0.257734 17.6562 0.585938 17.6562H1.17188V15.2734H0.585938C0.257734 15.2734 0 15.0155 0 14.6875C0 14.3593 0.257734 14.1016 0.585938 14.1016H1.17188V11.7578H0.585938C0.257734 11.7578 0 11.4999 0 11.1719C0 10.8437 0.257734 10.5859 0.585938 10.5859H1.17188V8.24219H0.585938C0.257734 8.24219 0 7.9843 0 7.65625C0 7.32805 0.257734 7.07031 0.585938 7.07031H1.17188V4.72656H0.585938C0.257734 4.72656 0 4.46867 0 4.14062C0 3.81242 0.257734 3.55469 0.585938 3.55469H1.17188V1.17188H0.585938C0.257734 1.17188 0 0.913984 0 0.585938C0 0.257734 0.257734 0 0.585938 0H1.75781C2.08602 0 2.34375 0.257734 2.34375 0.585938V17.6562H19.4141C19.7423 17.6562 20 17.914 20 18.2422Z" fill="#61729B"/>
<path d="M20 18.2422V19.4141C20 19.7421 19.7423 20 19.4141 20C19.0859 20 18.8281 19.7421 18.8281 19.4141V18.8281H16.4844V19.4141C16.4844 19.7421 16.2266 20 15.8984 20C15.5702 20 15.3125 19.7421 15.3125 19.4141V18.8281H12.9297V19.4141C12.9297 19.7421 12.672 20 12.3438 20C12.0155 20 11.7578 19.7421 11.7578 19.4141V18.8281H10V17.6562H19.4141C19.7423 17.6562 20 17.914 20 18.2422Z" fill="#47568C"/>
<path d="M10 5.89844C9.02727 5.89844 8.24219 6.68352 8.24219 7.65625C8.24219 8.62883 9.02727 9.41406 10 9.41406C10.9727 9.41406 11.7578 8.62883 11.7578 7.65625C11.7578 6.68352 10.9727 5.89844 10 5.89844ZM5.3125 15.2734C4.34324 15.2734 3.51562 14.4848 3.51562 13.5156C3.51562 12.5464 4.34328 11.7578 5.3125 11.7578C6.28172 11.7578 7.07031 12.5464 7.07031 13.5156C7.07031 14.4848 6.28172 15.2734 5.3125 15.2734ZM14.7266 14.1016C13.7573 14.1016 12.9297 13.313 12.9297 12.3438C12.9297 11.3745 13.7573 10.5859 14.7266 10.5859C15.6958 10.5859 16.4844 11.3745 16.4844 12.3438C16.4844 13.313 15.6958 14.1016 14.7266 14.1016ZM18.2422 5.89844C17.2729 5.89844 16.4844 5.10984 16.4844 4.14062C16.4844 3.17141 17.273 2.38281 18.2422 2.38281C19.2114 2.38281 20 3.17141 20 4.14062C20 5.10984 19.2114 5.89844 18.2422 5.89844Z" fill="#25D9F8"/>
<path d="M5.3125 11.7578C6.28176 11.7578 7.07031 12.5464 7.07031 13.5156C7.07031 14.4848 6.28172 15.2734 5.3125 15.2734M14.7266 10.5859C15.6958 10.5859 16.4844 11.3745 16.4844 12.3438C16.4844 13.313 15.6958 14.1016 14.7266 14.1016M18.2422 2.38281C19.2114 2.38281 20 3.17141 20 4.14062C20 5.10984 19.2114 5.89844 18.2422 5.89844M10 9.41406V5.89844C10.9727 5.89844 11.7578 6.68352 11.7578 7.65625C11.7578 8.62883 10.9727 9.41406 10 9.41406Z" fill="#00C0F1"/>
</g>
<defs>
<clipPath id="clip0_1717_124979">
<rect width="20" height="20" fill="white"/>
</clipPath>
</defs>
</svg>
