<svg width="14" height="15" viewBox="0 0 14 15" fill="none" xmlns="http://www.w3.org/2000/svg">
<path d="M6.70817 12.7501C9.76875 12.7501 12.2498 10.269 12.2498 7.20841C12.2498 4.14784 9.76875 1.66675 6.70817 1.66675C3.64759 1.66675 1.1665 4.14784 1.1665 7.20841C1.1665 10.269 3.64759 12.7501 6.70817 12.7501Z" fill="#ADADAD"/>
<path d="M12.425 13.3333C12.32 13.3333 12.215 13.2925 12.1392 13.2167L11.0542 12.1317C10.8967 11.9742 10.8967 11.7175 11.0542 11.5542C11.2117 11.3967 11.4683 11.3967 11.6317 11.5542L12.7167 12.6392C12.8742 12.7967 12.8742 13.0533 12.7167 13.2167C12.635 13.2925 12.53 13.3333 12.425 13.3333Z" fill="#ADADAD"/>
</svg>
