<svg width="22" height="22" viewBox="0 0 22 22" fill="none" xmlns="http://www.w3.org/2000/svg">
<path d="M3.05 8.76901L1.22 9.61901C0.810003 9.80901 0.500003 10.149 0.350003 10.569C0.200003 10.989 0.210003 11.449 0.410003 11.859L2.78 16.949C3.07 17.559 3.68 17.919 4.31 17.919C4.55 17.919 4.79 17.869 5.02 17.759L6.71 16.969L3.05 8.75901V8.76901ZM18.93 12.599L14.12 2.27901C13.84 1.66901 13.3 1.23901 12.65 1.08901C12 0.939011 11.33 1.08901 10.77 1.55901L4.3 7.84901L8.14 16.469L9.21 16.259L17.39 15.599C18.04 15.479 18.59 15.069 18.9 14.469C19.21 13.869 19.22 13.179 18.94 12.579L18.93 12.599ZM16.15 3.74901C16.07 3.74901 15.98 3.73901 15.89 3.70901C15.7031 3.64131 15.5507 3.50217 15.4663 3.32216C15.3819 3.14214 15.3725 2.93599 15.44 2.74901L15.92 1.42901C15.9514 1.33379 16.0016 1.24583 16.0676 1.17035C16.1337 1.09486 16.2141 1.03338 16.3043 0.989539C16.3945 0.945698 16.4926 0.920387 16.5927 0.915104C16.6928 0.909821 16.793 0.924673 16.8873 0.95878C16.9816 0.992888 17.0681 1.04556 17.1417 1.11368C17.2153 1.1818 17.2745 1.26398 17.3157 1.35537C17.357 1.44676 17.3795 1.5455 17.382 1.64575C17.3844 1.746 17.3668 1.84572 17.33 1.93901L16.85 3.25901C16.74 3.55901 16.45 3.74901 16.15 3.74901ZM19.24 6.92901C18.96 6.92901 18.69 6.76901 18.56 6.49901C18.4755 6.31861 18.466 6.11208 18.5335 5.92466C18.6009 5.73723 18.7399 5.58418 18.92 5.49901L20.19 4.90901C20.57 4.72901 21.01 4.89901 21.19 5.26901C21.37 5.64901 21.2 6.08901 20.83 6.26901L19.56 6.85901C19.46 6.90901 19.35 6.92901 19.24 6.92901ZM21 11.809C20.92 11.809 20.83 11.799 20.74 11.769L19.42 11.289C19.3248 11.2576 19.2368 11.2074 19.1613 11.1414C19.0859 11.0754 19.0244 10.9949 18.9805 10.9047C18.9367 10.8145 18.9114 10.7164 18.9061 10.6163C18.9008 10.5162 18.9157 10.416 18.9498 10.3217C18.9839 10.2274 19.0366 10.1409 19.1047 10.0673C19.1728 9.99372 19.255 9.93454 19.3464 9.89327C19.4378 9.85199 19.5365 9.82947 19.6367 9.82702C19.737 9.82457 19.8367 9.84225 19.93 9.87901L21.25 10.359C21.64 10.499 21.84 10.929 21.7 11.319C21.59 11.619 21.3 11.809 20.99 11.809H21ZM10.73 17.159L9.34 17.269L7.79 17.569L6.46 18.189L7.42 20.249C7.57944 20.5857 7.8652 20.8459 8.21529 20.9732C8.56538 21.1005 8.95155 21.0846 9.29 20.929L10.65 20.299C11.35 19.969 11.66 19.129 11.33 18.429L10.73 17.149V17.159Z" fill="white"/>
</svg>
