<svg width="36" height="36" viewBox="0 0 36 36" fill="none" xmlns="http://www.w3.org/2000/svg">
<rect width="36" height="36" rx="12" fill="#0396FF"/>
<path d="M25.1699 17.0555L24.1574 15.8705C23.9699 15.6455 23.8124 15.2255 23.8124 14.9255V13.6505C23.8124 12.8555 23.1599 12.203 22.3649 12.203H21.0899C20.7899 12.203 20.3624 12.0455 20.1374 11.858L18.9524 10.8455C18.4349 10.403 17.5874 10.403 17.0699 10.8455L15.8699 11.858C15.6449 12.0455 15.2249 12.203 14.9249 12.203H13.6274C12.8324 12.203 12.1799 12.8555 12.1799 13.6505V14.9255C12.1799 15.218 12.0299 15.638 11.8424 15.863L10.8299 17.0555C10.3949 17.5805 10.3949 18.4205 10.8299 18.9305L11.8424 20.123C12.0299 20.3405 12.1799 20.768 12.1799 21.0605V22.343C12.1799 23.138 12.8324 23.7905 13.6274 23.7905H14.9324C15.2249 23.7905 15.6524 23.948 15.8774 24.1355L17.0624 25.148C17.5799 25.5905 18.4274 25.5905 18.9449 25.148L20.1299 24.1355C20.3549 23.948 20.7749 23.7905 21.0749 23.7905H22.3499C23.1449 23.7905 23.7974 23.138 23.7974 22.343V21.068C23.7974 20.768 23.9549 20.348 24.1424 20.123L25.1549 18.938C25.6124 18.428 25.6124 17.5805 25.1699 17.0555ZM17.4374 15.098C17.4374 14.7905 17.6924 14.5355 17.9999 14.5355C18.3074 14.5355 18.5624 14.7905 18.5624 15.098V18.7205C18.5624 19.028 18.3074 19.283 17.9999 19.283C17.6924 19.283 17.4374 19.028 17.4374 18.7205V15.098ZM17.9999 21.653C17.5874 21.653 17.2499 21.3155 17.2499 20.903C17.2499 20.4905 17.5799 20.153 17.9999 20.153C18.4124 20.153 18.7499 20.4905 18.7499 20.903C18.7499 21.3155 18.4199 21.653 17.9999 21.653Z" fill="#FEFEFE"/>
</svg>
