<svg width="16" height="16" viewBox="0 0 16 16" fill="none" xmlns="http://www.w3.org/2000/svg">
<path d="M13.5736 8.48672C13.3269 8.48672 13.1202 8.30005 13.0936 8.05338C12.9336 6.58672 12.1469 5.26672 10.9336 4.42672C10.7136 4.27338 10.6602 3.97338 10.8136 3.75338C10.9669 3.53338 11.2669 3.48005 11.4869 3.63338C12.9336 4.64005 13.8669 6.21338 14.0602 7.95338C14.0869 8.22005 13.8936 8.46005 13.6269 8.48672C13.6069 8.48672 13.5936 8.48672 13.5736 8.48672Z" fill="#ADADAD"/>
<path d="M2.4932 8.51989C2.47987 8.51989 2.45987 8.51989 2.44653 8.51989C2.17987 8.49322 1.98653 8.25322 2.0132 7.98656C2.1932 6.24656 3.1132 4.67322 4.54653 3.65989C4.75987 3.50656 5.06653 3.55989 5.21987 3.77322C5.3732 3.99322 5.31987 4.29322 5.10653 4.44656C3.90653 5.29989 3.12653 6.61989 2.97987 8.07989C2.9532 8.33322 2.73987 8.51989 2.4932 8.51989Z" fill="#ADADAD"/>
<path d="M10.6601 14.0666C9.84007 14.4599 8.96007 14.6599 8.04007 14.6599C7.08007 14.6599 6.16673 14.4466 5.3134 14.0132C5.0734 13.8999 4.98007 13.6066 5.10007 13.3666C5.2134 13.1266 5.50673 13.0332 5.74673 13.1466C6.16673 13.3599 6.6134 13.5066 7.06673 13.5932C7.68007 13.7132 8.30673 13.7199 8.92007 13.6132C9.3734 13.5332 9.82007 13.3932 10.2334 13.1932C10.4801 13.0799 10.7734 13.1732 10.8801 13.4199C11.0001 13.6599 10.9067 13.9532 10.6601 14.0666Z" fill="#ADADAD"/>
<path d="M8.03332 1.34009C6.99999 1.34009 6.15332 2.18009 6.15332 3.22009C6.15332 4.26009 6.99332 5.10009 8.03332 5.10009C9.07332 5.10009 9.91332 4.26009 9.91332 3.22009C9.91332 2.18009 9.07332 1.34009 8.03332 1.34009Z" fill="#ADADAD"/>
<path d="M3.36682 9.24658C2.33348 9.24658 1.48682 10.0866 1.48682 11.1266C1.48682 12.1666 2.32682 13.0066 3.36682 13.0066C4.40682 13.0066 5.24682 12.1666 5.24682 11.1266C5.24682 10.0866 4.40015 9.24658 3.36682 9.24658Z" fill="#ADADAD"/>
<path d="M12.6334 9.24658C11.6001 9.24658 10.7534 10.0866 10.7534 11.1266C10.7534 12.1666 11.5934 13.0066 12.6334 13.0066C13.6734 13.0066 14.5134 12.1666 14.5134 11.1266C14.5134 10.0866 13.6734 9.24658 12.6334 9.24658Z" fill="#ADADAD"/>
</svg>
