<svg width="29" height="28" viewBox="0 0 29 28" fill="none" xmlns="http://www.w3.org/2000/svg">
<path d="M0.5 8.4C0.5 3.76081 4.26081 0 8.9 0H20.1C24.7392 0 28.5 3.76081 28.5 8.4V19.6C28.5 24.2392 24.7392 28 20.1 28H8.9C4.26081 28 0.5 24.2392 0.5 19.6V8.4Z" fill="#DC3545" fill-opacity="0.1"/>
<path d="M18.8925 10.2262L10.7258 18.3928C10.7141 18.4045 10.7083 18.4103 10.6966 18.4162C10.475 18.2295 10.2708 18.0253 10.0841 17.8037C9.19746 16.7828 8.66663 15.4528 8.66663 14.0003C8.66663 10.7803 11.28 8.16699 14.5 8.16699C15.9525 8.16699 17.2825 8.69783 18.3033 9.58449C18.525 9.77116 18.7291 9.97533 18.9158 10.197C18.91 10.2087 18.9041 10.2145 18.8925 10.2262Z" fill="#DC3545"/>
<path d="M20.3334 14.0002C20.3334 17.2027 17.7025 19.8335 14.5 19.8335C13.625 19.8335 12.7967 19.641 12.05 19.291C11.6884 19.1218 11.6184 18.6377 11.8984 18.3518L18.8517 11.3985C19.1317 11.1185 19.6217 11.1885 19.7909 11.5502C20.1409 12.291 20.3334 13.1252 20.3334 14.0002Z" fill="#DC3545"/>
<path d="M20.1991 8.30117C20.0241 8.12617 19.7383 8.12617 19.5633 8.30117L8.80081 19.0695C8.62581 19.2445 8.62581 19.5303 8.80081 19.7053C8.88831 19.787 8.99914 19.8337 9.11581 19.8337C9.23247 19.8337 9.34331 19.787 9.43081 19.6995L20.1991 8.93117C20.38 8.75617 20.38 8.47617 20.1991 8.30117Z" fill="#DC3545"/>
</svg>
