<svg width="16" height="16" viewBox="0 0 16 16" fill="none" xmlns="http://www.w3.org/2000/svg">
<path d="M13.0197 3.68683L3.68634 13.0202C3.67301 13.0335 3.66634 13.0402 3.65301 13.0468C3.39967 12.8335 3.16634 12.6002 2.95301 12.3468C1.93967 11.1802 1.33301 9.66016 1.33301 8.00016C1.33301 4.32016 4.31967 1.3335 7.99967 1.3335C9.65967 1.3335 11.1797 1.94016 12.3463 2.9535C12.5997 3.16683 12.833 3.40016 13.0463 3.6535C13.0397 3.66683 13.033 3.6735 13.0197 3.68683Z" fill="#ADADAD"/>
<path d="M14.6666 7.99991C14.6666 11.6599 11.6599 14.6666 7.99991 14.6666C6.99991 14.6666 6.05324 14.4466 5.19991 14.0466C4.78657 13.8532 4.70657 13.2999 5.02657 12.9732L12.9732 5.02657C13.2932 4.70657 13.8532 4.78657 14.0466 5.19991C14.4466 6.04657 14.6666 6.99991 14.6666 7.99991Z" fill="#ADADAD"/>
<path d="M14.5136 1.48643C14.3136 1.28643 13.9869 1.28643 13.7869 1.48643L1.48691 13.7931C1.28691 13.9931 1.28691 14.3198 1.48691 14.5198C1.58691 14.6131 1.71358 14.6664 1.84691 14.6664C1.98025 14.6664 2.10691 14.6131 2.20691 14.5131L14.5136 2.20643C14.7202 2.00643 14.7202 1.68643 14.5136 1.48643Z" fill="#ADADAD"/>
</svg>
