<svg width="16" height="16" viewBox="0 0 16 16" fill="none" xmlns="http://www.w3.org/2000/svg">
<path d="M11.3335 2.33325H4.66683C2.66683 2.33325 1.3335 3.33325 1.3335 5.66659V10.3333C1.3335 12.6666 2.66683 13.6666 4.66683 13.6666H11.3335C13.3335 13.6666 14.6668 12.6666 14.6668 10.3333V5.66659C14.6668 3.33325 13.3335 2.33325 11.3335 2.33325ZM11.6468 6.39325L9.56016 8.05992C9.12016 8.41325 8.56016 8.58659 8.00016 8.58659C7.44016 8.58659 6.8735 8.41325 6.44016 8.05992L4.3535 6.39325C4.14016 6.21992 4.10683 5.89992 4.2735 5.68659C4.44683 5.47325 4.76016 5.43325 4.9735 5.60659L7.06016 7.27325C7.56683 7.67992 8.42683 7.67992 8.9335 7.27325L11.0202 5.60659C11.2335 5.43325 11.5535 5.46659 11.7202 5.68659C11.8935 5.89992 11.8602 6.21992 11.6468 6.39325Z" fill="white"/>
</svg>
