<svg width="24" height="24" viewBox="0 0 24 24" fill="none" xmlns="http://www.w3.org/2000/svg">
<path d="M4.05 9.76901L2.22 10.619C1.81 10.809 1.5 11.149 1.35 11.569C1.2 11.989 1.21 12.449 1.41 12.859L3.78 17.949C4.07 18.559 4.68 18.919 5.31 18.919C5.55 18.919 5.79 18.869 6.02 18.759L7.71 17.969L4.05 9.75901V9.76901ZM19.93 13.599L15.12 3.27901C14.84 2.66901 14.3 2.23901 13.65 2.08901C13 1.93901 12.33 2.08901 11.77 2.55901L5.3 8.84901L9.14 17.469L10.21 17.259L18.39 16.599C19.04 16.479 19.59 16.069 19.9 15.469C20.21 14.869 20.22 14.179 19.94 13.579L19.93 13.599ZM17.15 4.74901C17.07 4.74901 16.98 4.73901 16.89 4.70901C16.7031 4.64131 16.5507 4.50217 16.4663 4.32216C16.3819 4.14214 16.3725 3.93599 16.44 3.74901L16.92 2.42901C16.9514 2.33379 17.0016 2.24583 17.0676 2.17035C17.1337 2.09486 17.2141 2.03338 17.3043 1.98954C17.3945 1.9457 17.4926 1.92039 17.5927 1.9151C17.6928 1.90982 17.793 1.92467 17.8873 1.95878C17.9816 1.99289 18.0681 2.04556 18.1417 2.11368C18.2153 2.1818 18.2745 2.26398 18.3157 2.35537C18.357 2.44676 18.3795 2.5455 18.382 2.64575C18.3844 2.746 18.3668 2.84572 18.33 2.93901L17.85 4.25901C17.74 4.55901 17.45 4.74901 17.15 4.74901ZM20.24 7.92901C19.96 7.92901 19.69 7.76901 19.56 7.49901C19.4755 7.31861 19.466 7.11208 19.5335 6.92466C19.6009 6.73723 19.7399 6.58418 19.92 6.49901L21.19 5.90901C21.57 5.72901 22.01 5.89901 22.19 6.26901C22.37 6.64901 22.2 7.08901 21.83 7.26901L20.56 7.85901C20.46 7.90901 20.35 7.92901 20.24 7.92901ZM22 12.809C21.92 12.809 21.83 12.799 21.74 12.769L20.42 12.289C20.3248 12.2576 20.2368 12.2074 20.1613 12.1414C20.0859 12.0754 20.0244 11.9949 19.9805 11.9047C19.9367 11.8145 19.9114 11.7164 19.9061 11.6163C19.9008 11.5162 19.9157 11.416 19.9498 11.3217C19.9839 11.2274 20.0366 11.1409 20.1047 11.0673C20.1728 10.9937 20.255 10.9345 20.3464 10.8933C20.4378 10.852 20.5365 10.8295 20.6367 10.827C20.737 10.8246 20.8367 10.8422 20.93 10.879L22.25 11.359C22.64 11.499 22.84 11.929 22.7 12.319C22.59 12.619 22.3 12.809 21.99 12.809H22ZM11.73 18.159L10.34 18.269L8.79 18.569L7.46 19.189L8.42 21.249C8.57944 21.5857 8.8652 21.8459 9.21529 21.9732C9.56538 22.1005 9.95155 22.0846 10.29 21.929L11.65 21.299C12.35 20.969 12.66 20.129 12.33 19.429L11.73 18.149V18.159Z" fill="white"/>
</svg>
