<svg width="21" height="22" viewBox="0 0 21 22" fill="none" xmlns="http://www.w3.org/2000/svg">
<path d="M5.02268 14.5C5.11893 14.0712 4.94393 13.4587 4.63768 13.1525L2.51143 11.0262C1.84643 10.3612 1.58393 9.6525 1.77643 9.04C1.97768 8.4275 2.59893 8.0075 3.52643 7.85L6.25643 7.395C6.65018 7.325 7.13143 6.975 7.31518 6.61625L8.82018 3.5975C9.25768 2.73125 9.85268 2.25 10.5002 2.25C11.1477 2.25 11.7427 2.73125 12.1802 3.5975L13.6852 6.61625C13.7989 6.84375 14.0352 7.0625 14.2889 7.21125L4.86518 16.635C4.74268 16.7575 4.53268 16.6437 4.56768 16.4687L5.02268 14.5Z" fill="#E6E6E6"/>
<path d="M16.3627 13.1522C16.0477 13.4672 15.8727 14.0709 15.9777 14.4997L16.5814 17.1334C16.8352 18.2272 16.6777 19.0497 16.1352 19.4434C15.9164 19.6009 15.6539 19.6797 15.3477 19.6797C14.9014 19.6797 14.3764 19.5134 13.7989 19.1722L11.2352 17.6497C10.8327 17.4134 10.1677 17.4134 9.76519 17.6497L7.20144 19.1722C6.23019 19.7409 5.39895 19.8372 4.8652 19.4434C4.66395 19.2947 4.5152 19.0934 4.41895 18.8309L15.0589 8.19092C15.4614 7.78842 16.0302 7.60467 16.5814 7.70092L17.4652 7.84967C18.3927 8.00717 19.0139 8.42717 19.2152 9.03967C19.4077 9.65217 19.1452 10.3609 18.4802 11.0259L16.3627 13.1522Z" fill="#E6E6E6"/>
</svg>
