<svg width="18" height="18" viewBox="0 0 18 18" fill="none" xmlns="http://www.w3.org/2000/svg">
<path d="M4.30502 12C4.38752 11.6325 4.23752 11.1075 3.97502 10.845L2.15252 9.0225C1.58252 8.4525 1.35752 7.845 1.52252 7.32C1.69502 6.795 2.22752 6.435 3.02252 6.3L5.36252 5.91C5.70002 5.85 6.11252 5.55 6.27002 5.2425L7.56002 2.655C7.93502 1.9125 8.44502 1.5 9.00002 1.5C9.55502 1.5 10.065 1.9125 10.44 2.655L11.73 5.2425C11.8275 5.4375 12.03 5.625 12.2475 5.7525L4.17002 13.83C4.06502 13.935 3.88502 13.8375 3.91502 13.6875L4.30502 12Z" fill="#FFC107"/>
<path d="M14.0251 10.8444C13.7551 11.1144 13.6051 11.6319 13.6951 11.9994L14.2126 14.2569C14.4301 15.1944 14.2951 15.8994 13.8301 16.2369C13.6426 16.3719 13.4176 16.4394 13.1551 16.4394C12.7726 16.4394 12.3226 16.2969 11.8276 16.0044L9.6301 14.6994C9.2851 14.4969 8.7151 14.4969 8.3701 14.6994L6.1726 16.0044C5.3401 16.4919 4.6276 16.5744 4.1701 16.2369C3.9976 16.1094 3.8701 15.9369 3.7876 15.7119L12.9076 6.59193C13.2526 6.24693 13.7401 6.08943 14.2126 6.17193L14.9701 6.29943C15.7651 6.43443 16.2976 6.79444 16.4701 7.31944C16.6351 7.84443 16.4101 8.45193 15.8401 9.02193L14.0251 10.8444Z" fill="#FFC107"/>
</svg>
