<svg width="14" height="14" viewBox="0 0 14 14" fill="none" xmlns="http://www.w3.org/2000/svg">
<path d="M3.34829 9.33341C3.41246 9.04758 3.29579 8.63925 3.09163 8.43508L1.67413 7.01758C1.23079 6.57425 1.05579 6.10175 1.18413 5.69341C1.31829 5.28508 1.73246 5.00508 2.35079 4.90008L4.17079 4.59675C4.43329 4.55008 4.75412 4.31675 4.87662 4.07758L5.87996 2.06508C6.17162 1.48758 6.56829 1.16675 6.99996 1.16675C7.43162 1.16675 7.82829 1.48758 8.11996 2.06508L9.12329 4.07758C9.19913 4.22925 9.35662 4.37508 9.52579 4.47425L3.24329 10.7567C3.16163 10.8384 3.02162 10.7626 3.04496 10.6459L3.34829 9.33341Z" fill="#FFC107"/>
<path d="M10.9083 8.4351C10.6983 8.6451 10.5816 9.0476 10.6516 9.33344L11.0541 11.0893C11.2233 11.8184 11.1183 12.3668 10.7566 12.6293C10.6108 12.7343 10.4358 12.7868 10.2316 12.7868C9.93413 12.7868 9.58413 12.6759 9.19913 12.4484L7.48997 11.4334C7.22163 11.2759 6.7783 11.2759 6.50997 11.4334L4.8008 12.4484C4.1533 12.8276 3.59913 12.8918 3.2433 12.6293C3.10913 12.5301 3.00997 12.3959 2.9458 12.2209L10.0391 5.1276C10.3075 4.85927 10.6866 4.73677 11.0541 4.80094L11.6433 4.9001C12.2616 5.0051 12.6758 5.2851 12.81 5.69344C12.9383 6.10177 12.7633 6.57427 12.32 7.0176L10.9083 8.4351Z" fill="#FFC107"/>
</svg>
