<svg width="30" height="30" viewBox="0 0 30 30" fill="none" xmlns="http://www.w3.org/2000/svg">
<path d="M23.9394 0H6.06153C4.93456 0 4.02734 0.911631 4.02734 2.03771V27.9632C4.02734 29.0857 4.93456 30 6.06153 30H23.9394C25.0628 30 25.9745 29.0866 25.9745 27.9632V2.03771C25.9762 0.911631 25.0637 0 23.9394 0ZM15.0013 29.2366C14.3324 29.2366 13.7914 28.6957 13.7914 28.0276C13.7914 27.3587 14.3324 26.8168 15.0013 26.8168C15.6685 26.8168 16.2113 27.3587 16.2113 28.0276C16.2113 28.6957 15.6685 29.2366 15.0013 29.2366ZM23.9156 25.7569H6.08712V2.44808H23.9156V25.7569Z" fill="#0396FF"/>
</svg>
