<svg width="24" height="24" viewBox="0 0 24 24" fill="none" xmlns="http://www.w3.org/2000/svg">
<path fill-rule="evenodd" clip-rule="evenodd" d="M1.05826 7.26286H13.5826C13.5186 7.5898 13.4863 7.92215 13.4863 8.2553C13.4863 9.46917 13.8946 10.598 14.5696 11.4999L11.2399 14.3926C10.9734 14.6254 10.6159 14.7444 10.2531 14.7444C9.88998 14.7444 9.5327 14.6254 9.26607 14.3926L1.05826 7.26286ZM18.8919 3.62109C21.4499 3.62109 23.5259 5.69147 23.5259 8.2553C23.5259 10.8135 21.4498 12.8895 18.8919 12.8895C16.3336 12.8895 14.2577 10.8135 14.2577 8.2553C14.2577 5.69147 16.3336 3.62109 18.8919 3.62109ZM20.032 13.5361V18.6015C20.032 19.5829 19.2321 20.3828 18.251 20.3828H2.25526C1.27398 20.3828 0.474243 19.5829 0.474243 18.6015V7.76761L7.47376 13.854L1.93749 18.6639C1.77882 18.8001 1.76181 19.0439 1.90356 19.2027C2.03973 19.3616 2.28362 19.3786 2.44248 19.2424L8.05791 14.3587L8.76137 14.9713C9.17551 15.3343 9.7142 15.5102 10.2531 15.5102C10.7918 15.5102 11.3308 15.3343 11.745 14.9713L12.4482 14.3587L18.0638 19.2424C18.2225 19.3786 18.4664 19.3616 18.6026 19.2027C18.7444 19.0439 18.7274 18.8001 18.5686 18.6639L13.0325 13.854L15.0744 12.0784C16.0501 13.054 17.4001 13.6554 18.8919 13.6554C19.2833 13.6553 19.6632 13.6157 20.032 13.5361ZM16.0048 9.24792C15.8515 9.10612 15.8402 8.86219 15.982 8.70923C16.1238 8.55047 16.3677 8.53903 16.5207 8.68069L18.2338 10.2351L21.2117 6.22477C21.3365 6.05466 21.5747 6.02063 21.745 6.14522C21.9151 6.27019 21.9492 6.50841 21.8243 6.67861L18.6081 11.0177C18.5969 11.0349 18.5855 11.0461 18.5741 11.0633C18.4323 11.2162 18.1884 11.2276 18.0295 11.0859L16.0048 9.24792Z" fill="#FEFEFE"/>
</svg>
