<svg width="20" height="20" viewBox="0 0 20 20" fill="none" xmlns="http://www.w3.org/2000/svg">
<g clip-path="url(#clip0_1717_124993)">
<path d="M19.4141 9.41406H11.2109C10.8871 9.41406 10.625 9.15199 10.625 8.82812V0.585938C10.625 0.26207 10.8871 0 11.2109 0C16.0575 0 20 3.98156 20 8.82812C20 9.15199 19.7379 9.41406 19.4141 9.41406Z" fill="#FE9923"/>
<path d="M12.3008 18.6875L9.45312 11.0664V2.96875C9.45312 2.64059 9.19535 2.38281 8.86719 2.38281C4.01562 2.38281 0 6.32031 0 11.1719C0 16.0234 4.01562 20 8.86719 20C9.06637 20 9.25395 19.9883 9.45312 19.9765C10.3086 19.9297 11.1406 19.7421 11.9492 19.4374C12.2539 19.332 12.4063 18.9922 12.3008 18.6875Z" fill="#FD003A"/>
<path d="M14.0914 19.4782C14.0084 19.4782 13.9261 19.4604 13.8494 19.4255C13.7793 19.3938 13.7161 19.3485 13.6635 19.2924C13.6108 19.2362 13.5698 19.1702 13.5427 19.0982L10.6622 11.3779C10.629 11.2892 10.6177 11.1938 10.6293 11.0998C10.641 11.0059 10.6752 10.9161 10.7291 10.8383C10.7831 10.7605 10.8552 10.6969 10.9391 10.6529C11.023 10.609 11.1162 10.586 11.2109 10.5859H19.4141C19.7379 10.5859 20 10.848 20 11.1719C20 14.8111 17.7083 18.1569 14.298 19.4404C14.232 19.4653 14.162 19.4781 14.0914 19.4782Z" fill="#1689FC"/>
<path d="M11.9492 19.4375C11.1406 19.7421 10.3086 19.9297 9.45312 19.9766V11.0664L12.3008 18.6875C12.4063 18.9922 12.2539 19.332 11.9492 19.4375Z" fill="#E50027"/>
</g>
<defs>
<clipPath id="clip0_1717_124993">
<rect width="20" height="20" fill="white"/>
</clipPath>
</defs>
</svg>
