<svg width="16" height="17" viewBox="0 0 16 17" fill="none" xmlns="http://www.w3.org/2000/svg">
<path d="M14.0466 3.98634C12.9733 3.87967 11.8999 3.79967 10.8199 3.73967V3.73301L10.6733 2.86634C10.5733 2.25301 10.4266 1.33301 8.86661 1.33301H7.11994C5.56661 1.33301 5.41994 2.21301 5.31328 2.85967L5.17328 3.71301C4.55328 3.75301 3.93328 3.79301 3.31328 3.85301L1.95328 3.98634C1.67328 4.01301 1.47328 4.25967 1.49994 4.53301C1.52661 4.80634 1.76661 5.00634 2.04661 4.97967L3.40661 4.84634C6.89994 4.49967 10.4199 4.63301 13.9533 4.98634C13.9733 4.98634 13.9866 4.98634 14.0066 4.98634C14.2599 4.98634 14.4799 4.79301 14.5066 4.53301C14.5266 4.25967 14.3266 4.01301 14.0466 3.98634Z" fill="#DC3545"/>
<path d="M12.8199 5.92699C12.6599 5.76033 12.4399 5.66699 12.2132 5.66699H3.78658C3.55991 5.66699 3.33325 5.76033 3.17991 5.92699C3.02658 6.09366 2.93991 6.32033 2.95325 6.55366L3.36658 13.3937C3.43991 14.407 3.53325 15.6737 5.85991 15.6737H10.1399C12.4666 15.6737 12.5599 14.4137 12.6332 13.3937L13.0466 6.56033C13.0599 6.32033 12.9732 6.09366 12.8199 5.92699ZM9.10658 12.3337H6.88658C6.61325 12.3337 6.38658 12.107 6.38658 11.8337C6.38658 11.5603 6.61325 11.3337 6.88658 11.3337H9.10658C9.37991 11.3337 9.60658 11.5603 9.60658 11.8337C9.60658 12.107 9.37991 12.3337 9.10658 12.3337ZM9.66658 9.66699H6.33325C6.05991 9.66699 5.83325 9.44033 5.83325 9.16699C5.83325 8.89366 6.05991 8.66699 6.33325 8.66699H9.66658C9.93991 8.66699 10.1666 8.89366 10.1666 9.16699C10.1666 9.44033 9.93991 9.66699 9.66658 9.66699Z" fill="#DC3545"/>
</svg>
