<svg width="30" height="23" viewBox="0 0 30 23" fill="none" xmlns="http://www.w3.org/2000/svg">
<path d="M13.6668 22.1673H7.66683C5.64461 22.1673 3.91683 21.4673 2.4835 20.0673C1.05016 18.6673 0.333496 16.9562 0.333496 14.934C0.333496 13.2007 0.855718 11.6562 1.90016 10.3007C2.94461 8.9451 4.31127 8.07843 6.00016 7.70065C6.55572 5.65621 7.66683 4.00065 9.3335 2.73398C11.0002 1.46732 12.8891 0.833984 15.0002 0.833984C17.6002 0.833984 19.8057 1.73954 21.6168 3.55065C23.4279 5.36176 24.3335 7.56732 24.3335 10.1673C25.8668 10.3451 27.1391 11.0062 28.1502 12.1507C29.1613 13.2951 29.6668 14.634 29.6668 16.1673C29.6668 17.834 29.0835 19.2507 27.9168 20.4173C26.7502 21.584 25.3335 22.1673 23.6668 22.1673H16.3335V12.634L18.4668 14.7007L20.3335 12.834L15.0002 7.50065L9.66683 12.834L11.5335 14.7007L13.6668 12.634V22.1673Z" fill="#0396FF"/>
</svg>
