<svg width="42" height="42" viewBox="0 0 42 42" fill="none" xmlns="http://www.w3.org/2000/svg">
<rect x="0.5" y="0.5" width="41" height="41" rx="7.5" fill="#FEFEFE" stroke="#E6E6E6"/>
<path d="M20.0834 28.3346H15.9584C14.5681 28.3346 13.3803 27.8534 12.3949 26.8909C11.4095 25.9284 10.9167 24.752 10.9167 23.3617C10.9167 22.1701 11.2758 21.1082 11.9938 20.1763C12.7119 19.2444 13.6515 18.6485 14.8126 18.3888C15.1945 16.9832 15.9584 15.8451 17.1042 14.9742C18.2501 14.1034 19.5487 13.668 21.0001 13.668C22.7876 13.668 24.3039 14.2905 25.549 15.5357C26.7942 16.7808 27.4167 18.2971 27.4167 20.0846C28.4709 20.2069 29.3456 20.6614 30.0407 21.4482C30.7358 22.235 31.0834 23.1555 31.0834 24.2096C31.0834 25.3555 30.6824 26.3294 29.8803 27.1315C29.0782 27.9336 28.1042 28.3346 26.9584 28.3346H21.9167V21.7805L23.3834 23.2013L24.6667 21.918L21.0001 18.2513L17.3334 21.918L18.6167 23.2013L20.0834 21.7805V28.3346Z" fill="#0396FF"/>
</svg>
