<svg width="14" height="15" viewBox="0 0 14 15" fill="none" xmlns="http://www.w3.org/2000/svg">
<path d="M7 0.5C3.1552 0.5 0 3.6552 0 7.5C0 11.3448 3.1552 14.5 7 14.5C10.8448 14.5 14 11.3448 14 7.5C14 3.6552 10.8448 0.5 7 0.5ZM7.82031 10.7812C7.82031 11.2335 7.45221 11.6016 7 11.6016C6.54779 11.6016 6.17969 11.2335 6.17969 10.7812V6.67969C6.17969 6.22748 6.54779 5.85938 7 5.85938C7.45221 5.85938 7.82031 6.22748 7.82031 6.67969V10.7812ZM7 5.03906C6.54779 5.03906 6.17969 4.67096 6.17969 4.21875C6.17969 3.76654 6.54779 3.39844 7 3.39844C7.45221 3.39844 7.82031 3.76654 7.82031 4.21875C7.82031 4.67096 7.45221 5.03906 7 5.03906Z" fill="#1F2933"/>
</svg>
