<svg width="24" height="24" viewBox="0 0 24 24" fill="none" xmlns="http://www.w3.org/2000/svg">
<g clip-path="url(#clip0_932_35932)">
<path d="M12 9.84375C10.959 9.84375 10.0073 10.4151 9.5164 11.3351C9.15658 12.0092 9.1166 12.7741 9.34226 13.5328C10.1635 13.8698 11.0588 14.0625 12 14.0625C12.9412 14.0625 13.8367 13.8698 14.6579 13.5328C14.8834 12.7742 14.8435 12.0094 14.4836 11.3352C13.9933 10.4151 13.0416 9.84375 12 9.84375Z" fill="white"/>
<path d="M12 7.03125C12.7767 7.03125 13.4062 6.40165 13.4062 5.625C13.4062 4.84835 12.7767 4.21875 12 4.21875C11.2233 4.21875 10.5938 4.84835 10.5938 5.625C10.5938 6.40165 11.2233 7.03125 12 7.03125Z" fill="white"/>
<path d="M7.78554 12.6239C7.79051 11.9517 7.94637 11.29 8.27562 10.6733C9.01099 9.29377 10.4385 8.4375 12 8.4375C10.4488 8.4375 9.18748 7.17614 9.18748 5.625C9.18748 4.07386 10.4488 2.8125 12 2.8125C13.5511 2.8125 14.8125 4.07386 14.8125 5.625C14.8125 7.17614 13.5511 8.4375 12 8.4375C13.5614 8.4375 14.989 9.29442 15.7243 10.6732C16.0537 11.2901 16.2094 11.9517 16.2143 12.624C17.9142 11.3393 19.0312 9.32114 19.0312 7.03125C19.0312 3.15445 15.8768 0 12 0C8.12318 0 4.96873 3.15445 4.96873 7.03125C4.96873 9.32114 6.08566 11.3392 7.78554 12.6239ZM23.9209 19.0788L21.028 18.6586L19.7344 16.0383L18.4407 18.6586L15.8672 19.0325L13.2936 18.6586L12 16.0383L10.7063 18.6586L8.13279 19.0325L5.55926 18.6586L4.2656 16.0383L2.97195 18.6586L0.0791016 19.0788L2.17273 21.1188L1.67834 24L4.2656 22.6397L6.85287 24L6.35848 21.1188L8.13279 19.3899L9.9071 21.1188L9.41271 24L12 22.6397L14.5872 24L14.0929 21.1188L15.8672 19.3899L17.6415 21.1188L17.1471 24L19.7344 22.6397L22.3216 24L21.8272 21.1188L23.9209 19.0788Z" fill="white"/>
</g>
<defs>
<clipPath id="clip0_932_35932">
<rect width="24" height="24" fill="white"/>
</clipPath>
</defs>
</svg>
