<svg width="24" height="24" viewBox="0 0 24 24" fill="none" xmlns="http://www.w3.org/2000/svg">
<path d="M8.415 15.57C7.81829 16.0366 7.33572 16.633 7.00391 17.314C6.6721 17.9949 6.49977 18.7425 6.5 19.5V21H3.5C2.67 21 2 20.33 2 19.5V18.5C2 16.565 3.565 15 5.5 15H6.5C7.21 15 7.865 15.21 8.415 15.57Z" fill="#FEFEFE"/>
<path d="M18 15C19.2426 15 20.25 13.9926 20.25 12.75C20.25 11.5074 19.2426 10.5 18 10.5C16.7574 10.5 15.75 11.5074 15.75 12.75C15.75 13.9926 16.7574 15 18 15Z" fill="#FEFEFE"/>
<path d="M6 15C7.24264 15 8.25 13.9926 8.25 12.75C8.25 11.5074 7.24264 10.5 6 10.5C4.75736 10.5 3.75 11.5074 3.75 12.75C3.75 13.9926 4.75736 15 6 15Z" fill="#FEFEFE"/>
<path d="M22 18.5V19.5C22 20.33 21.33 21 20.5 21H17.5V19.5C17.5 17.905 16.75 16.485 15.585 15.57C16.135 15.21 16.79 15 17.5 15H18.5C20.435 15 22 16.565 22 18.5Z" fill="#FEFEFE"/>
<path d="M12 15.5C13.5188 15.5 14.75 14.2688 14.75 12.75C14.75 11.2312 13.5188 10 12 10C10.4812 10 9.25 11.2312 9.25 12.75C9.25 14.2688 10.4812 15.5 12 15.5Z" fill="#FEFEFE"/>
<path d="M12.5 15.5006H11.5C9.29449 15.5006 7.49999 17.2951 7.49999 19.5006V21.0006C7.49999 21.8276 8.17299 22.5006 8.99999 22.5006H15C15.827 22.5006 16.5 21.8276 16.5 21.0006V19.5006C16.5 17.2951 14.7055 15.5006 12.5 15.5006ZM19.25 8.34261L18.0435 8.77161C17.9643 8.79975 17.8795 8.80818 17.7964 8.79618C17.7133 8.78417 17.6343 8.75208 17.5663 8.70269C17.4984 8.65331 17.4435 8.5881 17.4064 8.51273C17.3693 8.43736 17.3512 8.35408 17.3535 8.27011L17.3885 6.99011L16.6075 5.97511C16.5563 5.9085 16.5221 5.83044 16.5079 5.74767C16.4936 5.6649 16.4997 5.5799 16.5257 5.50001C16.5516 5.42012 16.5966 5.34775 16.6568 5.28914C16.7169 5.23053 16.7905 5.18745 16.871 5.16361L18.0995 4.80161L18.8235 3.74511C18.871 3.67581 18.9346 3.61912 19.0089 3.57996C19.0833 3.54079 19.166 3.52032 19.25 3.52032C19.334 3.52032 19.4167 3.54079 19.4911 3.57996C19.5654 3.61912 19.629 3.67581 19.6765 3.74511L20.4005 4.80161L21.629 5.16361C21.9775 5.26611 22.114 5.68711 21.8925 5.97511L21.1115 6.99011L21.1465 8.27011C21.1487 8.35404 21.1305 8.43725 21.0934 8.51256C21.0562 8.58787 21.0013 8.65302 20.9334 8.70238C20.8655 8.75175 20.7866 8.78384 20.7035 8.7959C20.6204 8.80796 20.5356 8.79963 20.4565 8.77161L19.25 8.34261ZM4.74999 8.34261L3.54349 8.77161C3.46435 8.79975 3.37953 8.80818 3.29639 8.79618C3.21325 8.78417 3.13429 8.75208 3.06634 8.70269C2.99838 8.65331 2.94349 8.5881 2.9064 8.51273C2.86932 8.43736 2.85116 8.35408 2.85349 8.27011L2.88849 6.99011L2.10749 5.97511C2.05632 5.9085 2.02213 5.83044 2.00788 5.74767C1.99362 5.6649 1.99972 5.5799 2.02566 5.50001C2.0516 5.42012 2.0966 5.34775 2.15676 5.28914C2.21693 5.23053 2.29046 5.18745 2.37099 5.16361L3.59949 4.80161L4.32349 3.74511C4.37097 3.67581 4.43462 3.61912 4.50894 3.57996C4.58325 3.54079 4.66599 3.52032 4.74999 3.52032C4.834 3.52032 4.91674 3.54079 4.99105 3.57996C5.06536 3.61912 5.12901 3.67581 5.17649 3.74511L5.90049 4.80161L7.12899 5.16361C7.47749 5.26611 7.61399 5.68711 7.39249 5.97511L6.61149 6.99011L6.64649 8.27011C6.64871 8.35404 6.63047 8.43725 6.59335 8.51256C6.55623 8.58787 6.50134 8.65302 6.43343 8.70238C6.36551 8.75175 6.2866 8.78384 6.20351 8.7959C6.12042 8.80796 6.03564 8.79963 5.95649 8.77161L4.74999 8.34261ZM12 7.21761L10.5695 7.72611C10.4757 7.75945 10.3751 7.76943 10.2766 7.75518C10.178 7.74094 10.0844 7.7029 10.0039 7.64436C9.92333 7.58582 9.85825 7.50854 9.81427 7.4192C9.7703 7.32986 9.74875 7.23115 9.75149 7.13161L9.79299 5.61411L8.86699 4.41061C8.80634 4.33164 8.76582 4.2391 8.74893 4.14096C8.73204 4.04283 8.73929 3.94207 8.77005 3.84736C8.80082 3.75266 8.85417 3.66687 8.9255 3.5974C8.99684 3.52792 9.08401 3.47686 9.17949 3.44861L10.636 3.01911L11.4945 1.76661C11.5508 1.68442 11.6263 1.61719 11.7144 1.57073C11.8025 1.52428 11.9006 1.5 12.0002 1.5C12.0999 1.5 12.198 1.52428 12.2861 1.57073C12.3742 1.61719 12.4497 1.68442 12.506 1.76661L13.3645 3.01911L14.821 3.44861C14.9165 3.47686 15.0036 3.52792 15.075 3.5974C15.1463 3.66687 15.1997 3.75266 15.2304 3.84736C15.2612 3.94207 15.2684 4.04283 15.2516 4.14096C15.2347 4.2391 15.1941 4.33164 15.1335 4.41061L14.2075 5.61411L14.249 7.13161C14.2517 7.23115 14.2302 7.32986 14.1862 7.4192C14.1422 7.50854 14.0772 7.58582 13.9966 7.64436C13.9161 7.7029 13.8225 7.74094 13.7239 7.75518C13.6254 7.76943 13.5248 7.75945 13.431 7.72611L12 7.21761Z" fill="#FEFEFE"/>
</svg>
