<svg width="24" height="24" viewBox="0 0 24 24" fill="none" xmlns="http://www.w3.org/2000/svg">
<path d="M14.5061 10.5711C13.7954 10.9336 12.9961 11.1445 12.1504 11.1716C12.8978 13.4714 12.4546 12.1083 13.7107 15.9732H17.4966C18.5666 12.6816 18.3918 13.2191 18.8006 11.9598C17.6938 11.3329 16.2118 10.8282 14.5061 10.5711ZM9.44816 10.5703C7.76085 10.8242 6.29394 11.3209 5.19116 11.9382C5.60081 13.1975 5.41954 12.6393 6.50236 15.9732H10.2882C11.5323 12.145 11.0939 13.4938 11.8478 11.174C10.9861 11.1532 10.1724 10.94 9.44816 10.5703Z" fill="#FEFEFE"/>
<path d="M11.978 9.58302C14.1831 9.58302 15.9707 7.79543 15.9707 5.59034C15.9707 3.38524 14.1831 1.59766 11.978 1.59766C9.77294 1.59766 7.98535 3.38524 7.98535 5.59034C7.98535 7.79543 9.77294 9.58302 11.978 9.58302Z" fill="#FEFEFE"/>
<path d="M24 16.7699H20.3395L19.208 13.2891L18.0773 16.7699H13.1311L11.9996 13.2891L10.8689 16.7699H5.92274L4.79122 13.2891L3.66049 16.7699H0L2.96097 18.9211L1.83024 22.402L4.79122 20.2507L7.75219 22.402L6.62146 18.9211L8.39581 17.6323L10.1702 18.9211L9.03943 22.402L12.0004 20.2507L14.9614 22.402L13.8306 18.9211L15.605 17.6323L17.3785 18.9211L16.2478 22.402L19.2088 20.2507L22.1698 22.402L21.039 18.9211L24 16.7699ZM19.2088 19.2637C18.7736 19.5799 18.9652 19.4402 17.7666 20.3114C18.1675 19.0769 18.0805 19.3468 18.3176 18.6161C17.884 18.3007 18.0669 18.4332 16.8755 17.5684H18.6586C18.8558 16.9615 18.7576 17.2626 19.2096 15.8731C19.6512 17.2314 19.5593 16.9488 19.7606 17.5684H21.5437C20.3882 18.4077 20.6286 18.2336 20.1015 18.6161C20.3379 19.3436 20.2557 19.0888 20.6525 20.3114C19.6424 19.5791 19.8596 19.7364 19.2088 19.2637Z" fill="#FEFEFE"/>
</svg>
