<svg width="22" height="22" viewBox="0 0 22 22" fill="none" xmlns="http://www.w3.org/2000/svg">
<path d="M17.8841 5.3612L12.4391 2.21703C11.55 1.7037 10.45 1.7037 9.55164 2.21703L4.1158 5.3612C3.22664 5.87453 2.67664 6.82786 2.67664 7.8637V14.1337C2.67664 15.1604 3.22664 16.1137 4.1158 16.6362L9.5608 19.7804C10.45 20.2937 11.55 20.2937 12.4483 19.7804L17.8933 16.6362C18.7825 16.1229 19.3325 15.1695 19.3325 14.1337V7.8637C19.3233 6.82786 18.7733 5.8837 17.8841 5.3612ZM10.3125 7.10286C10.3125 6.72703 10.6241 6.41536 11 6.41536C11.3758 6.41536 11.6875 6.72703 11.6875 7.10286V11.9154C11.6875 12.2912 11.3758 12.6029 11 12.6029C10.6241 12.6029 10.3125 12.2912 10.3125 11.9154V7.10286ZM11.8433 15.2429C11.7975 15.3529 11.7333 15.4537 11.6508 15.5454C11.4766 15.7195 11.2475 15.8112 11 15.8112C10.8808 15.8112 10.7616 15.7837 10.6516 15.7379C10.5325 15.692 10.4408 15.6279 10.3491 15.5454C10.2666 15.4537 10.2025 15.3529 10.1475 15.2429C10.1016 15.1329 10.0833 15.0137 10.0833 14.8945C10.0833 14.6562 10.175 14.4179 10.3491 14.2437C10.4408 14.1612 10.5325 14.097 10.6516 14.0512C10.9908 13.9045 11.3941 13.987 11.6508 14.2437C11.7333 14.3354 11.7975 14.427 11.8433 14.5462C11.8891 14.6562 11.9166 14.7754 11.9166 14.8945C11.9166 15.0137 11.8891 15.1329 11.8433 15.2429Z" fill="#FFC107"/>
</svg>
