<svg width="22" height="23" viewBox="0 0 22 23" fill="none" xmlns="http://www.w3.org/2000/svg">
<path d="M17.8843 5.8612L12.4393 2.71703C11.5501 2.2037 10.4501 2.2037 9.55176 2.71703L4.11592 5.8612C3.22676 6.37453 2.67676 7.32786 2.67676 8.3637V14.6337C2.67676 15.6604 3.22676 16.6137 4.11592 17.1362L9.56092 20.2804C10.4501 20.7937 11.5501 20.7937 12.4484 20.2804L17.8934 17.1362C18.7826 16.6229 19.3326 15.6695 19.3326 14.6337V8.3637C19.3234 7.32786 18.7734 6.3837 17.8843 5.8612ZM10.3126 7.60286C10.3126 7.22703 10.6243 6.91536 11.0001 6.91536C11.3759 6.91536 11.6876 7.22703 11.6876 7.60286V12.4154C11.6876 12.7912 11.3759 13.1029 11.0001 13.1029C10.6243 13.1029 10.3126 12.7912 10.3126 12.4154V7.60286ZM11.8434 15.7429C11.7976 15.8529 11.7334 15.9537 11.6509 16.0454C11.4768 16.2195 11.2476 16.3112 11.0001 16.3112C10.8809 16.3112 10.7618 16.2837 10.6518 16.2379C10.5326 16.192 10.4409 16.1279 10.3493 16.0454C10.2668 15.9537 10.2026 15.8529 10.1476 15.7429C10.1018 15.6329 10.0834 15.5137 10.0834 15.3945C10.0834 15.1562 10.1751 14.9179 10.3493 14.7437C10.4409 14.6612 10.5326 14.597 10.6518 14.5512C10.9909 14.4045 11.3943 14.487 11.6509 14.7437C11.7334 14.8354 11.7976 14.927 11.8434 15.0462C11.8893 15.1562 11.9168 15.2754 11.9168 15.3945C11.9168 15.5137 11.8893 15.6329 11.8434 15.7429Z" fill="#FFC107"/>
</svg>
