<svg width="22" height="23" viewBox="0 0 22 23" fill="none" xmlns="http://www.w3.org/2000/svg">
<path d="M17.8843 5.86217L12.4393 2.71801C11.5501 2.20467 10.4501 2.20467 9.55176 2.71801L4.11592 5.86217C3.22676 6.37551 2.67676 7.32884 2.67676 8.36467V14.6347C2.67676 15.6613 3.22676 16.6147 4.11592 17.1372L9.56093 20.2813C10.4501 20.7947 11.5501 20.7947 12.4484 20.2813L17.8934 17.1372C18.7826 16.6238 19.3326 15.6705 19.3326 14.6347V8.36467C19.3234 7.32884 18.7734 6.38467 17.8843 5.86217ZM10.3126 7.60384C10.3126 7.22801 10.6243 6.91634 11.0001 6.91634C11.3759 6.91634 11.6876 7.22801 11.6876 7.60384V12.4163C11.6876 12.7922 11.3759 13.1038 11.0001 13.1038C10.6243 13.1038 10.3126 12.7922 10.3126 12.4163V7.60384ZM11.8434 15.7438C11.7976 15.8538 11.7334 15.9547 11.6509 16.0463C11.4768 16.2205 11.2476 16.3122 11.0001 16.3122C10.8809 16.3122 10.7618 16.2847 10.6518 16.2388C10.5326 16.193 10.4409 16.1288 10.3493 16.0463C10.2668 15.9547 10.2026 15.8538 10.1476 15.7438C10.1018 15.6338 10.0834 15.5147 10.0834 15.3955C10.0834 15.1572 10.1751 14.9188 10.3493 14.7447C10.4409 14.6622 10.5326 14.598 10.6518 14.5522C10.9909 14.4055 11.3943 14.488 11.6509 14.7447C11.7334 14.8363 11.7976 14.928 11.8434 15.0472C11.8893 15.1572 11.9168 15.2763 11.9168 15.3955C11.9168 15.5147 11.8893 15.6338 11.8434 15.7438Z" fill="#DC3545"/>
</svg>
