<svg width="30" height="30" viewBox="0 0 30 30" fill="none" xmlns="http://www.w3.org/2000/svg">
<g clip-path="url(#clip0_5606_78542)">
<path d="M29.2654 2.73455C28.7759 2.24501 28.1876 2 27.4999 2H2.5C1.81251 2 1.22414 2.24501 0.734277 2.73455C0.244686 3.22425 0 3.81257 0 4.50011V21.5002C0 22.1879 0.244686 22.7762 0.734277 23.266C1.22414 23.7555 1.81251 24.0001 2.5 24.0001H11.0001C11.0001 24.3959 10.9167 24.8025 10.75 25.2188C10.5834 25.6355 10.4167 26 10.25 26.3124C10.0836 26.6251 10.0002 26.854 10.0002 26.9997C10.0002 27.2705 10.0991 27.5054 10.2971 27.7028C10.4949 27.901 10.7293 28.0003 11.0001 28.0003H19.0001C19.271 28.0003 19.5054 27.901 19.7033 27.7028C19.9014 27.5055 20.0003 27.2706 20.0003 26.9997C20.0003 26.8647 19.9168 26.6379 19.7501 26.3203C19.5834 26.0028 19.4167 25.6326 19.2502 25.2111C19.0835 24.7892 19.0002 24.3856 19.0002 24.0001H27.5003C28.1877 24.0001 28.776 23.7555 29.2655 23.266C29.7553 22.7763 30.0001 22.188 30.0001 21.5002V4.50011C30.0002 3.81257 29.7552 3.22425 29.2654 2.73455ZM28 17.5002C28 17.6356 27.9506 17.7526 27.8516 17.8517C27.7526 17.9505 27.6353 17.9999 27.4999 17.9999H2.5C2.36466 17.9999 2.24743 17.9505 2.14849 17.8517C2.04959 17.7523 2.00007 17.6356 2.00007 17.5002V4.50011C2.00007 4.36466 2.04943 4.24754 2.14849 4.1486C2.24749 4.04981 2.36471 4.00018 2.5 4.00018H27.5003C27.6355 4.00018 27.7529 4.04965 27.8516 4.1486C27.9506 4.2476 28 4.36471 28 4.50011V17.5002Z" fill="#0396FF"/>
</g>
<defs>
<clipPath id="clip0_5606_78542">
<rect width="30" height="30" fill="white"/>
</clipPath>
</defs>
</svg>
