<svg width="42" height="41" viewBox="0 0 42 41" fill="none" xmlns="http://www.w3.org/2000/svg">
<rect x="0.5" width="41" height="41" rx="9" fill="#2AA3EF"/>
<path fill-rule="evenodd" clip-rule="evenodd" d="M31.2565 14.1388C30.5022 14.4733 29.6901 14.6995 28.8393 14.8019C29.7082 14.2805 30.3755 13.4566 30.6893 12.4744C29.8759 12.9565 28.9757 13.3066 28.0163 13.4947C27.2488 12.6768 26.1554 12.166 24.945 12.166C22.6208 12.166 20.7358 14.0495 20.7358 16.3735C20.7358 16.7044 20.7744 17.0247 20.8456 17.3331C17.3484 17.158 14.2481 15.4817 12.1725 12.9363C11.8092 13.5578 11.6029 14.2805 11.6029 15.0519C11.6029 16.5116 12.3463 17.7998 13.4746 18.5534C12.7843 18.5319 12.1351 18.3426 11.5691 18.0271C11.5691 18.045 11.5691 18.0629 11.5691 18.0807C11.5691 20.119 13.0184 21.8191 14.9444 22.206C14.5909 22.3025 14.2204 22.3536 13.8354 22.3536C13.5651 22.3536 13.3008 22.3275 13.0438 22.2775C13.5796 23.949 15.1339 25.1658 16.9755 25.2003C15.5346 26.3277 13.7196 27.0004 11.7477 27.0004C11.4086 27.0004 11.0731 26.9814 10.7437 26.9421C12.6057 28.1362 14.8177 28.8327 17.1951 28.8327C24.9354 28.8327 29.1687 22.4215 29.1687 16.8616C29.1687 16.6782 29.1639 16.4985 29.1567 16.3175C29.9785 15.7246 30.6929 14.9829 31.2565 14.14V14.1388Z" fill="white"/>
</svg>
