<svg width="20" height="20" viewBox="0 0 20 20" fill="none" xmlns="http://www.w3.org/2000/svg">
<path d="M18.3333 17.707H1.66663C1.32496 17.707 1.04163 17.9904 1.04163 18.332C1.04163 18.6737 1.32496 18.957 1.66663 18.957H18.3333C18.675 18.957 18.9583 18.6737 18.9583 18.332C18.9583 17.9904 18.675 17.707 18.3333 17.707Z" fill="#ADADAD"/>
<path d="M14.1667 1.66797H5.83333C3.33333 1.66797 2.5 3.15964 2.5 5.0013V18.3346H17.5V5.0013C17.5 3.15964 16.6667 1.66797 14.1667 1.66797ZM8.33333 14.3763H5.83333C5.49167 14.3763 5.20833 14.093 5.20833 13.7513C5.20833 13.4096 5.49167 13.1263 5.83333 13.1263H8.33333C8.675 13.1263 8.95833 13.4096 8.95833 13.7513C8.95833 14.093 8.675 14.3763 8.33333 14.3763ZM8.33333 10.6263H5.83333C5.49167 10.6263 5.20833 10.343 5.20833 10.0013C5.20833 9.65964 5.49167 9.3763 5.83333 9.3763H8.33333C8.675 9.3763 8.95833 9.65964 8.95833 10.0013C8.95833 10.343 8.675 10.6263 8.33333 10.6263ZM8.33333 6.8763H5.83333C5.49167 6.8763 5.20833 6.59297 5.20833 6.2513C5.20833 5.90964 5.49167 5.6263 5.83333 5.6263H8.33333C8.675 5.6263 8.95833 5.90964 8.95833 6.2513C8.95833 6.59297 8.675 6.8763 8.33333 6.8763ZM14.1667 14.3763H11.6667C11.325 14.3763 11.0417 14.093 11.0417 13.7513C11.0417 13.4096 11.325 13.1263 11.6667 13.1263H14.1667C14.5083 13.1263 14.7917 13.4096 14.7917 13.7513C14.7917 14.093 14.5083 14.3763 14.1667 14.3763ZM14.1667 10.6263H11.6667C11.325 10.6263 11.0417 10.343 11.0417 10.0013C11.0417 9.65964 11.325 9.3763 11.6667 9.3763H14.1667C14.5083 9.3763 14.7917 9.65964 14.7917 10.0013C14.7917 10.343 14.5083 10.6263 14.1667 10.6263ZM14.1667 6.8763H11.6667C11.325 6.8763 11.0417 6.59297 11.0417 6.2513C11.0417 5.90964 11.325 5.6263 11.6667 5.6263H14.1667C14.5083 5.6263 14.7917 5.90964 14.7917 6.2513C14.7917 6.59297 14.5083 6.8763 14.1667 6.8763Z" fill="#ADADAD"/>
</svg>
