<svg width="20" height="20" viewBox="0 0 20 20" fill="none" xmlns="http://www.w3.org/2000/svg">
<path d="M17.0834 13.957H15.2084V12.082C15.2084 11.7404 14.925 11.457 14.5834 11.457C14.2417 11.457 13.9584 11.7404 13.9584 12.082V13.957H12.0834C11.7417 13.957 11.4584 14.2404 11.4584 14.582C11.4584 14.9237 11.7417 15.207 12.0834 15.207H13.9584V17.082C13.9584 17.4237 14.2417 17.707 14.5834 17.707C14.925 17.707 15.2084 17.4237 15.2084 17.082V15.207H17.0834C17.425 15.207 17.7084 14.9237 17.7084 14.582C17.7084 14.2404 17.425 13.957 17.0834 13.957Z" fill="#0396FF"/>
<path d="M18.3333 7.1013V3.31797C18.3333 2.14297 17.8 1.66797 16.475 1.66797H13.1083C11.7833 1.66797 11.25 2.14297 11.25 3.31797V7.09297C11.25 8.2763 11.7833 8.74297 13.1083 8.74297H16.475C17.8 8.7513 18.3333 8.2763 18.3333 7.1013Z" fill="#0396FF"/>
<path d="M8.74996 7.1013V3.31797C8.74996 2.14297 8.21663 1.66797 6.89163 1.66797H3.52496C2.19996 1.66797 1.66663 2.14297 1.66663 3.31797V7.09297C1.66663 8.2763 2.19996 8.74297 3.52496 8.74297H6.89163C8.21663 8.7513 8.74996 8.2763 8.74996 7.1013Z" fill="#0396FF"/>
<path d="M8.74996 16.475V13.1083C8.74996 11.7833 8.21663 11.25 6.89163 11.25H3.52496C2.19996 11.25 1.66663 11.7833 1.66663 13.1083V16.475C1.66663 17.8 2.19996 18.3333 3.52496 18.3333H6.89163C8.21663 18.3333 8.74996 17.8 8.74996 16.475Z" fill="#0396FF"/>
</svg>
