<svg width="20" height="20" viewBox="0 0 20 20" fill="none" xmlns="http://www.w3.org/2000/svg">
<path d="M16.2333 2.35026L16.4666 2.82526C16.5833 3.0586 16.875 3.27526 17.1333 3.32526L17.45 3.37526C18.4 3.5336 18.625 4.2336 17.9416 4.92526L17.65 5.21693C17.4583 5.41693 17.35 5.80026 17.4083 6.06693L17.45 6.24193C17.7083 7.39193 17.1 7.8336 16.1 7.2336L15.8833 7.1086C15.625 6.9586 15.2083 6.9586 14.95 7.1086L14.7333 7.2336C13.725 7.84193 13.1166 7.39193 13.3833 6.24193L13.425 6.06693C13.4833 5.80026 13.375 5.41693 13.1833 5.21693L12.8916 4.91693C12.2083 4.22526 12.4333 3.52526 13.3833 3.36693L13.7 3.31693C13.95 3.27526 14.25 3.05026 14.3666 2.81693L14.6 2.34193C15.05 1.44193 15.7833 1.44193 16.2333 2.35026Z" fill="#ADADAD"/>
<path d="M17.975 8.40964C17.675 8.6263 16.8333 9.0263 15.6333 8.40964C15.5 8.34297 15.3333 8.33464 15.2 8.40964C14.725 8.6513 14.2916 8.7513 13.95 8.7513C13.4166 8.7513 13.0416 8.54297 12.8583 8.40964C12.55 8.18464 11.9 7.54297 12.125 6.18464C12.15 6.04297 12.1083 5.9013 12.0166 5.79297C11.4416 5.13464 11.125 4.2513 11.35 3.55964C11.4333 3.28464 11.2583 2.91797 10.975 2.91797H5.83329C3.33329 2.91797 1.66663 4.16797 1.66663 7.08464V12.918C1.66663 15.8346 3.33329 17.0846 5.83329 17.0846H14.1666C16.6666 17.0846 18.3333 15.8346 18.3333 12.918V8.55964C18.3333 8.4013 18.1083 8.31797 17.975 8.40964ZM11.95 10.0763C11.4 10.518 10.7 10.7346 9.99996 10.7346C9.29996 10.7346 8.59163 10.518 8.04996 10.0763L5.44163 7.99297C5.17496 7.7763 5.13329 7.3763 5.34163 7.10964C5.55829 6.84297 5.94996 6.79297 6.21663 7.00964L8.82496 9.09297C9.45829 9.6013 10.5333 9.6013 11.1666 9.09297C11.4333 8.8763 11.825 8.91797 12.0416 9.19297C12.2666 9.45964 12.225 9.85964 11.95 10.0763Z" fill="#ADADAD"/>
</svg>
