<svg width="20" height="20" viewBox="0 0 20 20" fill="none" xmlns="http://www.w3.org/2000/svg">
<path d="M16.1167 12.0763L15.2833 10.693C15.1083 10.3846 14.95 9.8013 14.95 9.45964V7.3513C14.95 5.39297 13.8 3.7013 12.1417 2.90964C11.7083 2.14297 10.9083 1.66797 9.99166 1.66797C9.08333 1.66797 8.26666 2.15964 7.83333 2.93464C6.20833 3.74297 5.08333 5.41797 5.08333 7.3513V9.45964C5.08333 9.8013 4.92499 10.3846 4.74999 10.6846L3.90833 12.0763C3.57499 12.6346 3.49999 13.2513 3.70833 13.818C3.90833 14.3763 4.38333 14.8096 4.99999 15.018C6.61666 15.568 8.31666 15.8346 10.0167 15.8346C11.7167 15.8346 13.4167 15.568 15.0333 15.0263C15.6167 14.8346 16.0667 14.393 16.2833 13.818C16.5 13.243 16.4417 12.6096 16.1167 12.0763Z" fill="#ADADAD"/>
<path d="M12.3584 16.6763C12.0084 17.643 11.0834 18.3346 10 18.3346C9.34169 18.3346 8.69169 18.068 8.23336 17.593C7.96669 17.343 7.76669 17.0096 7.65002 16.668C7.75836 16.6846 7.86669 16.693 7.98336 16.7096C8.17502 16.7346 8.37502 16.7596 8.57502 16.7763C9.05002 16.818 9.53336 16.843 10.0167 16.843C10.4917 16.843 10.9667 16.818 11.4334 16.7763C11.6084 16.7596 11.7834 16.7513 11.95 16.7263C12.0834 16.7096 12.2167 16.693 12.3584 16.6763Z" fill="#ADADAD"/>
</svg>
