<svg width="20" height="20" viewBox="0 0 20 20" fill="none" xmlns="http://www.w3.org/2000/svg">
<path d="M13.4917 1.66675H6.50841C3.47508 1.66675 1.66675 3.47508 1.66675 6.50841V13.4834C1.66675 16.5251 3.47508 18.3334 6.50841 18.3334H13.4834C16.5167 18.3334 18.3251 16.5251 18.3251 13.4917V6.50841C18.3334 3.47508 16.5251 1.66675 13.4917 1.66675ZM13.1251 13.1251H6.87508C6.53341 13.1251 6.25008 12.8417 6.25008 12.5001C6.25008 12.1584 6.53341 11.8751 6.87508 11.8751H13.1251C13.4667 11.8751 13.7501 12.1584 13.7501 12.5001C13.7501 12.8417 13.4667 13.1251 13.1251 13.1251ZM13.1251 8.12508H6.87508C6.53341 8.12508 6.25008 7.84175 6.25008 7.50008C6.25008 7.15841 6.53341 6.87508 6.87508 6.87508H13.1251C13.4667 6.87508 13.7501 7.15841 13.7501 7.50008C13.7501 7.84175 13.4667 8.12508 13.1251 8.12508Z" fill="#0396FF"/>
</svg>
