<svg width="20" height="20" viewBox="0 0 20 20" fill="none" xmlns="http://www.w3.org/2000/svg">
<path d="M18.0583 5.79175C17.525 3.98342 16.0167 2.47508 14.2083 1.94175C12.8333 1.54175 11.8833 1.57508 11.225 2.06675C10.4333 2.65842 10.3417 3.72508 10.3417 4.48342V6.55842C10.3417 8.60842 11.275 9.65008 13.1083 9.65008H15.5C16.25 9.65008 17.325 9.55842 17.9167 8.76675C18.425 8.11675 18.4667 7.16675 18.0583 5.79175Z" fill="#ADADAD"/>
<path d="M15.7583 11.1332C15.5416 10.8832 15.225 10.7415 14.9 10.7415H11.9166C10.45 10.7415 9.25831 9.54988 9.25831 8.08321V5.09988C9.25831 4.77488 9.11664 4.45821 8.86664 4.24155C8.62498 4.02488 8.29164 3.92488 7.97498 3.96655C6.01664 4.21655 4.21664 5.29155 3.04164 6.90821C1.85831 8.53321 1.42498 10.5165 1.79998 12.4999C2.34164 15.3665 4.63331 17.6582 7.50831 18.1999C7.96664 18.2915 8.42498 18.3332 8.88331 18.3332C10.3916 18.3332 11.85 17.8665 13.0916 16.9582C14.7083 15.7832 15.7833 13.9832 16.0333 12.0249C16.075 11.6999 15.975 11.3749 15.7583 11.1332Z" fill="#ADADAD"/>
</svg>
