<svg width="20" height="20" viewBox="0 0 20 20" fill="none" xmlns="http://www.w3.org/2000/svg">
<path d="M7.50008 1.66663C5.31675 1.66663 3.54175 3.44163 3.54175 5.62496C3.54175 7.76663 5.21675 9.49996 7.40008 9.57496C7.46675 9.56663 7.53341 9.56663 7.58341 9.57496C7.60008 9.57496 7.60841 9.57496 7.62508 9.57496C7.63341 9.57496 7.63341 9.57496 7.64175 9.57496C9.77508 9.49996 11.4501 7.76663 11.4584 5.62496C11.4584 3.44163 9.68341 1.66663 7.50008 1.66663Z" fill="#ADADAD"/>
<path d="M11.7333 11.7917C9.4083 10.2417 5.61663 10.2417 3.27497 11.7917C2.21663 12.5 1.6333 13.4583 1.6333 14.4833C1.6333 15.5083 2.21663 16.4583 3.26663 17.1583C4.4333 17.9417 5.96663 18.3333 7.49997 18.3333C9.0333 18.3333 10.5666 17.9417 11.7333 17.1583C12.7833 16.45 13.3666 15.5 13.3666 14.4667C13.3583 13.4417 12.7833 12.4917 11.7333 11.7917Z" fill="#ADADAD"/>
<path d="M16.6583 6.11671C16.7916 7.73338 15.6416 9.15004 14.05 9.34171C14.0416 9.34171 14.0416 9.34171 14.0333 9.34171H14.0083C13.9583 9.34171 13.9083 9.34171 13.8666 9.35838C13.0583 9.40004 12.3166 9.14171 11.7583 8.66671C12.6166 7.90004 13.1083 6.75004 13.0083 5.50004C12.95 4.82504 12.7166 4.20838 12.3666 3.68338C12.6833 3.52504 13.05 3.42504 13.425 3.39171C15.0583 3.25004 16.5166 4.46671 16.6583 6.11671Z" fill="#ADADAD"/>
<path d="M18.3251 13.825C18.2584 14.6334 17.7418 15.3334 16.8751 15.8084C16.0418 16.2667 14.9918 16.4834 13.9501 16.4584C14.5501 15.9167 14.9001 15.2417 14.9668 14.525C15.0501 13.4917 14.5584 12.5 13.5751 11.7084C13.0168 11.2667 12.3668 10.9167 11.6584 10.6584C13.5001 10.125 15.8168 10.4834 17.2418 11.6334C18.0084 12.25 18.4001 13.025 18.3251 13.825Z" fill="#ADADAD"/>
</svg>
