<svg width="20" height="20" viewBox="0 0 20 20" fill="none" xmlns="http://www.w3.org/2000/svg">
<path d="M1.66675 9.55008V13.7167C1.66675 15.6251 3.20841 17.1667 5.11675 17.1667H14.8751C16.7834 17.1667 18.3334 15.6167 18.3334 13.7084V9.55008C18.3334 8.99175 17.8834 8.54175 17.3251 8.54175H2.67508C2.11675 8.54175 1.66675 8.99175 1.66675 9.55008ZM6.66675 14.3751H5.00008C4.65841 14.3751 4.37508 14.0917 4.37508 13.7501C4.37508 13.4084 4.65841 13.1251 5.00008 13.1251H6.66675C7.00841 13.1251 7.29175 13.4084 7.29175 13.7501C7.29175 14.0917 7.00841 14.3751 6.66675 14.3751ZM12.0834 14.3751H8.75008C8.40841 14.3751 8.12508 14.0917 8.12508 13.7501C8.12508 13.4084 8.40841 13.1251 8.75008 13.1251H12.0834C12.4251 13.1251 12.7084 13.4084 12.7084 13.7501C12.7084 14.0917 12.4251 14.3751 12.0834 14.3751Z" fill="#ADADAD"/>
<path d="M11.2501 3.84159V6.28325C11.2501 6.84159 10.8001 7.29158 10.2417 7.29158H2.67508C2.10841 7.29158 1.66675 6.82492 1.66675 6.26659C1.67508 5.32492 2.05008 4.46659 2.67508 3.84159C3.30008 3.21659 4.16675 2.83325 5.11675 2.83325H10.2417C10.8001 2.83325 11.2501 3.28325 11.2501 3.84159Z" fill="#ADADAD"/>
<path d="M16.6417 1.66675H14.1917C13.1333 1.66675 12.5 2.30008 12.5 3.35842V5.80841C12.5 6.86675 13.1333 7.50008 14.1917 7.50008H16.6417C17.7 7.50008 18.3333 6.86675 18.3333 5.80841V3.35842C18.3333 2.30008 17.7 1.66675 16.6417 1.66675ZM17.1917 3.70841L15.2167 6.01675C15.1417 6.10841 15.025 6.16675 14.9083 6.16675C14.9 6.16675 14.9 6.16675 14.8917 6.16675C14.775 6.16675 14.6667 6.12508 14.5833 6.04175L13.6667 5.14175C13.5 4.97508 13.5 4.70008 13.6667 4.53341C13.8333 4.36675 14.1083 4.35841 14.275 4.53341L14.8583 5.10841L16.525 3.15841C16.6833 2.97508 16.95 2.95841 17.1333 3.10841C17.325 3.25841 17.3417 3.53341 17.1917 3.70841Z" fill="#ADADAD"/>
</svg>
