<svg width="20" height="20" viewBox="0 0 20 20" fill="none" xmlns="http://www.w3.org/2000/svg">
<path d="M1.6665 9.55008V13.7167C1.6665 15.6251 3.20817 17.1667 5.1165 17.1667H14.8748C16.7832 17.1667 18.3332 15.6167 18.3332 13.7084V9.55008C18.3332 8.99175 17.8832 8.54175 17.3248 8.54175H2.67484C2.1165 8.54175 1.6665 8.99175 1.6665 9.55008ZM6.6665 14.3751H4.99984C4.65817 14.3751 4.37484 14.0917 4.37484 13.7501C4.37484 13.4084 4.65817 13.1251 4.99984 13.1251H6.6665C7.00817 13.1251 7.2915 13.4084 7.2915 13.7501C7.2915 14.0917 7.00817 14.3751 6.6665 14.3751ZM12.0832 14.3751H8.74984C8.40817 14.3751 8.12484 14.0917 8.12484 13.7501C8.12484 13.4084 8.40817 13.1251 8.74984 13.1251H12.0832C12.4248 13.1251 12.7082 13.4084 12.7082 13.7501C12.7082 14.0917 12.4248 14.3751 12.0832 14.3751Z" fill="#0396FF"/>
<path d="M11.2498 3.84159V6.28325C11.2498 6.84159 10.7998 7.29158 10.2415 7.29158H2.67484C2.10817 7.29158 1.6665 6.82492 1.6665 6.26659C1.67484 5.32492 2.04984 4.46659 2.67484 3.84159C3.29984 3.21659 4.1665 2.83325 5.1165 2.83325H10.2415C10.7998 2.83325 11.2498 3.28325 11.2498 3.84159Z" fill="#0396FF"/>
<path d="M16.6417 1.66675H14.1917C13.1333 1.66675 12.5 2.30008 12.5 3.35842V5.80841C12.5 6.86675 13.1333 7.50008 14.1917 7.50008H16.6417C17.7 7.50008 18.3333 6.86675 18.3333 5.80841V3.35842C18.3333 2.30008 17.7 1.66675 16.6417 1.66675ZM17.1917 3.70841L15.2167 6.01675C15.1417 6.10841 15.025 6.16675 14.9083 6.16675C14.9 6.16675 14.9 6.16675 14.8917 6.16675C14.775 6.16675 14.6667 6.12508 14.5833 6.04175L13.6667 5.14175C13.5 4.97508 13.5 4.70008 13.6667 4.53341C13.8333 4.36675 14.1083 4.35841 14.275 4.53341L14.8583 5.10841L16.525 3.15841C16.6833 2.97508 16.95 2.95841 17.1333 3.10841C17.325 3.25841 17.3417 3.53341 17.1917 3.70841Z" fill="#0396FF"/>
</svg>
