<svg width="20" height="21" viewBox="0 0 20 21" fill="none" xmlns="http://www.w3.org/2000/svg">
<g clip-path="url(#clip0_4171_22653)">
<path d="M17.1833 7.54036C16.3083 3.69036 12.95 1.95703 9.99996 1.95703C9.99996 1.95703 9.99996 1.95703 9.99162 1.95703C7.04996 1.95703 3.68329 3.68203 2.80829 7.53203C1.83329 11.832 4.46662 15.4737 6.84996 17.7654C7.73329 18.6154 8.86662 19.0404 9.99996 19.0404C11.1333 19.0404 12.2666 18.6154 13.1416 17.7654C15.525 15.4737 18.1583 11.8404 17.1833 7.54036ZM9.99996 11.7154C8.54996 11.7154 7.37496 10.5404 7.37496 9.09036C7.37496 7.64036 8.54996 6.46536 9.99996 6.46536C11.45 6.46536 12.625 7.64036 12.625 9.09036C12.625 10.5404 11.45 11.7154 9.99996 11.7154Z" fill="white"/>
</g>
<defs>
<clipPath id="clip0_4171_22653">
<rect width="20" height="20" fill="white" transform="translate(0 0.5)"/>
</clipPath>
</defs>
</svg>
