<svg width="20" height="20" viewBox="0 0 20 20" fill="none" xmlns="http://www.w3.org/2000/svg">
<path d="M7.49996 1.66797C5.31663 1.66797 3.54163 3.44297 3.54163 5.6263C3.54163 7.76797 5.21663 9.5013 7.39996 9.5763C7.46663 9.56797 7.53329 9.56797 7.58329 9.5763C7.59996 9.5763 7.60829 9.5763 7.62496 9.5763C7.63329 9.5763 7.63329 9.5763 7.64163 9.5763C9.77496 9.5013 11.45 7.76797 11.4583 5.6263C11.4583 3.44297 9.68329 1.66797 7.49996 1.66797Z" fill="#ADADAD"/>
<path d="M11.7333 11.7914C9.4083 10.2414 5.61663 10.2414 3.27497 11.7914C2.21663 12.4997 1.6333 13.4581 1.6333 14.4831C1.6333 15.5081 2.21663 16.4581 3.26663 17.1581C4.4333 17.9414 5.96663 18.3331 7.49997 18.3331C9.0333 18.3331 10.5666 17.9414 11.7333 17.1581C12.7833 16.4497 13.3666 15.4997 13.3666 14.4664C13.3583 13.4414 12.7833 12.4914 11.7333 11.7914Z" fill="#ADADAD"/>
<path d="M16.6583 6.11512C16.7916 7.73179 15.6416 9.14846 14.05 9.34012C14.0416 9.34012 14.0416 9.34012 14.0333 9.34012H14.0083C13.9583 9.34012 13.9083 9.34012 13.8666 9.35679C13.0583 9.39846 12.3166 9.14012 11.7583 8.66512C12.6166 7.89846 13.1083 6.74846 13.0083 5.49846C12.95 4.82346 12.7166 4.20679 12.3666 3.68179C12.6833 3.52346 13.05 3.42346 13.425 3.39012C15.0583 3.24846 16.5166 4.46512 16.6583 6.11512Z" fill="#ADADAD"/>
<path d="M18.325 13.8266C18.2583 14.635 17.7417 15.335 16.875 15.81C16.0417 16.2683 14.9917 16.485 13.95 16.46C14.55 15.9183 14.9 15.2433 14.9667 14.5266C15.05 13.4933 14.5583 12.5016 13.575 11.71C13.0167 11.2683 12.3667 10.9183 11.6583 10.66C13.5 10.1266 15.8167 10.485 17.2417 11.635C18.0083 12.2516 18.4 13.0266 18.325 13.8266Z" fill="#ADADAD"/>
</svg>
