<svg width="20" height="20" viewBox="0 0 20 20" fill="none" xmlns="http://www.w3.org/2000/svg">
<path d="M13.1666 1.84207C12.8249 1.5004 12.2333 1.73373 12.2333 2.20873V5.11707C12.2333 6.33373 13.2666 7.34207 14.5249 7.34207C15.3166 7.3504 16.4166 7.3504 17.3583 7.3504C17.8333 7.3504 18.0833 6.79207 17.7499 6.45873C16.5499 5.2504 14.3999 3.0754 13.1666 1.84207Z" fill="#ADADAD"/>
<path d="M17.0834 8.49297H14.675C12.7 8.49297 11.0917 6.88464 11.0917 4.90964V2.5013C11.0917 2.04297 10.7167 1.66797 10.2584 1.66797H6.72504C4.15837 1.66797 2.08337 3.33464 2.08337 6.30964V13.693C2.08337 16.668 4.15837 18.3346 6.72504 18.3346H13.275C15.8417 18.3346 17.9167 16.668 17.9167 13.693V9.3263C17.9167 8.86797 17.5417 8.49297 17.0834 8.49297ZM9.58337 14.793H6.25004C5.90837 14.793 5.62504 14.5096 5.62504 14.168C5.62504 13.8263 5.90837 13.543 6.25004 13.543H9.58337C9.92504 13.543 10.2084 13.8263 10.2084 14.168C10.2084 14.5096 9.92504 14.793 9.58337 14.793ZM11.25 11.4596H6.25004C5.90837 11.4596 5.62504 11.1763 5.62504 10.8346C5.62504 10.493 5.90837 10.2096 6.25004 10.2096H11.25C11.5917 10.2096 11.875 10.493 11.875 10.8346C11.875 11.1763 11.5917 11.4596 11.25 11.4596Z" fill="#ADADAD"/>
</svg>
