<svg width="20" height="20" viewBox="0 0 20 20" fill="none" xmlns="http://www.w3.org/2000/svg">
<path d="M13.4916 1.66797H6.50829C3.47496 1.66797 1.66663 3.4763 1.66663 6.50964V13.4846C1.66663 16.5263 3.47496 18.3346 6.50829 18.3346H13.4833C16.5166 18.3346 18.325 16.5263 18.325 13.493V6.50964C18.3333 3.4763 16.525 1.66797 13.4916 1.66797ZM6.39163 4.58464C6.39163 4.24297 6.67496 3.95964 7.01663 3.95964C7.35829 3.95964 7.64163 4.24297 7.64163 4.58464V7.83464C7.64163 8.1763 7.35829 8.45964 7.01663 8.45964C6.67496 8.45964 6.39163 8.1763 6.39163 7.83464V4.58464ZM7.99251 13.6678C7.7916 13.7637 7.64163 13.9545 7.64163 14.1771V15.418C7.64163 15.7596 7.35829 16.043 7.01663 16.043C6.67496 16.043 6.39163 15.7596 6.39163 15.418V14.1771C6.39163 13.9545 6.24162 13.7637 6.0408 13.6677C5.27606 13.302 4.74996 12.5275 4.74996 11.6263C4.74996 10.3763 5.76663 9.3513 7.01663 9.3513C8.26663 9.3513 9.29163 10.368 9.29163 11.6263C9.29163 12.5276 8.75904 13.3022 7.99251 13.6678ZM13.6083 15.418C13.6083 15.7596 13.325 16.043 12.9833 16.043C12.6416 16.043 12.3583 15.7596 12.3583 15.418V12.168C12.3583 11.8263 12.6416 11.543 12.9833 11.543C13.325 11.543 13.6083 11.8263 13.6083 12.168V15.418ZM12.9833 10.643C11.7333 10.643 10.7083 9.6263 10.7083 8.36797C10.7083 7.46663 11.2409 6.6921 12.0074 6.32643C12.2083 6.23059 12.3583 6.03977 12.3583 5.81718V4.58464C12.3583 4.24297 12.6416 3.95964 12.9833 3.95964C13.325 3.95964 13.6083 4.24297 13.6083 4.58464V5.82551C13.6083 6.04811 13.7583 6.23888 13.9591 6.33492C14.7239 6.70065 15.25 7.47509 15.25 8.3763C15.25 9.6263 14.2333 10.643 12.9833 10.643Z" fill="#ADADAD"/>
</svg>
