<svg width="20" height="20" viewBox="0 0 20 20" fill="none" xmlns="http://www.w3.org/2000/svg">
<path d="M16.75 7.6819C15.2416 7.6819 14.625 6.61523 15.375 5.3069C15.8083 4.54856 15.55 3.5819 14.7916 3.14856L13.35 2.32356C12.6916 1.9319 11.8416 2.16523 11.45 2.82356L11.3583 2.9819C10.6083 4.29023 9.37496 4.29023 8.61663 2.9819L8.52496 2.82356C8.14996 2.16523 7.29996 1.9319 6.64163 2.32356L5.19996 3.14856C4.44163 3.5819 4.18329 4.5569 4.61663 5.31523C5.37496 6.61523 4.75829 7.6819 3.24996 7.6819C2.38329 7.6819 1.66663 8.39023 1.66663 9.26523V10.7319C1.66663 11.5986 2.37496 12.3152 3.24996 12.3152C4.75829 12.3152 5.37496 13.3819 4.61663 14.6902C4.18329 15.4486 4.44163 16.4152 5.19996 16.8486L6.64163 17.6736C7.29996 18.0652 8.14996 17.8319 8.54163 17.1736L8.63329 17.0152C9.38329 15.7069 10.6166 15.7069 11.375 17.0152L11.4666 17.1736C11.8583 17.8319 12.7083 18.0652 13.3666 17.6736L14.8083 16.8486C15.5666 16.4152 15.825 15.4402 15.3916 14.6902C14.6333 13.3819 15.25 12.3152 16.7583 12.3152C17.625 12.3152 18.3416 11.6069 18.3416 10.7319V9.26523C18.3333 8.39856 17.625 7.6819 16.75 7.6819ZM9.99996 12.7069C8.50829 12.7069 7.29163 11.4902 7.29163 9.99856C7.29163 8.5069 8.50829 7.29023 9.99996 7.29023C11.4916 7.29023 12.7083 8.5069 12.7083 9.99856C12.7083 11.4902 11.4916 12.7069 9.99996 12.7069Z" fill="#0396FF"/>
</svg>
