<svg width="20" height="20" viewBox="0 0 20 20" fill="none" xmlns="http://www.w3.org/2000/svg">
<path d="M16.2333 2.35002L16.4666 2.82502C16.5833 3.05835 16.875 3.27502 17.1333 3.32502L17.45 3.37502C18.4 3.53335 18.625 4.23335 17.9416 4.92502L17.65 5.21669C17.4583 5.41669 17.35 5.80002 17.4083 6.06669L17.45 6.24169C17.7083 7.39169 17.1 7.83335 16.1 7.23335L15.8833 7.10835C15.625 6.95835 15.2083 6.95835 14.95 7.10835L14.7333 7.23335C13.725 7.84169 13.1166 7.39169 13.3833 6.24169L13.425 6.06669C13.4833 5.80002 13.375 5.41669 13.1833 5.21669L12.8916 4.91669C12.2083 4.22502 12.4333 3.52502 13.3833 3.36669L13.7 3.31669C13.95 3.27502 14.25 3.05002 14.3666 2.81669L14.6 2.34169C15.05 1.44169 15.7833 1.44169 16.2333 2.35002Z" fill="#0396FF"/>
<path d="M17.975 8.40842C17.675 8.62508 16.8334 9.02508 15.6334 8.40842C15.5 8.34175 15.3334 8.33342 15.2 8.40842C14.725 8.65008 14.2917 8.75008 13.95 8.75008C13.4167 8.75008 13.0417 8.54175 12.8584 8.40842C12.55 8.18342 11.9 7.54175 12.125 6.18341C12.15 6.04175 12.1084 5.90008 12.0167 5.79175C11.4417 5.13341 11.125 4.25008 11.35 3.55841C11.4334 3.28341 11.2584 2.91675 10.975 2.91675H5.83335C3.33335 2.91675 1.66669 4.16675 1.66669 7.08341V12.9167C1.66669 15.8334 3.33335 17.0834 5.83335 17.0834H14.1667C16.6667 17.0834 18.3334 15.8334 18.3334 12.9167V8.55842C18.3334 8.40008 18.1084 8.31675 17.975 8.40842ZM11.95 10.0751C11.4 10.5167 10.7 10.7334 10 10.7334C9.30002 10.7334 8.59169 10.5167 8.05002 10.0751L5.44169 7.99175C5.17502 7.77508 5.13335 7.37508 5.34169 7.10841C5.55835 6.84175 5.95002 6.79175 6.21669 7.00841L8.82502 9.09175C9.45835 9.60008 10.5334 9.60008 11.1667 9.09175C11.4334 8.87508 11.825 8.91675 12.0417 9.19175C12.2667 9.45841 12.225 9.85842 11.95 10.0751Z" fill="#0396FF"/>
</svg>
