<svg width="20" height="20" viewBox="0 0 20 20" fill="none" xmlns="http://www.w3.org/2000/svg">
<path d="M16.5249 7.24992L12.7499 3.47492C11.9582 2.68325 10.8666 2.25825 9.7499 2.31659L5.58323 2.51659C3.91656 2.59159 2.59156 3.91659 2.50823 5.57492L2.30823 9.74158C2.25823 10.8583 2.6749 11.9499 3.46656 12.7416L7.24156 16.5166C8.79156 18.0666 11.3082 18.0666 12.8666 16.5166L16.5249 12.8583C18.0832 11.3166 18.0832 8.79992 16.5249 7.24992ZM7.91656 10.3166C6.59156 10.3166 5.51656 9.24159 5.51656 7.91659C5.51656 6.59159 6.59156 5.51659 7.91656 5.51659C9.24156 5.51659 10.3166 6.59159 10.3166 7.91659C10.3166 9.24159 9.24156 10.3166 7.91656 10.3166Z" fill="#ADADAD"/>
</svg>
