<svg width="20" height="20" viewBox="0 0 20 20" fill="none" xmlns="http://www.w3.org/2000/svg">
<path d="M13.3334 3.54175C13.3334 4.57508 12.4917 5.41675 11.4584 5.41675H8.54175C8.02508 5.41675 7.55841 5.20841 7.21675 4.86675C6.87508 4.52508 6.66675 4.05841 6.66675 3.54175C6.66675 2.50841 7.50841 1.66675 8.54175 1.66675H11.4584C11.9751 1.66675 12.4417 1.87508 12.7834 2.21675C13.1251 2.55841 13.3334 3.02508 13.3334 3.54175Z" fill="#ADADAD"/>
<path d="M15.6916 4.19176C15.4999 4.03342 15.2833 3.90842 15.0499 3.81676C14.8083 3.72509 14.5666 3.91676 14.5166 4.16676C14.2333 5.59176 12.9749 6.66676 11.4583 6.66676H8.54159C7.70825 6.66676 6.92492 6.34176 6.33325 5.75009C5.89992 5.31676 5.59992 4.76676 5.48325 4.17509C5.43325 3.92509 5.18325 3.72509 4.94159 3.82509C3.97492 4.21676 3.33325 5.10009 3.33325 6.87509V15.0001C3.33325 17.5001 4.82492 18.3334 6.66659 18.3334H13.3333C15.1749 18.3334 16.6666 17.5001 16.6666 15.0001V6.87509C16.6666 5.51676 16.2916 4.68342 15.6916 4.19176ZM6.66659 10.2084H9.99992C10.3416 10.2084 10.6249 10.4918 10.6249 10.8334C10.6249 11.1751 10.3416 11.4584 9.99992 11.4584H6.66659C6.32492 11.4584 6.04159 11.1751 6.04159 10.8334C6.04159 10.4918 6.32492 10.2084 6.66659 10.2084ZM13.3333 14.7918H6.66659C6.32492 14.7918 6.04159 14.5084 6.04159 14.1668C6.04159 13.8251 6.32492 13.5418 6.66659 13.5418H13.3333C13.6749 13.5418 13.9583 13.8251 13.9583 14.1668C13.9583 14.5084 13.6749 14.7918 13.3333 14.7918Z" fill="#ADADAD"/>
</svg>
