<svg width="20" height="20" viewBox="0 0 20 20" fill="none" xmlns="http://www.w3.org/2000/svg">
<path d="M13.3333 3.54175C13.3333 4.57508 12.4916 5.41675 11.4583 5.41675H8.54163C8.02496 5.41675 7.55829 5.20841 7.21663 4.86675C6.87496 4.52508 6.66663 4.05841 6.66663 3.54175C6.66663 2.50841 7.50829 1.66675 8.54163 1.66675H11.4583C11.975 1.66675 12.4416 1.87508 12.7833 2.21675C13.125 2.55841 13.3333 3.02508 13.3333 3.54175Z" fill="#0396FF"/>
<path d="M15.6917 4.19176C15.5 4.03342 15.2834 3.90842 15.05 3.81676C14.8084 3.72509 14.5667 3.91676 14.5167 4.16676C14.2334 5.59176 12.975 6.66676 11.4584 6.66676H8.54171C7.70837 6.66676 6.92504 6.34176 6.33337 5.75009C5.90004 5.31676 5.60004 4.76676 5.48337 4.17509C5.43337 3.92509 5.18337 3.72509 4.94171 3.82509C3.97504 4.21676 3.33337 5.10009 3.33337 6.87509V15.0001C3.33337 17.5001 4.82504 18.3334 6.66671 18.3334H13.3334C15.175 18.3334 16.6667 17.5001 16.6667 15.0001V6.87509C16.6667 5.51676 16.2917 4.68342 15.6917 4.19176ZM6.66671 10.2084H10C10.3417 10.2084 10.625 10.4918 10.625 10.8334C10.625 11.1751 10.3417 11.4584 10 11.4584H6.66671C6.32504 11.4584 6.04171 11.1751 6.04171 10.8334C6.04171 10.4918 6.32504 10.2084 6.66671 10.2084ZM13.3334 14.7918H6.66671C6.32504 14.7918 6.04171 14.5084 6.04171 14.1668C6.04171 13.8251 6.32504 13.5418 6.66671 13.5418H13.3334C13.675 13.5418 13.9584 13.8251 13.9584 14.1668C13.9584 14.5084 13.675 14.7918 13.3334 14.7918Z" fill="#0396FF"/>
</svg>
